<svg xmlns="http://www.w3.org/2000/svg" viewBox="0 0 311.0 320.2" width="311" height="320" font-family="Georgia, 'Times New Roman', serif">
<circle cx="31.76" cy="288.90" r="5.27" fill="none" stroke="currentColor" stroke-width="1.3"/>
<line x1="28.04" y1="292.62" x2="35.48" y2="285.18" stroke="currentColor" stroke-width="1.3" stroke-linecap="round"/>
<line x1="28.04" y1="285.18" x2="35.48" y2="292.62" stroke="currentColor" stroke-width="1.3" stroke-linecap="round"/>
<circle cx="31.76" cy="239.30" r="5.27" fill="none" stroke="currentColor" stroke-width="1.3"/>
<line x1="28.04" y1="243.02" x2="35.48" y2="235.58" stroke="currentColor" stroke-width="1.3" stroke-linecap="round"/>
<line x1="28.04" y1="235.58" x2="35.48" y2="243.02" stroke="currentColor" stroke-width="1.3" stroke-linecap="round"/>
<circle cx="31.76" cy="189.70" r="5.27" fill="none" stroke="currentColor" stroke-width="1.3"/>
<line x1="28.04" y1="193.42" x2="35.48" y2="185.98" stroke="currentColor" stroke-width="1.3" stroke-linecap="round"/>
<line x1="28.04" y1="185.98" x2="35.48" y2="193.42" stroke="currentColor" stroke-width="1.3" stroke-linecap="round"/>
<circle cx="31.76" cy="140.10" r="5.27" fill="none" stroke="currentColor" stroke-width="1.3"/>
<line x1="28.04" y1="143.82" x2="35.48" y2="136.38" stroke="currentColor" stroke-width="1.3" stroke-linecap="round"/>
<line x1="28.04" y1="136.38" x2="35.48" y2="143.82" stroke="currentColor" stroke-width="1.3" stroke-linecap="round"/>
<circle cx="31.76" cy="90.50" r="5.27" fill="none" stroke="currentColor" stroke-width="1.3"/>
<line x1="28.04" y1="94.22" x2="35.48" y2="86.78" stroke="currentColor" stroke-width="1.3" stroke-linecap="round"/>
<line x1="28.04" y1="86.78" x2="35.48" y2="94.22" stroke="currentColor" stroke-width="1.3" stroke-linecap="round"/>
<circle cx="93.76" cy="288.90" r="5.27" fill="none" stroke="currentColor" stroke-width="1.3"/>
<line x1="90.04" y1="292.62" x2="97.48" y2="285.18" stroke="currentColor" stroke-width="1.3" stroke-linecap="round"/>
<line x1="90.04" y1="285.18" x2="97.48" y2="292.62" stroke="currentColor" stroke-width="1.3" stroke-linecap="round"/>
<circle cx="93.76" cy="239.30" r="5.27" fill="none" stroke="currentColor" stroke-width="1.3"/>
<line x1="90.04" y1="243.02" x2="97.48" y2="235.58" stroke="currentColor" stroke-width="1.3" stroke-linecap="round"/>
<line x1="90.04" y1="235.58" x2="97.48" y2="243.02" stroke="currentColor" stroke-width="1.3" stroke-linecap="round"/>
<circle cx="93.76" cy="189.70" r="5.27" fill="none" stroke="currentColor" stroke-width="1.3"/>
<line x1="90.04" y1="193.42" x2="97.48" y2="185.98" stroke="currentColor" stroke-width="1.3" stroke-linecap="round"/>
<line x1="90.04" y1="185.98" x2="97.48" y2="193.42" stroke="currentColor" stroke-width="1.3" stroke-linecap="round"/>
<circle cx="93.76" cy="140.10" r="5.27" fill="none" stroke="currentColor" stroke-width="1.3"/>
<line x1="90.04" y1="143.82" x2="97.48" y2="136.38" stroke="currentColor" stroke-width="1.3" stroke-linecap="round"/>
<line x1="90.04" y1="136.38" x2="97.48" y2="143.82" stroke="currentColor" stroke-width="1.3" stroke-linecap="round"/>
<circle cx="93.76" cy="90.50" r="5.27" fill="none" stroke="currentColor" stroke-width="1.3"/>
<line x1="90.04" y1="94.22" x2="97.48" y2="86.78" stroke="currentColor" stroke-width="1.3" stroke-linecap="round"/>
<line x1="90.04" y1="86.78" x2="97.48" y2="94.22" stroke="currentColor" stroke-width="1.3" stroke-linecap="round"/>
<circle cx="155.76" cy="288.90" r="5.27" fill="none" stroke="currentColor" stroke-width="1.3"/>
<line x1="152.04" y1="292.62" x2="159.48" y2="285.18" stroke="currentColor" stroke-width="1.3" stroke-linecap="round"/>
<line x1="152.04" y1="285.18" x2="159.48" y2="292.62" stroke="currentColor" stroke-width="1.3" stroke-linecap="round"/>
<circle cx="155.76" cy="239.30" r="5.27" fill="none" stroke="currentColor" stroke-width="1.3"/>
<line x1="152.04" y1="243.02" x2="159.48" y2="235.58" stroke="currentColor" stroke-width="1.3" stroke-linecap="round"/>
<line x1="152.04" y1="235.58" x2="159.48" y2="243.02" stroke="currentColor" stroke-width="1.3" stroke-linecap="round"/>
<circle cx="155.76" cy="189.70" r="5.27" fill="none" stroke="currentColor" stroke-width="1.3"/>
<line x1="152.04" y1="193.42" x2="159.48" y2="185.98" stroke="currentColor" stroke-width="1.3" stroke-linecap="round"/>
<line x1="152.04" y1="185.98" x2="159.48" y2="193.42" stroke="currentColor" stroke-width="1.3" stroke-linecap="round"/>
<circle cx="155.76" cy="140.10" r="5.27" fill="none" stroke="currentColor" stroke-width="1.3"/>
<line x1="152.04" y1="143.82" x2="159.48" y2="136.38" stroke="currentColor" stroke-width="1.3" stroke-linecap="round"/>
<line x1="152.04" y1="136.38" x2="159.48" y2="143.82" stroke="currentColor" stroke-width="1.3" stroke-linecap="round"/>
<circle cx="155.76" cy="90.50" r="5.27" fill="none" stroke="currentColor" stroke-width="1.3"/>
<line x1="152.04" y1="94.22" x2="159.48" y2="86.78" stroke="currentColor" stroke-width="1.3" stroke-linecap="round"/>
<line x1="152.04" y1="86.78" x2="159.48" y2="94.22" stroke="currentColor" stroke-width="1.3" stroke-linecap="round"/>
<circle cx="217.76" cy="288.90" r="5.27" fill="none" stroke="currentColor" stroke-width="1.3"/>
<line x1="214.04" y1="292.62" x2="221.48" y2="285.18" stroke="currentColor" stroke-width="1.3" stroke-linecap="round"/>
<line x1="214.04" y1="285.18" x2="221.48" y2="292.62" stroke="currentColor" stroke-width="1.3" stroke-linecap="round"/>
<circle cx="217.76" cy="239.30" r="5.27" fill="none" stroke="currentColor" stroke-width="1.3"/>
<line x1="214.04" y1="243.02" x2="221.48" y2="235.58" stroke="currentColor" stroke-width="1.3" stroke-linecap="round"/>
<line x1="214.04" y1="235.58" x2="221.48" y2="243.02" stroke="currentColor" stroke-width="1.3" stroke-linecap="round"/>
<circle cx="217.76" cy="189.70" r="5.27" fill="none" stroke="currentColor" stroke-width="1.3"/>
<line x1="214.04" y1="193.42" x2="221.48" y2="185.98" stroke="currentColor" stroke-width="1.3" stroke-linecap="round"/>
<line x1="214.04" y1="185.98" x2="221.48" y2="193.42" stroke="currentColor" stroke-width="1.3" stroke-linecap="round"/>
<circle cx="217.76" cy="140.10" r="5.27" fill="none" stroke="currentColor" stroke-width="1.3"/>
<line x1="214.04" y1="143.82" x2="221.48" y2="136.38" stroke="currentColor" stroke-width="1.3" stroke-linecap="round"/>
<line x1="214.04" y1="136.38" x2="221.48" y2="143.82" stroke="currentColor" stroke-width="1.3" stroke-linecap="round"/>
<circle cx="217.76" cy="90.50" r="5.27" fill="none" stroke="currentColor" stroke-width="1.3"/>
<line x1="214.04" y1="94.22" x2="221.48" y2="86.78" stroke="currentColor" stroke-width="1.3" stroke-linecap="round"/>
<line x1="214.04" y1="86.78" x2="221.48" y2="94.22" stroke="currentColor" stroke-width="1.3" stroke-linecap="round"/>
<circle cx="279.76" cy="288.90" r="5.27" fill="none" stroke="currentColor" stroke-width="1.3"/>
<line x1="276.04" y1="292.62" x2="283.48" y2="285.18" stroke="currentColor" stroke-width="1.3" stroke-linecap="round"/>
<line x1="276.04" y1="285.18" x2="283.48" y2="292.62" stroke="currentColor" stroke-width="1.3" stroke-linecap="round"/>
<circle cx="279.76" cy="239.30" r="5.27" fill="none" stroke="currentColor" stroke-width="1.3"/>
<line x1="276.04" y1="243.02" x2="283.48" y2="235.58" stroke="currentColor" stroke-width="1.3" stroke-linecap="round"/>
<line x1="276.04" y1="235.58" x2="283.48" y2="243.02" stroke="currentColor" stroke-width="1.3" stroke-linecap="round"/>
<circle cx="279.76" cy="189.70" r="5.27" fill="none" stroke="currentColor" stroke-width="1.3"/>
<line x1="276.04" y1="193.42" x2="283.48" y2="185.98" stroke="currentColor" stroke-width="1.3" stroke-linecap="round"/>
<line x1="276.04" y1="185.98" x2="283.48" y2="193.42" stroke="currentColor" stroke-width="1.3" stroke-linecap="round"/>
<circle cx="279.76" cy="140.10" r="5.27" fill="none" stroke="currentColor" stroke-width="1.3"/>
<line x1="276.04" y1="143.82" x2="283.48" y2="136.38" stroke="currentColor" stroke-width="1.3" stroke-linecap="round"/>
<line x1="276.04" y1="136.38" x2="283.48" y2="143.82" stroke="currentColor" stroke-width="1.3" stroke-linecap="round"/>
<circle cx="279.76" cy="90.50" r="5.27" fill="none" stroke="currentColor" stroke-width="1.3"/>
<line x1="276.04" y1="94.22" x2="283.48" y2="86.78" stroke="currentColor" stroke-width="1.3" stroke-linecap="round"/>
<line x1="276.04" y1="86.78" x2="283.48" y2="94.22" stroke="currentColor" stroke-width="1.3" stroke-linecap="round"/>
<circle cx="155.76" cy="177.30" r="3.41" fill="currentColor" stroke="currentColor" stroke-width="1"/>
<circle cx="155.76" cy="177.30" r="93.00" fill="none" stroke="currentColor" stroke-width="2" stroke-dasharray="7 5"/>
<circle cx="155.76" cy="270.30" r="16.12" fill="#ffffff" class="mtph-pp" stroke="currentColor" stroke-width="2"/>
<text class="mtph-lbl" x="155.76" y="270.30" text-anchor="middle" dominant-baseline="central" font-size="21" font-style="italic" fill="#ffffff" stroke="#ffffff" stroke-width="3.2" stroke-linejoin="round"><tspan dy="0.00">+</tspan></text><text x="155.76" y="270.30" text-anchor="middle" dominant-baseline="central" font-size="21" font-style="italic" fill="currentColor"><tspan dy="0.00">+</tspan></text>
<text class="mtph-lbl" x="130.96" y="270.30" text-anchor="middle" dominant-baseline="central" font-size="18" font-style="italic" fill="#ffffff" stroke="#ffffff" stroke-width="3.2" stroke-linejoin="round"><tspan dy="0.00">+q</tspan></text><text x="130.96" y="270.30" text-anchor="middle" dominant-baseline="central" font-size="18" font-style="italic" fill="currentColor"><tspan dy="0.00">+q</tspan></text>
<line x1="155.76" y1="270.30" x2="242.56" y2="270.30" stroke="currentColor" stroke-width="2" stroke-linecap="round"/><polygon points="242.56,270.30 232.56,274.50 232.56,266.10" fill="currentColor"/>
<text class="mtph-lbl" x="258.56" y="270.30" text-anchor="start" dominant-baseline="central" font-size="18" font-style="italic" fill="#ffffff" stroke="#ffffff" stroke-width="3.2" stroke-linejoin="round"><tspan dy="0.00">v</tspan></text><text x="258.56" y="270.30" text-anchor="start" dominant-baseline="central" font-size="18" font-style="italic" fill="currentColor"><tspan dy="0.00">v</tspan></text>
<line x1="155.76" y1="270.30" x2="155.76" y2="208.30" stroke="currentColor" stroke-width="2" stroke-linecap="round"/><polygon points="155.76,208.30 159.96,218.30 151.56,218.30" fill="currentColor"/>
<text class="mtph-lbl" x="155.76" y="192.30" text-anchor="middle" dominant-baseline="central" font-size="18" font-style="italic" fill="#ffffff" stroke="#ffffff" stroke-width="3.2" stroke-linejoin="round"><tspan dy="0.00">F</tspan></text><text x="155.76" y="192.30" text-anchor="middle" dominant-baseline="central" font-size="18" font-style="italic" fill="currentColor"><tspan dy="0.00">F</tspan></text>
<line x1="155.76" y1="177.30" x2="227.06" y2="236.82" stroke="currentColor" stroke-width="2" stroke-linecap="round"/>
<text class="mtph-lbl" x="202.26" y="192.80" text-anchor="middle" dominant-baseline="central" font-size="18" font-style="italic" fill="#ffffff" stroke="#ffffff" stroke-width="3.2" stroke-linejoin="round"><tspan dy="0.00">r</tspan></text><text x="202.26" y="192.80" text-anchor="middle" dominant-baseline="central" font-size="18" font-style="italic" fill="currentColor"><tspan dy="0.00">r</tspan></text>
<text class="mtph-lbl" x="31.76" y="44.00" text-anchor="middle" dominant-baseline="central" font-size="18" font-style="italic" fill="#ffffff" stroke="#ffffff" stroke-width="3.2" stroke-linejoin="round"><tspan dy="0.00">B</tspan></text><text x="31.76" y="44.00" text-anchor="middle" dominant-baseline="central" font-size="18" font-style="italic" fill="currentColor"><tspan dy="0.00">B</tspan></text>
</svg>
