<svg xmlns="http://www.w3.org/2000/svg" viewBox="0 0 545.8 389.3" width="546" height="389" font-family="Georgia, 'Times New Roman', serif">
<line x1="286.40" y1="152.50" x2="286.40" y2="301.30" stroke="currentColor" stroke-width="2" stroke-linecap="round"/>
<line x1="286.40" y1="163.66" x2="286.40" y2="141.34" stroke="currentColor" stroke-width="1.3" stroke-linecap="round"/><polygon points="286.40,141.34 290.60,151.34 282.20,151.34" fill="currentColor"/>
<line x1="286.40" y1="290.14" x2="286.40" y2="312.46" stroke="currentColor" stroke-width="1.3" stroke-linecap="round"/><polygon points="286.40,312.46 282.20,302.46 290.60,302.46" fill="currentColor"/>
<line x1="484.80" y1="152.50" x2="484.80" y2="301.30" stroke="currentColor" stroke-width="2" stroke-linecap="round"/>
<line x1="484.80" y1="141.34" x2="484.80" y2="163.66" stroke="currentColor" stroke-width="1.3" stroke-linecap="round"/><polygon points="484.80,163.66 480.60,153.66 489.00,153.66" fill="currentColor"/>
<line x1="484.80" y1="312.46" x2="484.80" y2="290.14" stroke="currentColor" stroke-width="1.3" stroke-linecap="round"/><polygon points="484.80,290.14 489.00,300.14 480.60,300.14" fill="currentColor"/>
<line x1="100.40" y1="195.90" x2="286.40" y2="208.30" stroke="currentColor" stroke-width="1.3" stroke-linecap="round"/><polygon points="286.40,208.30 276.14,211.83 276.70,203.44" fill="currentColor"/>
<line x1="286.40" y1="208.30" x2="484.80" y2="239.30" stroke="currentColor" stroke-width="1.3" stroke-linecap="round"/>
<circle cx="100.40" cy="226.90" r="24.80" fill="none" stroke="currentColor" stroke-width="1.3"/>
<circle cx="100.40" cy="226.90" r="49.60" fill="none" stroke="currentColor" stroke-width="1.3"/>
<circle cx="100.40" cy="226.90" r="74.40" fill="none" stroke="currentColor" stroke-width="1.3"/>
<circle cx="100.40" cy="226.90" r="3.10" fill="currentColor" stroke="currentColor" stroke-width="2"/>
<polyline points="467.32,233.26 468.09,235.08 469.06,236.80 470.20,238.42 471.50,239.90 472.95,241.24 474.54,242.41 476.24,243.41 478.04,244.23 479.92,244.85 481.85,245.26 483.81,245.47 485.79,245.47 487.75,245.26 489.68,244.85 491.56,244.23 493.36,243.41 495.06,242.41 496.65,241.24 498.10,239.90 499.40,238.42 500.54,236.80 501.51,235.08 502.28,233.26" fill="none" stroke="currentColor" stroke-width="1.3" stroke-linejoin="round" stroke-linecap="round"/>
<polyline points="449.84,239.62 451.39,243.26 453.31,246.71 455.59,249.94 458.20,252.90 461.11,255.58 464.28,257.93 467.69,259.93 471.28,261.56 475.04,262.80 478.90,263.63 482.82,264.05 486.78,264.05 490.70,263.63 494.56,262.80 498.32,261.56 501.91,259.93 505.32,257.93 508.49,255.58 511.40,252.90 514.01,249.94 516.29,246.71 518.21,243.26 519.76,239.62" fill="none" stroke="currentColor" stroke-width="1.3" stroke-linejoin="round" stroke-linecap="round"/>
<circle cx="484.80" cy="226.90" r="3.10" fill="currentColor" stroke="currentColor" stroke-width="2"/>
<polyline points="348.40,363.30 348.04,356.67 346.98,350.12 345.23,343.72 342.80,337.54 339.72,331.66 336.03,326.14 331.78,321.05 327.00,316.44 321.76,312.37 316.11,308.88 310.13,306.02 303.87,303.81 297.41,302.29 290.82,301.46 284.19,301.34 277.58,301.93 271.07,303.23 264.73,305.21 258.65,307.86 252.88,311.14 247.50,315.02 242.56,319.46" fill="none" stroke="currentColor" stroke-width="2" stroke-linejoin="round" stroke-linecap="round"/>
<polyline points="286.40,90.50 286.36,90.18 286.23,89.88 286.03,89.60 285.75,89.38 285.42,89.22 285.03,89.13 284.61,89.12 284.16,89.21 283.71,89.39 283.28,89.66 282.88,90.04 282.53,90.50 282.24,91.05 282.03,91.67 281.92,92.35 281.93,93.08 282.04,93.84 282.29,94.61 282.66,95.37 283.17,96.09 283.80,96.77 284.56,97.36 285.43,97.86 286.40,98.25 287.45,98.50 288.57,98.61 289.74,98.56 290.92,98.33 292.10,97.93 293.25,97.35 294.34,96.59 295.35,95.67 296.25,94.58 297.01,93.34 297.61,91.98 298.03,90.50 298.25,88.94 298.25,87.32 298.04,85.68 297.59,84.04 296.90,82.44 295.99,80.91 294.85,79.48 293.50,78.20 291.96,77.07 290.24,76.15 288.38,75.45 286.40,75.00 284.33,74.81 282.22,74.90 280.10,75.28 278.00,75.96 275.98,76.92 274.07,78.17 272.31,79.69 270.74,81.46 269.39,83.46 268.31,85.65 267.51,88.01 267.02,90.50 266.87,93.07 267.06,95.68 267.60,98.29 268.50,100.83 269.75,103.28 271.33,105.57 273.23,107.66 275.42,109.52 277.87,111.09 280.55,112.33 283.41,113.23 286.40,113.75 289.48,113.87 292.58,113.58 295.67,112.88 298.67,111.75 301.54,110.23 304.21,108.31 306.64,106.03 308.77,103.42 310.57,100.51 311.98,97.35 312.97,94.00 313.53,90.50 313.61,86.92 313.22,83.31 312.36,79.75 311.01,76.29 309.20,73.00 306.95,69.95 304.29,67.19 301.25,64.77 297.89,62.75 294.26,61.18 290.40,60.09 286.40,59.50 282.31,59.45 278.21,59.93 274.17,60.96 270.25,62.53 266.55,64.63 263.11,67.21 260.01,70.25 257.32,73.71 255.07,77.52 253.34,81.64 252.14,85.99 251.53,90.50 251.50,95.09 252.09,99.69 253.28,104.22 255.08,108.58 257.45,112.71 260.37,116.53 263.79,119.96 267.67,122.94 271.94,125.41 276.54,127.31 281.38,128.60 286.40,129.25 291.50,129.24 296.60,128.55 301.60,127.20 306.42,125.18 310.97,122.52 315.17,119.27 318.94,115.47 322.20,111.17 324.89,106.44 326.95,101.37 328.34,96.02 329.03,90.50 328.98,84.89 328.20,79.30 326.68,73.82 324.43,68.54 321.50,63.57 317.91,58.99 313.72,54.89 309.00,51.35 303.82,48.43 298.27,46.21 292.43,44.72 286.40,44.00" fill="none" stroke="currentColor" stroke-width="2" stroke-linejoin="round" stroke-linecap="round"/>
<text class="mtph-lbl" x="294.40" y="44.00" text-anchor="start" dominant-baseline="central" font-size="18" font-style="italic" fill="#ffffff" stroke="#ffffff" stroke-width="3.2" stroke-linejoin="round"><tspan dy="0.00">φ</tspan></text><text x="294.40" y="44.00" text-anchor="start" dominant-baseline="central" font-size="18" font-style="italic" fill="currentColor"><tspan dy="0.00">φ</tspan></text>
</svg>
