<svg xmlns="http://www.w3.org/2000/svg" viewBox="0 0 502.0 466.8" width="502" height="467" font-family="Georgia, 'Times New Roman', serif">
<line x1="128.76" y1="292.00" x2="265.16" y2="292.00" stroke="currentColor" stroke-width="1.3" stroke-linecap="round"/><polygon points="265.16,292.00 255.16,296.20 255.16,287.80" fill="currentColor"/>
<line x1="128.76" y1="292.00" x2="128.76" y2="155.60" stroke="currentColor" stroke-width="1.3" stroke-linecap="round"/><polygon points="128.76,155.60 132.96,165.60 124.56,165.60" fill="currentColor"/>
<line x1="128.76" y1="292.00" x2="45.52" y2="351.46" stroke="currentColor" stroke-width="1.3" stroke-linecap="round"/><polygon points="45.52,351.46 51.22,342.23 56.10,349.07" fill="currentColor"/>
<text class="mtph-lbl" x="273.16" y="302.00" text-anchor="start" dominant-baseline="central" font-size="18" font-style="italic" fill="#ffffff" stroke="#ffffff" stroke-width="3.2" stroke-linejoin="round"><tspan dy="0.00">x</tspan></text><text x="273.16" y="302.00" text-anchor="start" dominant-baseline="central" font-size="18" font-style="italic" fill="currentColor"><tspan dy="0.00">x</tspan></text>
<text class="mtph-lbl" x="136.76" y="149.60" text-anchor="start" dominant-baseline="central" font-size="18" font-style="italic" fill="#ffffff" stroke="#ffffff" stroke-width="3.2" stroke-linejoin="round"><tspan dy="0.00">y</tspan></text><text x="136.76" y="149.60" text-anchor="start" dominant-baseline="central" font-size="18" font-style="italic" fill="currentColor"><tspan dy="0.00">y</tspan></text>
<text class="mtph-lbl" x="37.52" y="357.46" text-anchor="end" dominant-baseline="central" font-size="18" font-style="italic" fill="#ffffff" stroke="#ffffff" stroke-width="3.2" stroke-linejoin="round"><tspan dy="0.00">z</tspan></text><text x="37.52" y="357.46" text-anchor="end" dominant-baseline="central" font-size="18" font-style="italic" fill="currentColor"><tspan dy="0.00">z</tspan></text>
<circle cx="413.96" cy="230.00" r="62.00" fill="none" stroke="currentColor" stroke-width="2"/>
<ellipse cx="413.96" cy="230.00" rx="62.00" ry="19.84" fill="none" stroke="currentColor" stroke-width="1.3"/>
<text class="mtph-lbl" x="413.96" y="158.00" text-anchor="middle" dominant-baseline="central" font-size="18" font-style="italic" fill="#ffffff" stroke="#ffffff" stroke-width="3.2" stroke-linejoin="round"><tspan dy="0.00">R</tspan></text><text x="413.96" y="158.00" text-anchor="middle" dominant-baseline="central" font-size="18" font-style="italic" fill="currentColor"><tspan dy="0.00">R</tspan></text>
<path d="M 128.76 327.96 C 156.66 357.72 149.22 391.20 128.76 391.20 C 108.30 391.20 100.86 357.72 128.76 327.96 Z" fill="none" stroke="currentColor" stroke-width="2" stroke-linejoin="round" stroke-linecap="round"/>
<polyline points="215.56,81.20 245.32,81.20 257.97,68.80 270.62,93.60 283.27,68.80 295.92,93.60 308.56,68.80 321.21,93.60 333.86,68.80 346.51,93.60 359.16,68.80 371.80,81.20 401.56,81.20" fill="none" stroke="currentColor" stroke-width="2" stroke-linejoin="round" stroke-linecap="round"/>
<text class="mtph-lbl" x="308.56" y="67.20" text-anchor="middle" dominant-baseline="central" font-size="18" font-style="italic" fill="#ffffff" stroke="#ffffff" stroke-width="3.2" stroke-linejoin="round"><tspan dy="0.00">cut</tspan></text><text x="308.56" y="67.20" text-anchor="middle" dominant-baseline="central" font-size="18" font-style="italic" fill="currentColor"><tspan dy="0.00">cut</tspan></text>
<line x1="128.76" y1="44.00" x2="339.56" y2="44.00" stroke="currentColor" stroke-width="2" stroke-linecap="round"/><polygon points="339.56,44.00 329.56,48.20 329.56,39.80" fill="currentColor"/>
<text class="mtph-lbl" x="355.56" y="44.00" text-anchor="start" dominant-baseline="central" font-size="18" font-style="italic" fill="#ffffff" stroke="#ffffff" stroke-width="3.2" stroke-linejoin="round"><tspan dy="0.00">I</tspan></text><text x="355.56" y="44.00" text-anchor="start" dominant-baseline="central" font-size="18" font-style="italic" fill="currentColor"><tspan dy="0.00">I</tspan></text>
<line x1="128.76" y1="440.80" x2="413.96" y2="440.80" stroke="currentColor" stroke-width="2" stroke-linecap="round"/>
<line x1="277.56" y1="440.80" x2="277.56" y2="316.80" stroke="currentColor" stroke-width="2" stroke-linecap="round"/><polygon points="277.56,316.80 281.76,326.80 273.36,326.80" fill="currentColor"/>
<text class="mtph-lbl" x="277.56" y="300.80" text-anchor="middle" dominant-baseline="central" font-size="18" font-style="italic" fill="#ffffff" stroke="#ffffff" stroke-width="3.2" stroke-linejoin="round"><tspan dy="0.00">v</tspan></text><text x="277.56" y="300.80" text-anchor="middle" dominant-baseline="central" font-size="18" font-style="italic" fill="currentColor"><tspan dy="0.00">v</tspan></text>
<text class="mtph-lbl" x="277.56" y="168.00" text-anchor="middle" dominant-baseline="central" font-size="18" font-style="italic" fill="#ffffff" stroke="#ffffff" stroke-width="3.2" stroke-linejoin="round"><tspan dy="0.00">note</tspan></text><text x="277.56" y="168.00" text-anchor="middle" dominant-baseline="central" font-size="18" font-style="italic" fill="currentColor"><tspan dy="0.00">note</tspan></text>
</svg>
