<svg xmlns="http://www.w3.org/2000/svg" viewBox="0 0 527.9 408.6" width="528" height="409" font-family="Georgia, 'Times New Roman', serif">
<polygon points="226.26,69.40 244.86,50.80 263.46,69.40" fill="#ffffff" class="mtph-pp" stroke="currentColor" stroke-width="2" stroke-linejoin="round"/>
<line x1="216.96" y1="69.40" x2="272.76" y2="69.40" stroke="currentColor" stroke-width="2" stroke-linecap="round"/>
<line x1="216.96" y1="69.40" x2="203.32" y2="83.04" stroke="currentColor" stroke-width="1.3" stroke-linecap="round"/>
<line x1="236.80" y1="69.40" x2="223.16" y2="83.04" stroke="currentColor" stroke-width="1.3" stroke-linecap="round"/>
<line x1="256.64" y1="69.40" x2="243.00" y2="83.04" stroke="currentColor" stroke-width="1.3" stroke-linecap="round"/>
<circle cx="244.86" cy="50.80" r="3.10" fill="currentColor" stroke="currentColor" stroke-width="2"/>
<text class="mtph-lbl" x="254.86" y="50.80" text-anchor="start" dominant-baseline="central" font-size="18" font-style="italic" fill="#ffffff" stroke="#ffffff" stroke-width="3.2" stroke-linejoin="round"><tspan dy="0.00">O</tspan></text><text x="254.86" y="50.80" text-anchor="start" dominant-baseline="central" font-size="18" font-style="italic" fill="currentColor"><tspan dy="0.00">O</tspan></text>
<polygon points="412.26,69.40 430.86,50.80 449.46,69.40" fill="#ffffff" class="mtph-pp" stroke="currentColor" stroke-width="2" stroke-linejoin="round"/>
<line x1="402.96" y1="69.40" x2="458.76" y2="69.40" stroke="currentColor" stroke-width="2" stroke-linecap="round"/>
<line x1="402.96" y1="69.40" x2="389.32" y2="83.04" stroke="currentColor" stroke-width="1.3" stroke-linecap="round"/>
<line x1="422.80" y1="69.40" x2="409.16" y2="83.04" stroke="currentColor" stroke-width="1.3" stroke-linecap="round"/>
<line x1="442.64" y1="69.40" x2="429.00" y2="83.04" stroke="currentColor" stroke-width="1.3" stroke-linecap="round"/>
<circle cx="430.86" cy="50.80" r="3.10" fill="currentColor" stroke="currentColor" stroke-width="2"/>
<line x1="244.86" y1="50.80" x2="368.86" y2="143.80" stroke="currentColor" stroke-width="3" stroke-linecap="round"/>
<text class="mtph-lbl" x="306.86" y="85.30" text-anchor="middle" dominant-baseline="central" font-size="18" font-style="italic" fill="#ffffff" stroke="#ffffff" stroke-width="3.2" stroke-linejoin="round"><tspan dy="0.00">ℓ</tspan></text><text x="306.86" y="85.30" text-anchor="middle" dominant-baseline="central" font-size="18" font-style="italic" fill="currentColor"><tspan dy="0.00">ℓ</tspan></text>
<circle cx="120.86" cy="50.80" r="24.80" fill="none" stroke="currentColor" stroke-width="2"/>
<circle cx="120.86" cy="50.80" r="2.48" fill="currentColor" stroke="currentColor" stroke-width="2"/>
<line x1="430.86" y1="50.80" x2="430.86" y2="174.80" stroke="#888888" stroke-width="1.3" stroke-linecap="round" stroke-dasharray="7 5"/>
<line x1="430.86" y1="50.80" x2="483.26" y2="163.18" stroke="currentColor" stroke-width="2" stroke-linecap="round"/>
<circle cx="430.86" cy="50.80" r="3.10" fill="currentColor" stroke="currentColor" stroke-width="2"/>
<circle cx="483.26" cy="163.18" r="18.60" fill="#ffffff" class="mtph-pp" stroke="currentColor" stroke-width="2"/>
<polyline points="430.86,90.48 433.02,90.42 435.18,90.24 437.32,89.95 439.45,89.54 441.55,89.01 443.61,88.37 445.64,87.62 447.63,86.76" fill="none" stroke="currentColor" stroke-width="1.3" stroke-linejoin="round" stroke-linecap="round"/>
<text class="mtph-lbl" x="442.80" y="104.67" text-anchor="middle" dominant-baseline="central" font-size="18" font-style="italic" fill="#ffffff" stroke="#ffffff" stroke-width="3.2" stroke-linejoin="round"><tspan dy="0.00">θ</tspan></text><text x="442.80" y="104.67" text-anchor="middle" dominant-baseline="central" font-size="18" font-style="italic" fill="currentColor"><tspan dy="0.00">θ</tspan></text>
<text class="mtph-lbl" x="483.26" y="163.18" text-anchor="middle" dominant-baseline="central" font-size="18" font-style="italic" fill="#ffffff" stroke="#ffffff" stroke-width="3.2" stroke-linejoin="round"><tspan dy="0.00">m</tspan></text><text x="483.26" y="163.18" text-anchor="middle" dominant-baseline="central" font-size="18" font-style="italic" fill="currentColor"><tspan dy="0.00">m</tspan></text>
<polyline points="34.06,236.80 34.06,216.96 26.00,208.53 42.12,200.10 26.00,191.66 42.12,183.23 26.00,174.80 42.12,166.37 26.00,157.94 42.12,149.50 26.00,141.07 34.06,132.64 34.06,112.80" fill="none" stroke="currentColor" stroke-width="1.3" stroke-linejoin="round" stroke-linecap="round"/>
<text class="mtph-lbl" x="34.06" y="160.80" text-anchor="middle" dominant-baseline="central" font-size="18" font-style="italic" fill="#ffffff" stroke="#ffffff" stroke-width="3.2" stroke-linejoin="round"><tspan dy="0.00">k</tspan></text><text x="34.06" y="160.80" text-anchor="middle" dominant-baseline="central" font-size="18" font-style="italic" fill="currentColor"><tspan dy="0.00">k</tspan></text>
<polyline points="244.86,360.80 245.12,360.77 245.36,360.67 245.58,360.50 245.75,360.28 245.88,360.01 245.96,359.70 245.96,359.37 245.89,359.01 245.75,358.65 245.53,358.30 245.23,357.98 244.86,357.70 244.42,357.47 243.92,357.31 243.38,357.22 242.79,357.22 242.19,357.32 241.57,357.51 240.97,357.81 240.39,358.22 239.85,358.72 239.37,359.33 238.97,360.02 238.66,360.80 238.46,361.64 238.37,362.54 238.42,363.47 238.60,364.42 238.92,365.36 239.38,366.28 239.98,367.15 240.73,367.96 241.60,368.68 242.59,369.28 243.68,369.76 244.86,370.10 246.11,370.28 247.40,370.28 248.72,370.11 250.03,369.75 251.31,369.20 252.53,368.47 253.67,367.56 254.70,366.48 255.60,365.25 256.34,363.88 256.90,362.38 257.26,360.80 257.41,359.15 257.34,357.46 257.03,355.76 256.49,354.08 255.72,352.47 254.72,350.94 253.51,349.53 252.09,348.27 250.50,347.20 248.74,346.33 246.85,345.69 244.86,345.30 242.80,345.18 240.71,345.33 238.63,345.76 236.59,346.48 234.64,347.48 232.80,348.74 231.13,350.26 229.65,352.02 228.39,353.98 227.39,356.12 226.68,358.41 226.26,360.80 226.16,363.26 226.39,365.75 226.96,368.21 227.86,370.62 229.08,372.91 230.61,375.05 232.44,376.99 234.53,378.70 236.85,380.13 239.38,381.26 242.06,382.06 244.86,382.50 247.73,382.57 250.61,382.26 253.46,381.56 256.23,380.49 258.86,379.04 261.30,377.24 263.51,375.11 265.44,372.68 267.06,369.99 268.32,367.08 269.19,364.00 269.66,360.80" fill="none" stroke="currentColor" stroke-width="2" stroke-linejoin="round" stroke-linecap="round"/>
<polyline points="368.86,360.80 369.12,360.77 369.36,360.67 369.58,360.50 369.75,360.28 369.88,360.01 369.96,359.70 369.96,359.37 369.89,359.01 369.75,358.65 369.53,358.30 369.23,357.98 368.86,357.70 368.42,357.47 367.92,357.31 367.38,357.22 366.79,357.22 366.19,357.32 365.57,357.51 364.97,357.81 364.39,358.22 363.85,358.72 363.37,359.33 362.97,360.02 362.66,360.80 362.46,361.64 362.37,362.54 362.42,363.47 362.60,364.42 362.92,365.36 363.38,366.28 363.98,367.15 364.73,367.96 365.60,368.68 366.59,369.28 367.68,369.76 368.86,370.10 370.11,370.28 371.40,370.28 372.72,370.11 374.03,369.75 375.31,369.20 376.53,368.47 377.67,367.56 378.70,366.48 379.60,365.25 380.34,363.88 380.90,362.38 381.26,360.80 381.41,359.15 381.34,357.46 381.03,355.76 380.49,354.08 379.72,352.47 378.72,350.94 377.51,349.53 376.09,348.27 374.50,347.20 372.74,346.33 370.85,345.69 368.86,345.30 366.80,345.18 364.71,345.33 362.63,345.76 360.59,346.48 358.64,347.48 356.80,348.74 355.13,350.26 353.65,352.02 352.39,353.98 351.39,356.12 350.68,358.41 350.26,360.80 350.16,363.26 350.39,365.75 350.96,368.21 351.86,370.62 353.08,372.91 354.61,375.05 356.44,376.99 358.53,378.70 360.85,380.13 363.38,381.26 366.06,382.06 368.86,382.50 371.73,382.57 374.61,382.26 377.46,381.56 380.23,380.49 382.86,379.04 385.30,377.24 387.51,375.11 389.44,372.68 391.06,369.99 392.32,367.08 393.19,364.00 393.66,360.80" fill="none" stroke="currentColor" stroke-width="2" stroke-linejoin="round" stroke-linecap="round"/>
<polygon points="161.16,277.10 204.56,277.10 204.56,320.50 161.16,320.50" fill="#ffffff" class="mtph-pp" stroke="currentColor" stroke-width="2" stroke-linejoin="round"/>
<text class="mtph-lbl" x="196.86" y="298.80" text-anchor="middle" dominant-baseline="central" font-size="18" font-style="italic" fill="#ffffff" stroke="#ffffff" stroke-width="3.2" stroke-linejoin="round"><tspan dy="0.00">M</tspan></text><text x="196.86" y="298.80" text-anchor="middle" dominant-baseline="central" font-size="18" font-style="italic" fill="currentColor"><tspan dy="0.00">M</tspan></text>
<line x1="120.86" y1="50.80" x2="120.86" y2="224.40" stroke="currentColor" stroke-width="2" stroke-linecap="round"/>
<line x1="368.86" y1="236.80" x2="368.86" y2="112.80" stroke="currentColor" stroke-width="2" stroke-linecap="round"/>
</svg>
