<svg xmlns="http://www.w3.org/2000/svg" viewBox="0 0 404.2 415.9" width="404" height="416" font-family="Georgia, 'Times New Roman', serif">
<circle cx="185.96" cy="204.56" r="16.12" fill="#ffffff" class="mtph-pp" stroke="currentColor" stroke-width="2"/>
<text class="mtph-lbl" x="185.96" y="204.56" text-anchor="middle" dominant-baseline="central" font-size="21" font-style="italic" fill="#ffffff" stroke="#ffffff" stroke-width="3.2" stroke-linejoin="round"><tspan dy="0.00">+</tspan></text><text x="185.96" y="204.56" text-anchor="middle" dominant-baseline="central" font-size="21" font-style="italic" fill="currentColor"><tspan dy="0.00">+</tspan></text>
<text class="mtph-lbl" x="185.96" y="162.44" text-anchor="middle" dominant-baseline="central" font-size="18" font-style="italic" fill="#ffffff" stroke="#ffffff" stroke-width="3.2" stroke-linejoin="round"><tspan dy="0.00">q</tspan><tspan dy="5.40" font-size="13.0">1</tspan></text><text x="185.96" y="162.44" text-anchor="middle" dominant-baseline="central" font-size="18" font-style="italic" fill="currentColor"><tspan dy="0.00">q</tspan><tspan dy="5.40" font-size="13.0">1</tspan></text>
<circle cx="309.96" cy="204.56" r="16.12" fill="#ffffff" class="mtph-pp" stroke="currentColor" stroke-width="2"/>
<text class="mtph-lbl" x="309.96" y="204.56" text-anchor="middle" dominant-baseline="central" font-size="21" font-style="italic" fill="#ffffff" stroke="#ffffff" stroke-width="3.2" stroke-linejoin="round"><tspan dy="0.00">−</tspan></text><text x="309.96" y="204.56" text-anchor="middle" dominant-baseline="central" font-size="21" font-style="italic" fill="currentColor"><tspan dy="0.00">−</tspan></text>
<text class="mtph-lbl" x="309.96" y="162.44" text-anchor="middle" dominant-baseline="central" font-size="18" font-style="italic" fill="#ffffff" stroke="#ffffff" stroke-width="3.2" stroke-linejoin="round"><tspan dy="0.00">q</tspan><tspan dy="5.40" font-size="13.0">2</tspan></text><text x="309.96" y="162.44" text-anchor="middle" dominant-baseline="central" font-size="18" font-style="italic" fill="currentColor"><tspan dy="0.00">q</tspan><tspan dy="5.40" font-size="13.0">2</tspan></text>
<line x1="221.11" y1="368.86" x2="274.81" y2="337.86" stroke="currentColor" stroke-width="1.3" stroke-linecap="round"/><polygon points="274.81,337.86 268.25,346.50 264.05,339.22" fill="currentColor"/>
<circle cx="221.11" cy="368.86" r="14.88" fill="#ffffff" class="mtph-pp" stroke="currentColor" stroke-width="2"/>
<text class="mtph-lbl" x="221.11" y="368.86" text-anchor="middle" dominant-baseline="central" font-size="21" font-style="italic" fill="#ffffff" stroke="#ffffff" stroke-width="3.2" stroke-linejoin="round"><tspan dy="0.00">−</tspan></text><text x="221.11" y="368.86" text-anchor="middle" dominant-baseline="central" font-size="21" font-style="italic" fill="currentColor"><tspan dy="0.00">−</tspan></text>
<circle cx="274.81" cy="337.86" r="14.88" fill="#ffffff" class="mtph-pp" stroke="currentColor" stroke-width="2"/>
<text class="mtph-lbl" x="274.81" y="337.86" text-anchor="middle" dominant-baseline="central" font-size="21" font-style="italic" fill="#ffffff" stroke="#ffffff" stroke-width="3.2" stroke-linejoin="round"><tspan dy="0.00">+</tspan></text><text x="274.81" y="337.86" text-anchor="middle" dominant-baseline="central" font-size="21" font-style="italic" fill="currentColor"><tspan dy="0.00">+</tspan></text>
<text class="mtph-lbl" x="247.96" y="306.36" text-anchor="middle" dominant-baseline="central" font-size="18" font-style="italic" fill="#ffffff" stroke="#ffffff" stroke-width="3.2" stroke-linejoin="round"><tspan dy="0.00">p</tspan></text><text x="247.96" y="306.36" text-anchor="middle" dominant-baseline="central" font-size="18" font-style="italic" fill="currentColor"><tspan dy="0.00">p</tspan></text>
<path d="M 185.96 204.56 Q 247.96 142.56 309.96 204.56" fill="none" stroke="currentColor" stroke-width="2" stroke-linejoin="round" stroke-linecap="round"/><polygon points="309.96,204.56 299.92,200.46 305.86,194.52" fill="currentColor"/>
<path d="M 185.96 204.56 Q 247.96 266.56 309.96 204.56" fill="none" stroke="currentColor" stroke-width="2" stroke-linejoin="round" stroke-linecap="round"/><polygon points="309.96,204.56 305.86,214.60 299.92,208.66" fill="currentColor"/>
<line x1="51.63" y1="134.29" x2="33.51" y2="152.41" stroke="currentColor" stroke-width="1.3" stroke-linecap="round"/><polygon points="33.51,152.41 37.61,142.37 43.55,148.31" fill="currentColor"/>
<line x1="51.63" y1="92.96" x2="26.00" y2="92.96" stroke="currentColor" stroke-width="1.3" stroke-linecap="round"/><polygon points="26.00,92.96 36.00,88.76 36.00,97.16" fill="currentColor"/>
<line x1="51.63" y1="51.63" x2="33.51" y2="33.51" stroke="currentColor" stroke-width="1.3" stroke-linecap="round"/><polygon points="33.51,33.51 43.55,37.61 37.61,43.55" fill="currentColor"/>
<line x1="92.96" y1="134.29" x2="92.96" y2="159.92" stroke="currentColor" stroke-width="1.3" stroke-linecap="round"/><polygon points="92.96,159.92 88.76,149.92 97.16,149.92" fill="currentColor"/>
<line x1="92.96" y1="51.63" x2="92.96" y2="26.00" stroke="currentColor" stroke-width="1.3" stroke-linecap="round"/><polygon points="92.96,26.00 97.16,36.00 88.76,36.00" fill="currentColor"/>
<line x1="134.29" y1="134.29" x2="152.41" y2="152.41" stroke="currentColor" stroke-width="1.3" stroke-linecap="round"/><polygon points="152.41,152.41 142.37,148.31 148.31,142.37" fill="currentColor"/>
<line x1="134.29" y1="92.96" x2="159.92" y2="92.96" stroke="currentColor" stroke-width="1.3" stroke-linecap="round"/><polygon points="159.92,92.96 149.92,97.16 149.92,88.76" fill="currentColor"/>
<line x1="134.29" y1="51.63" x2="152.41" y2="33.51" stroke="currentColor" stroke-width="1.3" stroke-linecap="round"/><polygon points="152.41,33.51 148.31,43.55 142.37,37.61" fill="currentColor"/>
<circle cx="247.96" cy="204.56" r="99.20" fill="none" stroke="#888888" stroke-width="1.3" stroke-dasharray="7 5"/>
<circle cx="247.96" cy="204.56" r="130.20" fill="none" stroke="currentColor" stroke-width="1.3" stroke-dasharray="7 5"/>
<text class="mtph-lbl" x="247.96" y="64.36" text-anchor="middle" dominant-baseline="central" font-size="18" font-style="italic" fill="#ffffff" stroke="#ffffff" stroke-width="3.2" stroke-linejoin="round"><tspan dy="0.00">S</tspan></text><text x="247.96" y="64.36" text-anchor="middle" dominant-baseline="central" font-size="18" font-style="italic" fill="currentColor"><tspan dy="0.00">S</tspan></text>
</svg>
