<svg xmlns="http://www.w3.org/2000/svg" viewBox="0 0 560 380" width="560" height="380" fill="currentColor" font-family="Georgia, 'Times New Roman', serif">
<line x1="44.00" y1="181.00" x2="538.00" y2="181.00" stroke="currentColor" stroke-width="1.4"/>
<line x1="291.00" y1="18.00" x2="291.00" y2="344.00" stroke="currentColor" stroke-width="1.4"/>
<line x1="46.50" y1="178.00" x2="46.50" y2="184.00" stroke="currentColor" stroke-width="1.2"/>
<text x="46.50" y="194.00" text-anchor="middle" dominant-baseline="central" font-size="12"><tspan dy="0.00">-3</tspan></text>
<line x1="128.00" y1="178.00" x2="128.00" y2="184.00" stroke="currentColor" stroke-width="1.2"/>
<text x="128.00" y="194.00" text-anchor="middle" dominant-baseline="central" font-size="12"><tspan dy="0.00">-2</tspan></text>
<line x1="209.50" y1="178.00" x2="209.50" y2="184.00" stroke="currentColor" stroke-width="1.2"/>
<text x="209.50" y="194.00" text-anchor="middle" dominant-baseline="central" font-size="12"><tspan dy="0.00">-1</tspan></text>
<line x1="372.50" y1="178.00" x2="372.50" y2="184.00" stroke="currentColor" stroke-width="1.2"/>
<text x="372.50" y="194.00" text-anchor="middle" dominant-baseline="central" font-size="12"><tspan dy="0.00">1</tspan></text>
<line x1="454.00" y1="178.00" x2="454.00" y2="184.00" stroke="currentColor" stroke-width="1.2"/>
<text x="454.00" y="194.00" text-anchor="middle" dominant-baseline="central" font-size="12"><tspan dy="0.00">2</tspan></text>
<line x1="535.50" y1="178.00" x2="535.50" y2="184.00" stroke="currentColor" stroke-width="1.2"/>
<text x="535.50" y="194.00" text-anchor="middle" dominant-baseline="central" font-size="12"><tspan dy="0.00">3</tspan></text>
<line x1="288.00" y1="344.00" x2="294.00" y2="344.00" stroke="currentColor" stroke-width="1.2"/>
<text x="283.00" y="344.00" text-anchor="end" dominant-baseline="central" font-size="12"><tspan dy="0.00">-2</tspan></text>
<line x1="288.00" y1="303.25" x2="294.00" y2="303.25" stroke="currentColor" stroke-width="1.2"/>
<text x="283.00" y="303.25" text-anchor="end" dominant-baseline="central" font-size="12"><tspan dy="0.00">-1.5</tspan></text>
<line x1="288.00" y1="262.50" x2="294.00" y2="262.50" stroke="currentColor" stroke-width="1.2"/>
<text x="283.00" y="262.50" text-anchor="end" dominant-baseline="central" font-size="12"><tspan dy="0.00">-1</tspan></text>
<line x1="288.00" y1="221.75" x2="294.00" y2="221.75" stroke="currentColor" stroke-width="1.2"/>
<text x="283.00" y="221.75" text-anchor="end" dominant-baseline="central" font-size="12"><tspan dy="0.00">-0.5</tspan></text>
<line x1="288.00" y1="140.25" x2="294.00" y2="140.25" stroke="currentColor" stroke-width="1.2"/>
<text x="283.00" y="140.25" text-anchor="end" dominant-baseline="central" font-size="12"><tspan dy="0.00">0.5</tspan></text>
<line x1="288.00" y1="99.50" x2="294.00" y2="99.50" stroke="currentColor" stroke-width="1.2"/>
<text x="283.00" y="99.50" text-anchor="end" dominant-baseline="central" font-size="12"><tspan dy="0.00">1</tspan></text>
<line x1="288.00" y1="58.75" x2="294.00" y2="58.75" stroke="currentColor" stroke-width="1.2"/>
<text x="283.00" y="58.75" text-anchor="end" dominant-baseline="central" font-size="12"><tspan dy="0.00">1.5</tspan></text>
<line x1="288.00" y1="18.00" x2="294.00" y2="18.00" stroke="currentColor" stroke-width="1.2"/>
<text x="283.00" y="18.00" text-anchor="end" dominant-baseline="central" font-size="12"><tspan dy="0.00">2</tspan></text>
<line x1="44.00" y1="344.00" x2="37.78" y2="350.23" stroke="currentColor" stroke-width="1.2"/><polygon points="37.78,350.23 39.54,344.93 43.08,348.46" fill="currentColor"/>
<line x1="44.00" y1="311.40" x2="36.20" y2="317.91" stroke="currentColor" stroke-width="1.2"/><polygon points="36.20,317.91 38.44,312.78 41.64,316.62" fill="currentColor"/>
<line x1="44.00" y1="278.80" x2="34.25" y2="285.11" stroke="currentColor" stroke-width="1.2"/><polygon points="34.25,285.11 37.09,280.30 39.81,284.49" fill="currentColor"/>
<line x1="44.00" y1="246.20" x2="32.11" y2="251.47" stroke="currentColor" stroke-width="1.2"/><polygon points="32.11,251.47 35.67,247.16 37.70,251.73" fill="currentColor"/>
<line x1="44.00" y1="213.60" x2="30.30" y2="216.69" stroke="currentColor" stroke-width="1.2"/><polygon points="30.30,216.69 34.63,213.15 35.73,218.03" fill="currentColor"/>
<line x1="44.00" y1="181.00" x2="29.56" y2="181.00" stroke="currentColor" stroke-width="1.2"/><polygon points="29.56,181.00 34.56,178.50 34.56,183.50" fill="currentColor"/>
<line x1="44.00" y1="148.40" x2="30.30" y2="145.31" stroke="currentColor" stroke-width="1.2"/><polygon points="30.30,145.31 35.73,143.97 34.63,148.85" fill="currentColor"/>
<line x1="44.00" y1="115.80" x2="32.11" y2="110.53" stroke="currentColor" stroke-width="1.2"/><polygon points="32.11,110.53 37.70,110.27 35.67,114.84" fill="currentColor"/>
<line x1="44.00" y1="83.20" x2="34.25" y2="76.89" stroke="currentColor" stroke-width="1.2"/><polygon points="34.25,76.89 39.81,77.51 37.09,81.70" fill="currentColor"/>
<line x1="44.00" y1="50.60" x2="36.20" y2="44.09" stroke="currentColor" stroke-width="1.2"/><polygon points="36.20,44.09 41.64,45.38 38.44,49.22" fill="currentColor"/>
<line x1="44.00" y1="18.00" x2="37.78" y2="11.77" stroke="currentColor" stroke-width="1.2"/><polygon points="37.78,11.77 43.08,13.54 39.54,17.07" fill="currentColor"/>
<line x1="93.40" y1="344.00" x2="87.49" y2="352.62" stroke="currentColor" stroke-width="1.2"/><polygon points="87.49,352.62 88.26,347.08 92.38,349.91" fill="currentColor"/>
<line x1="93.40" y1="311.40" x2="85.64" y2="321.18" stroke="currentColor" stroke-width="1.2"/><polygon points="85.64,321.18 86.79,315.71 90.70,318.82" fill="currentColor"/>
<line x1="93.40" y1="278.80" x2="82.92" y2="289.41" stroke="currentColor" stroke-width="1.2"/><polygon points="82.92,289.41 84.65,284.09 88.21,287.61" fill="currentColor"/>
<line x1="93.40" y1="246.20" x2="79.14" y2="256.35" stroke="currentColor" stroke-width="1.2"/><polygon points="79.14,256.35 81.77,251.41 84.67,255.48" fill="currentColor"/>
<line x1="93.40" y1="213.60" x2="74.97" y2="220.37" stroke="currentColor" stroke-width="1.2"/><polygon points="74.97,220.37 78.80,216.30 80.52,221.00" fill="currentColor"/>
<line x1="93.40" y1="181.00" x2="72.91" y2="181.00" stroke="currentColor" stroke-width="1.2"/><polygon points="72.91,181.00 77.91,178.50 77.91,183.50" fill="currentColor"/>
<line x1="93.40" y1="148.40" x2="74.97" y2="141.63" stroke="currentColor" stroke-width="1.2"/><polygon points="74.97,141.63 80.52,141.00 78.80,145.70" fill="currentColor"/>
<line x1="93.40" y1="115.80" x2="79.14" y2="105.65" stroke="currentColor" stroke-width="1.2"/><polygon points="79.14,105.65 84.67,106.52 81.77,110.59" fill="currentColor"/>
<line x1="93.40" y1="83.20" x2="82.92" y2="72.59" stroke="currentColor" stroke-width="1.2"/><polygon points="82.92,72.59 88.21,74.39 84.65,77.91" fill="currentColor"/>
<line x1="93.40" y1="50.60" x2="85.64" y2="40.82" stroke="currentColor" stroke-width="1.2"/><polygon points="85.64,40.82 90.70,43.18 86.79,46.29" fill="currentColor"/>
<line x1="93.40" y1="18.00" x2="87.49" y2="9.38" stroke="currentColor" stroke-width="1.2"/><polygon points="87.49,9.38 92.38,12.09 88.26,14.92" fill="currentColor"/>
<line x1="142.80" y1="344.00" x2="138.47" y2="354.86" stroke="currentColor" stroke-width="1.2"/><polygon points="138.47,354.86 138.00,349.29 142.64,351.14" fill="currentColor"/>
<line x1="142.80" y1="311.40" x2="137.29" y2="324.62" stroke="currentColor" stroke-width="1.2"/><polygon points="137.29,324.62 136.90,319.05 141.52,320.97" fill="currentColor"/>
<line x1="142.80" y1="278.80" x2="135.36" y2="294.93" stroke="currentColor" stroke-width="1.2"/><polygon points="135.36,294.93 135.18,289.34 139.72,291.44" fill="currentColor"/>
<line x1="142.80" y1="246.20" x2="131.66" y2="265.01" stroke="currentColor" stroke-width="1.2"/><polygon points="131.66,265.01 132.06,259.44 136.36,261.98" fill="currentColor"/>
<line x1="142.80" y1="213.60" x2="123.94" y2="230.98" stroke="currentColor" stroke-width="1.2"/><polygon points="123.94,230.98 125.92,225.75 129.31,229.43" fill="currentColor"/>
<line x1="142.80" y1="181.00" x2="115.53" y2="181.00" stroke="currentColor" stroke-width="1.2"/><polygon points="115.53,181.00 120.53,178.50 120.53,183.50" fill="currentColor"/>
<line x1="142.80" y1="148.40" x2="123.94" y2="131.02" stroke="currentColor" stroke-width="1.2"/><polygon points="123.94,131.02 129.31,132.57 125.92,136.25" fill="currentColor"/>
<line x1="142.80" y1="115.80" x2="131.66" y2="96.99" stroke="currentColor" stroke-width="1.2"/><polygon points="131.66,96.99 136.36,100.02 132.06,102.56" fill="currentColor"/>
<line x1="142.80" y1="83.20" x2="135.36" y2="67.07" stroke="currentColor" stroke-width="1.2"/><polygon points="135.36,67.07 139.72,70.56 135.18,72.66" fill="currentColor"/>
<line x1="142.80" y1="50.60" x2="137.29" y2="37.38" stroke="currentColor" stroke-width="1.2"/><polygon points="137.29,37.38 141.52,41.03 136.90,42.95" fill="currentColor"/>
<line x1="142.80" y1="18.00" x2="138.47" y2="7.14" stroke="currentColor" stroke-width="1.2"/><polygon points="138.47,7.14 142.64,10.86 138.00,12.71" fill="currentColor"/>
<line x1="192.20" y1="344.00" x2="190.23" y2="355.88" stroke="currentColor" stroke-width="1.2"/><polygon points="190.23,355.88 188.58,350.54 193.51,351.36" fill="currentColor"/>
<line x1="192.20" y1="311.40" x2="190.67" y2="325.99" stroke="currentColor" stroke-width="1.2"/><polygon points="190.67,325.99 188.71,320.76 193.68,321.28" fill="currentColor"/>
<line x1="192.20" y1="278.80" x2="192.07" y2="297.00" stroke="currentColor" stroke-width="1.2"/><polygon points="192.07,297.00 189.60,291.98 194.60,292.02" fill="currentColor"/>
<line x1="192.20" y1="246.20" x2="195.38" y2="268.64" stroke="currentColor" stroke-width="1.2"/><polygon points="195.38,268.64 192.21,264.04 197.16,263.34" fill="currentColor"/>
<line x1="192.20" y1="213.60" x2="203.01" y2="238.34" stroke="currentColor" stroke-width="1.2"/><polygon points="203.01,238.34 198.71,234.76 203.30,232.76" fill="currentColor"/>
<line x1="192.20" y1="181.00" x2="221.09" y2="181.00" stroke="currentColor" stroke-width="1.2"/><polygon points="221.09,181.00 216.09,183.50 216.09,178.50" fill="currentColor"/>
<line x1="192.20" y1="148.40" x2="203.01" y2="123.66" stroke="currentColor" stroke-width="1.2"/><polygon points="203.01,123.66 203.30,129.24 198.71,127.24" fill="currentColor"/>
<line x1="192.20" y1="115.80" x2="195.38" y2="93.36" stroke="currentColor" stroke-width="1.2"/><polygon points="195.38,93.36 197.16,98.66 192.21,97.96" fill="currentColor"/>
<line x1="192.20" y1="83.20" x2="192.07" y2="65.00" stroke="currentColor" stroke-width="1.2"/><polygon points="192.07,65.00 194.60,69.98 189.60,70.02" fill="currentColor"/>
<line x1="192.20" y1="50.60" x2="190.67" y2="36.01" stroke="currentColor" stroke-width="1.2"/><polygon points="190.67,36.01 193.68,40.72 188.71,41.24" fill="currentColor"/>
<line x1="192.20" y1="18.00" x2="190.23" y2="6.12" stroke="currentColor" stroke-width="1.2"/><polygon points="190.23,6.12 193.51,10.64 188.58,11.46" fill="currentColor"/>
<line x1="241.60" y1="344.00" x2="241.26" y2="355.61" stroke="currentColor" stroke-width="1.2"/><polygon points="241.26,355.61 238.90,350.54 243.90,350.69" fill="currentColor"/>
<line x1="241.60" y1="311.40" x2="242.34" y2="324.89" stroke="currentColor" stroke-width="1.2"/><polygon points="242.34,324.89 239.57,320.03 244.56,319.76" fill="currentColor"/>
<line x1="241.60" y1="278.80" x2="244.98" y2="294.15" stroke="currentColor" stroke-width="1.2"/><polygon points="244.98,294.15 241.47,289.81 246.35,288.73" fill="currentColor"/>
<line x1="241.60" y1="246.20" x2="250.50" y2="262.19" stroke="currentColor" stroke-width="1.2"/><polygon points="250.50,262.19 245.89,259.04 250.25,256.60" fill="currentColor"/>
<line x1="241.60" y1="213.60" x2="258.80" y2="225.43" stroke="currentColor" stroke-width="1.2"/><polygon points="258.80,225.43 253.26,224.66 256.10,220.54" fill="currentColor"/>
<line x1="241.60" y1="181.00" x2="263.67" y2="181.00" stroke="currentColor" stroke-width="1.2"/><polygon points="263.67,181.00 258.67,183.50 258.67,178.50" fill="currentColor"/>
<line x1="241.60" y1="148.40" x2="258.80" y2="136.57" stroke="currentColor" stroke-width="1.2"/><polygon points="258.80,136.57 256.10,141.46 253.26,137.34" fill="currentColor"/>
<line x1="241.60" y1="115.80" x2="250.50" y2="99.81" stroke="currentColor" stroke-width="1.2"/><polygon points="250.50,99.81 250.25,105.40 245.89,102.96" fill="currentColor"/>
<line x1="241.60" y1="83.20" x2="244.98" y2="67.85" stroke="currentColor" stroke-width="1.2"/><polygon points="244.98,67.85 246.35,73.27 241.47,72.19" fill="currentColor"/>
<line x1="241.60" y1="50.60" x2="242.34" y2="37.11" stroke="currentColor" stroke-width="1.2"/><polygon points="242.34,37.11 244.56,42.24 239.57,41.97" fill="currentColor"/>
<line x1="241.60" y1="18.00" x2="241.26" y2="6.39" stroke="currentColor" stroke-width="1.2"/><polygon points="241.26,6.39 243.90,11.31 238.90,11.46" fill="currentColor"/>
<line x1="291.00" y1="344.00" x2="291.00" y2="355.27" stroke="currentColor" stroke-width="1.2"/><polygon points="291.00,355.27 288.50,350.27 293.50,350.27" fill="currentColor"/>
<line x1="291.00" y1="311.40" x2="291.00" y2="324.03" stroke="currentColor" stroke-width="1.2"/><polygon points="291.00,324.03 288.50,319.03 293.50,319.03" fill="currentColor"/>
<line x1="291.00" y1="278.80" x2="291.00" y2="292.44" stroke="currentColor" stroke-width="1.2"/><polygon points="291.00,292.44 288.50,287.44 293.50,287.44" fill="currentColor"/>
<line x1="291.00" y1="246.20" x2="291.00" y2="259.82" stroke="currentColor" stroke-width="1.2"/><polygon points="291.00,259.82 288.50,254.82 293.50,254.82" fill="currentColor"/>
<line x1="291.00" y1="213.60" x2="291.00" y2="224.46" stroke="currentColor" stroke-width="1.2"/><polygon points="291.00,224.46 288.50,219.46 293.50,219.46" fill="currentColor"/>
<line x1="291.00" y1="148.40" x2="291.00" y2="137.54" stroke="currentColor" stroke-width="1.2"/><polygon points="291.00,137.54 293.50,142.54 288.50,142.54" fill="currentColor"/>
<line x1="291.00" y1="115.80" x2="291.00" y2="102.18" stroke="currentColor" stroke-width="1.2"/><polygon points="291.00,102.18 293.50,107.18 288.50,107.18" fill="currentColor"/>
<line x1="291.00" y1="83.20" x2="291.00" y2="69.56" stroke="currentColor" stroke-width="1.2"/><polygon points="291.00,69.56 293.50,74.56 288.50,74.56" fill="currentColor"/>
<line x1="291.00" y1="50.60" x2="291.00" y2="37.97" stroke="currentColor" stroke-width="1.2"/><polygon points="291.00,37.97 293.50,42.97 288.50,42.97" fill="currentColor"/>
<line x1="291.00" y1="18.00" x2="291.00" y2="6.73" stroke="currentColor" stroke-width="1.2"/><polygon points="291.00,6.73 293.50,11.73 288.50,11.73" fill="currentColor"/>
<line x1="340.40" y1="344.00" x2="340.74" y2="355.61" stroke="currentColor" stroke-width="1.2"/><polygon points="340.74,355.61 338.10,350.69 343.10,350.54" fill="currentColor"/>
<line x1="340.40" y1="311.40" x2="339.66" y2="324.89" stroke="currentColor" stroke-width="1.2"/><polygon points="339.66,324.89 337.44,319.76 342.43,320.03" fill="currentColor"/>
<line x1="340.40" y1="278.80" x2="337.02" y2="294.15" stroke="currentColor" stroke-width="1.2"/><polygon points="337.02,294.15 335.65,288.73 340.53,289.81" fill="currentColor"/>
<line x1="340.40" y1="246.20" x2="331.50" y2="262.19" stroke="currentColor" stroke-width="1.2"/><polygon points="331.50,262.19 331.75,256.60 336.11,259.04" fill="currentColor"/>
<line x1="340.40" y1="213.60" x2="323.20" y2="225.43" stroke="currentColor" stroke-width="1.2"/><polygon points="323.20,225.43 325.90,220.54 328.74,224.66" fill="currentColor"/>
<line x1="340.40" y1="181.00" x2="318.33" y2="181.00" stroke="currentColor" stroke-width="1.2"/><polygon points="318.33,181.00 323.33,178.50 323.33,183.50" fill="currentColor"/>
<line x1="340.40" y1="148.40" x2="323.20" y2="136.57" stroke="currentColor" stroke-width="1.2"/><polygon points="323.20,136.57 328.74,137.34 325.90,141.46" fill="currentColor"/>
<line x1="340.40" y1="115.80" x2="331.50" y2="99.81" stroke="currentColor" stroke-width="1.2"/><polygon points="331.50,99.81 336.11,102.96 331.75,105.40" fill="currentColor"/>
<line x1="340.40" y1="83.20" x2="337.02" y2="67.85" stroke="currentColor" stroke-width="1.2"/><polygon points="337.02,67.85 340.53,72.19 335.65,73.27" fill="currentColor"/>
<line x1="340.40" y1="50.60" x2="339.66" y2="37.11" stroke="currentColor" stroke-width="1.2"/><polygon points="339.66,37.11 342.43,41.97 337.44,42.24" fill="currentColor"/>
<line x1="340.40" y1="18.00" x2="340.74" y2="6.39" stroke="currentColor" stroke-width="1.2"/><polygon points="340.74,6.39 343.10,11.46 338.10,11.31" fill="currentColor"/>
<line x1="389.80" y1="344.00" x2="391.77" y2="355.88" stroke="currentColor" stroke-width="1.2"/><polygon points="391.77,355.88 388.49,351.36 393.42,350.54" fill="currentColor"/>
<line x1="389.80" y1="311.40" x2="391.33" y2="325.99" stroke="currentColor" stroke-width="1.2"/><polygon points="391.33,325.99 388.32,321.28 393.29,320.76" fill="currentColor"/>
<line x1="389.80" y1="278.80" x2="389.93" y2="297.00" stroke="currentColor" stroke-width="1.2"/><polygon points="389.93,297.00 387.40,292.02 392.40,291.98" fill="currentColor"/>
<line x1="389.80" y1="246.20" x2="386.62" y2="268.64" stroke="currentColor" stroke-width="1.2"/><polygon points="386.62,268.64 384.84,263.34 389.79,264.04" fill="currentColor"/>
<line x1="389.80" y1="213.60" x2="378.99" y2="238.34" stroke="currentColor" stroke-width="1.2"/><polygon points="378.99,238.34 378.70,232.76 383.29,234.76" fill="currentColor"/>
<line x1="389.80" y1="181.00" x2="360.91" y2="181.00" stroke="currentColor" stroke-width="1.2"/><polygon points="360.91,181.00 365.91,178.50 365.91,183.50" fill="currentColor"/>
<line x1="389.80" y1="148.40" x2="378.99" y2="123.66" stroke="currentColor" stroke-width="1.2"/><polygon points="378.99,123.66 383.29,127.24 378.70,129.24" fill="currentColor"/>
<line x1="389.80" y1="115.80" x2="386.62" y2="93.36" stroke="currentColor" stroke-width="1.2"/><polygon points="386.62,93.36 389.79,97.96 384.84,98.66" fill="currentColor"/>
<line x1="389.80" y1="83.20" x2="389.93" y2="65.00" stroke="currentColor" stroke-width="1.2"/><polygon points="389.93,65.00 392.40,70.02 387.40,69.98" fill="currentColor"/>
<line x1="389.80" y1="50.60" x2="391.33" y2="36.01" stroke="currentColor" stroke-width="1.2"/><polygon points="391.33,36.01 393.29,41.24 388.32,40.72" fill="currentColor"/>
<line x1="389.80" y1="18.00" x2="391.77" y2="6.12" stroke="currentColor" stroke-width="1.2"/><polygon points="391.77,6.12 393.42,11.46 388.49,10.64" fill="currentColor"/>
<line x1="439.20" y1="344.00" x2="443.53" y2="354.86" stroke="currentColor" stroke-width="1.2"/><polygon points="443.53,354.86 439.36,351.14 444.00,349.29" fill="currentColor"/>
<line x1="439.20" y1="311.40" x2="444.71" y2="324.62" stroke="currentColor" stroke-width="1.2"/><polygon points="444.71,324.62 440.48,320.97 445.10,319.05" fill="currentColor"/>
<line x1="439.20" y1="278.80" x2="446.64" y2="294.93" stroke="currentColor" stroke-width="1.2"/><polygon points="446.64,294.93 442.28,291.44 446.82,289.34" fill="currentColor"/>
<line x1="439.20" y1="246.20" x2="450.34" y2="265.01" stroke="currentColor" stroke-width="1.2"/><polygon points="450.34,265.01 445.64,261.98 449.94,259.44" fill="currentColor"/>
<line x1="439.20" y1="213.60" x2="458.06" y2="230.98" stroke="currentColor" stroke-width="1.2"/><polygon points="458.06,230.98 452.69,229.43 456.08,225.75" fill="currentColor"/>
<line x1="439.20" y1="181.00" x2="466.47" y2="181.00" stroke="currentColor" stroke-width="1.2"/><polygon points="466.47,181.00 461.47,183.50 461.47,178.50" fill="currentColor"/>
<line x1="439.20" y1="148.40" x2="458.06" y2="131.02" stroke="currentColor" stroke-width="1.2"/><polygon points="458.06,131.02 456.08,136.25 452.69,132.57" fill="currentColor"/>
<line x1="439.20" y1="115.80" x2="450.34" y2="96.99" stroke="currentColor" stroke-width="1.2"/><polygon points="450.34,96.99 449.94,102.56 445.64,100.02" fill="currentColor"/>
<line x1="439.20" y1="83.20" x2="446.64" y2="67.07" stroke="currentColor" stroke-width="1.2"/><polygon points="446.64,67.07 446.82,72.66 442.28,70.56" fill="currentColor"/>
<line x1="439.20" y1="50.60" x2="444.71" y2="37.38" stroke="currentColor" stroke-width="1.2"/><polygon points="444.71,37.38 445.10,42.95 440.48,41.03" fill="currentColor"/>
<line x1="439.20" y1="18.00" x2="443.53" y2="7.14" stroke="currentColor" stroke-width="1.2"/><polygon points="443.53,7.14 444.00,12.71 439.36,10.86" fill="currentColor"/>
<line x1="488.60" y1="344.00" x2="494.51" y2="352.62" stroke="currentColor" stroke-width="1.2"/><polygon points="494.51,352.62 489.62,349.91 493.74,347.08" fill="currentColor"/>
<line x1="488.60" y1="311.40" x2="496.36" y2="321.18" stroke="currentColor" stroke-width="1.2"/><polygon points="496.36,321.18 491.30,318.82 495.21,315.71" fill="currentColor"/>
<line x1="488.60" y1="278.80" x2="499.08" y2="289.41" stroke="currentColor" stroke-width="1.2"/><polygon points="499.08,289.41 493.79,287.61 497.35,284.09" fill="currentColor"/>
<line x1="488.60" y1="246.20" x2="502.86" y2="256.35" stroke="currentColor" stroke-width="1.2"/><polygon points="502.86,256.35 497.33,255.48 500.23,251.41" fill="currentColor"/>
<line x1="488.60" y1="213.60" x2="507.03" y2="220.37" stroke="currentColor" stroke-width="1.2"/><polygon points="507.03,220.37 501.48,221.00 503.20,216.30" fill="currentColor"/>
<line x1="488.60" y1="181.00" x2="509.09" y2="181.00" stroke="currentColor" stroke-width="1.2"/><polygon points="509.09,181.00 504.09,183.50 504.09,178.50" fill="currentColor"/>
<line x1="488.60" y1="148.40" x2="507.03" y2="141.63" stroke="currentColor" stroke-width="1.2"/><polygon points="507.03,141.63 503.20,145.70 501.48,141.00" fill="currentColor"/>
<line x1="488.60" y1="115.80" x2="502.86" y2="105.65" stroke="currentColor" stroke-width="1.2"/><polygon points="502.86,105.65 500.23,110.59 497.33,106.52" fill="currentColor"/>
<line x1="488.60" y1="83.20" x2="499.08" y2="72.59" stroke="currentColor" stroke-width="1.2"/><polygon points="499.08,72.59 497.35,77.91 493.79,74.39" fill="currentColor"/>
<line x1="488.60" y1="50.60" x2="496.36" y2="40.82" stroke="currentColor" stroke-width="1.2"/><polygon points="496.36,40.82 495.21,46.29 491.30,43.18" fill="currentColor"/>
<line x1="488.60" y1="18.00" x2="494.51" y2="9.38" stroke="currentColor" stroke-width="1.2"/><polygon points="494.51,9.38 493.74,14.92 489.62,12.09" fill="currentColor"/>
<line x1="538.00" y1="344.00" x2="544.22" y2="350.23" stroke="currentColor" stroke-width="1.2"/><polygon points="544.22,350.23 538.92,348.46 542.46,344.93" fill="currentColor"/>
<line x1="538.00" y1="311.40" x2="545.80" y2="317.91" stroke="currentColor" stroke-width="1.2"/><polygon points="545.80,317.91 540.36,316.62 543.56,312.78" fill="currentColor"/>
<line x1="538.00" y1="278.80" x2="547.75" y2="285.11" stroke="currentColor" stroke-width="1.2"/><polygon points="547.75,285.11 542.19,284.49 544.91,280.30" fill="currentColor"/>
<line x1="538.00" y1="246.20" x2="549.89" y2="251.47" stroke="currentColor" stroke-width="1.2"/><polygon points="549.89,251.47 544.30,251.73 546.33,247.16" fill="currentColor"/>
<line x1="538.00" y1="213.60" x2="551.70" y2="216.69" stroke="currentColor" stroke-width="1.2"/><polygon points="551.70,216.69 546.27,218.03 547.37,213.15" fill="currentColor"/>
<line x1="538.00" y1="181.00" x2="552.44" y2="181.00" stroke="currentColor" stroke-width="1.2"/><polygon points="552.44,181.00 547.44,183.50 547.44,178.50" fill="currentColor"/>
<line x1="538.00" y1="148.40" x2="551.70" y2="145.31" stroke="currentColor" stroke-width="1.2"/><polygon points="551.70,145.31 547.37,148.85 546.27,143.97" fill="currentColor"/>
<line x1="538.00" y1="115.80" x2="549.89" y2="110.53" stroke="currentColor" stroke-width="1.2"/><polygon points="549.89,110.53 546.33,114.84 544.30,110.27" fill="currentColor"/>
<line x1="538.00" y1="83.20" x2="547.75" y2="76.89" stroke="currentColor" stroke-width="1.2"/><polygon points="547.75,76.89 544.91,81.70 542.19,77.51" fill="currentColor"/>
<line x1="538.00" y1="50.60" x2="545.80" y2="44.09" stroke="currentColor" stroke-width="1.2"/><polygon points="545.80,44.09 543.56,49.22 540.36,45.38" fill="currentColor"/>
<line x1="538.00" y1="18.00" x2="544.22" y2="11.77" stroke="currentColor" stroke-width="1.2"/><polygon points="544.22,11.77 542.46,17.07 538.92,13.54" fill="currentColor"/>
<text x="538.00" y="171.00" text-anchor="end" dominant-baseline="central" font-size="15" font-style="italic"><tspan dy="0.00">x</tspan></text>
<text x="303.00" y="20.00" text-anchor="start" dominant-baseline="central" font-size="15" font-style="italic"><tspan dy="0.00">y</tspan></text>
</svg>
