<svg xmlns="http://www.w3.org/2000/svg" viewBox="0 0 560 380" width="560" height="380" fill="currentColor" font-family="Georgia, 'Times New Roman', serif">
<line x1="44.00" y1="181.00" x2="538.00" y2="181.00" stroke="currentColor" stroke-width="1.4"/>
<line x1="291.00" y1="18.00" x2="291.00" y2="344.00" stroke="currentColor" stroke-width="1.4"/>
<line x1="68.73" y1="178.00" x2="68.73" y2="184.00" stroke="currentColor" stroke-width="1.2"/>
<text x="68.73" y="194.00" text-anchor="middle" dominant-baseline="central" font-size="12"><tspan dy="0.00">-3</tspan></text>
<line x1="142.82" y1="178.00" x2="142.82" y2="184.00" stroke="currentColor" stroke-width="1.2"/>
<text x="142.82" y="194.00" text-anchor="middle" dominant-baseline="central" font-size="12"><tspan dy="0.00">-2</tspan></text>
<line x1="216.91" y1="178.00" x2="216.91" y2="184.00" stroke="currentColor" stroke-width="1.2"/>
<text x="216.91" y="194.00" text-anchor="middle" dominant-baseline="central" font-size="12"><tspan dy="0.00">-1</tspan></text>
<line x1="365.09" y1="178.00" x2="365.09" y2="184.00" stroke="currentColor" stroke-width="1.2"/>
<text x="365.09" y="194.00" text-anchor="middle" dominant-baseline="central" font-size="12"><tspan dy="0.00">1</tspan></text>
<line x1="439.18" y1="178.00" x2="439.18" y2="184.00" stroke="currentColor" stroke-width="1.2"/>
<text x="439.18" y="194.00" text-anchor="middle" dominant-baseline="central" font-size="12"><tspan dy="0.00">2</tspan></text>
<line x1="513.27" y1="178.00" x2="513.27" y2="184.00" stroke="currentColor" stroke-width="1.2"/>
<text x="513.27" y="194.00" text-anchor="middle" dominant-baseline="central" font-size="12"><tspan dy="0.00">3</tspan></text>
<line x1="288.00" y1="329.18" x2="294.00" y2="329.18" stroke="currentColor" stroke-width="1.2"/>
<text x="283.00" y="329.18" text-anchor="end" dominant-baseline="central" font-size="12"><tspan dy="0.00">-2</tspan></text>
<line x1="288.00" y1="255.09" x2="294.00" y2="255.09" stroke="currentColor" stroke-width="1.2"/>
<text x="283.00" y="255.09" text-anchor="end" dominant-baseline="central" font-size="12"><tspan dy="0.00">-1</tspan></text>
<line x1="288.00" y1="106.91" x2="294.00" y2="106.91" stroke="currentColor" stroke-width="1.2"/>
<text x="283.00" y="106.91" text-anchor="end" dominant-baseline="central" font-size="12"><tspan dy="0.00">1</tspan></text>
<line x1="288.00" y1="32.82" x2="294.00" y2="32.82" stroke="currentColor" stroke-width="1.2"/>
<text x="283.00" y="32.82" text-anchor="end" dominant-baseline="central" font-size="12"><tspan dy="0.00">2</tspan></text>
<line x1="109.87" y1="211.21" x2="108.71" y2="208.17" stroke="currentColor" stroke-width="2" stroke-linecap="round"/>
<line x1="108.71" y1="208.17" x2="107.05" y2="202.73" stroke="currentColor" stroke-width="2" stroke-linecap="round"/>
<line x1="107.05" y1="202.73" x2="105.81" y2="197.30" stroke="currentColor" stroke-width="2" stroke-linecap="round"/>
<line x1="105.81" y1="197.30" x2="104.96" y2="191.87" stroke="currentColor" stroke-width="2" stroke-linecap="round"/>
<line x1="104.96" y1="191.87" x2="104.46" y2="186.43" stroke="currentColor" stroke-width="2" stroke-linecap="round"/>
<line x1="104.46" y1="186.43" x2="104.29" y2="181.00" stroke="currentColor" stroke-width="2" stroke-linecap="round"/>
<line x1="104.29" y1="181.00" x2="104.46" y2="175.57" stroke="currentColor" stroke-width="2" stroke-linecap="round"/>
<line x1="104.46" y1="175.57" x2="104.96" y2="170.13" stroke="currentColor" stroke-width="2" stroke-linecap="round"/>
<line x1="104.96" y1="170.13" x2="105.81" y2="164.70" stroke="currentColor" stroke-width="2" stroke-linecap="round"/>
<line x1="105.81" y1="164.70" x2="107.05" y2="159.27" stroke="currentColor" stroke-width="2" stroke-linecap="round"/>
<line x1="107.05" y1="159.27" x2="108.71" y2="153.83" stroke="currentColor" stroke-width="2" stroke-linecap="round"/>
<line x1="108.71" y1="153.83" x2="109.87" y2="150.79" stroke="currentColor" stroke-width="2" stroke-linecap="round"/>
<line x1="118.10" y1="227.99" x2="115.88" y2="224.47" stroke="currentColor" stroke-width="2" stroke-linecap="round"/>
<line x1="115.88" y1="224.47" x2="113.00" y2="219.03" stroke="currentColor" stroke-width="2" stroke-linecap="round"/>
<line x1="113.00" y1="219.03" x2="110.69" y2="213.60" stroke="currentColor" stroke-width="2" stroke-linecap="round"/>
<line x1="110.69" y1="213.60" x2="109.87" y2="211.21" stroke="currentColor" stroke-width="2" stroke-linecap="round"/>
<line x1="110.69" y1="148.40" x2="109.87" y2="150.79" stroke="currentColor" stroke-width="2" stroke-linecap="round"/>
<line x1="110.69" y1="148.40" x2="113.00" y2="142.97" stroke="currentColor" stroke-width="2" stroke-linecap="round"/>
<line x1="113.00" y1="142.97" x2="115.88" y2="137.53" stroke="currentColor" stroke-width="2" stroke-linecap="round"/>
<line x1="115.88" y1="137.53" x2="118.10" y2="134.01" stroke="currentColor" stroke-width="2" stroke-linecap="round"/>
<line x1="126.33" y1="239.09" x2="123.17" y2="235.33" stroke="currentColor" stroke-width="2" stroke-linecap="round"/>
<line x1="123.17" y1="235.33" x2="119.28" y2="229.90" stroke="currentColor" stroke-width="2" stroke-linecap="round"/>
<line x1="119.28" y1="229.90" x2="118.10" y2="227.99" stroke="currentColor" stroke-width="2" stroke-linecap="round"/>
<line x1="119.28" y1="132.10" x2="118.10" y2="134.01" stroke="currentColor" stroke-width="2" stroke-linecap="round"/>
<line x1="119.28" y1="132.10" x2="123.17" y2="126.67" stroke="currentColor" stroke-width="2" stroke-linecap="round"/>
<line x1="123.17" y1="126.67" x2="126.33" y2="122.91" stroke="currentColor" stroke-width="2" stroke-linecap="round"/>
<line x1="134.57" y1="247.42" x2="133.23" y2="246.20" stroke="currentColor" stroke-width="2" stroke-linecap="round"/>
<line x1="133.23" y1="246.20" x2="127.81" y2="240.77" stroke="currentColor" stroke-width="2" stroke-linecap="round"/>
<line x1="127.81" y1="240.77" x2="126.33" y2="239.09" stroke="currentColor" stroke-width="2" stroke-linecap="round"/>
<line x1="127.81" y1="121.23" x2="126.33" y2="122.91" stroke="currentColor" stroke-width="2" stroke-linecap="round"/>
<line x1="127.81" y1="121.23" x2="133.23" y2="115.80" stroke="currentColor" stroke-width="2" stroke-linecap="round"/>
<line x1="133.23" y1="115.80" x2="134.57" y2="114.58" stroke="currentColor" stroke-width="2" stroke-linecap="round"/>
<line x1="142.80" y1="253.97" x2="139.70" y2="251.63" stroke="currentColor" stroke-width="2" stroke-linecap="round"/>
<line x1="139.70" y1="251.63" x2="134.57" y2="247.42" stroke="currentColor" stroke-width="2" stroke-linecap="round"/>
<line x1="139.70" y1="110.37" x2="134.57" y2="114.58" stroke="currentColor" stroke-width="2" stroke-linecap="round"/>
<line x1="139.70" y1="110.37" x2="142.80" y2="108.03" stroke="currentColor" stroke-width="2" stroke-linecap="round"/>
<line x1="151.03" y1="259.17" x2="147.62" y2="257.07" stroke="currentColor" stroke-width="2" stroke-linecap="round"/>
<line x1="147.62" y1="257.07" x2="142.80" y2="253.97" stroke="currentColor" stroke-width="2" stroke-linecap="round"/>
<line x1="147.62" y1="104.93" x2="142.80" y2="108.03" stroke="currentColor" stroke-width="2" stroke-linecap="round"/>
<line x1="147.62" y1="104.93" x2="151.03" y2="102.83" stroke="currentColor" stroke-width="2" stroke-linecap="round"/>
<line x1="159.27" y1="263.26" x2="157.73" y2="262.50" stroke="currentColor" stroke-width="2" stroke-linecap="round"/>
<line x1="157.73" y1="262.50" x2="151.03" y2="259.17" stroke="currentColor" stroke-width="2" stroke-linecap="round"/>
<line x1="157.73" y1="99.50" x2="151.03" y2="102.83" stroke="currentColor" stroke-width="2" stroke-linecap="round"/>
<line x1="157.73" y1="99.50" x2="159.27" y2="98.74" stroke="currentColor" stroke-width="2" stroke-linecap="round"/>
<line x1="167.50" y1="266.50" x2="159.27" y2="263.26" stroke="currentColor" stroke-width="2" stroke-linecap="round"/>
<line x1="167.50" y1="95.50" x2="159.27" y2="98.74" stroke="currentColor" stroke-width="2" stroke-linecap="round"/>
<line x1="175.73" y1="268.91" x2="172.50" y2="267.93" stroke="currentColor" stroke-width="2" stroke-linecap="round"/>
<line x1="172.50" y1="267.93" x2="167.50" y2="266.50" stroke="currentColor" stroke-width="2" stroke-linecap="round"/>
<line x1="172.50" y1="94.07" x2="167.50" y2="95.50" stroke="currentColor" stroke-width="2" stroke-linecap="round"/>
<line x1="172.50" y1="94.07" x2="175.73" y2="93.09" stroke="currentColor" stroke-width="2" stroke-linecap="round"/>
<line x1="183.97" y1="270.66" x2="175.73" y2="268.91" stroke="currentColor" stroke-width="2" stroke-linecap="round"/>
<line x1="183.97" y1="91.34" x2="175.73" y2="93.09" stroke="currentColor" stroke-width="2" stroke-linecap="round"/>
<line x1="192.20" y1="271.72" x2="183.97" y2="270.66" stroke="currentColor" stroke-width="2" stroke-linecap="round"/>
<line x1="192.20" y1="90.28" x2="183.97" y2="91.34" stroke="currentColor" stroke-width="2" stroke-linecap="round"/>
<line x1="200.43" y1="272.17" x2="192.20" y2="271.72" stroke="currentColor" stroke-width="2" stroke-linecap="round"/>
<line x1="200.43" y1="89.83" x2="192.20" y2="90.28" stroke="currentColor" stroke-width="2" stroke-linecap="round"/>
<line x1="208.67" y1="272.08" x2="200.43" y2="272.17" stroke="currentColor" stroke-width="2" stroke-linecap="round"/>
<line x1="208.67" y1="89.92" x2="200.43" y2="89.83" stroke="currentColor" stroke-width="2" stroke-linecap="round"/>
<line x1="216.90" y1="271.48" x2="208.67" y2="272.08" stroke="currentColor" stroke-width="2" stroke-linecap="round"/>
<line x1="216.90" y1="90.52" x2="208.67" y2="89.92" stroke="currentColor" stroke-width="2" stroke-linecap="round"/>
<line x1="225.13" y1="270.41" x2="216.90" y2="271.48" stroke="currentColor" stroke-width="2" stroke-linecap="round"/>
<line x1="225.13" y1="91.59" x2="216.90" y2="90.52" stroke="currentColor" stroke-width="2" stroke-linecap="round"/>
<line x1="233.37" y1="268.89" x2="225.13" y2="270.41" stroke="currentColor" stroke-width="2" stroke-linecap="round"/>
<line x1="233.37" y1="93.11" x2="225.13" y2="91.59" stroke="currentColor" stroke-width="2" stroke-linecap="round"/>
<line x1="237.70" y1="267.93" x2="233.37" y2="268.89" stroke="currentColor" stroke-width="2" stroke-linecap="round"/>
<line x1="237.70" y1="267.93" x2="241.60" y2="267.05" stroke="currentColor" stroke-width="2" stroke-linecap="round"/>
<line x1="241.60" y1="94.95" x2="237.70" y2="94.07" stroke="currentColor" stroke-width="2" stroke-linecap="round"/>
<line x1="237.70" y1="94.07" x2="233.37" y2="93.11" stroke="currentColor" stroke-width="2" stroke-linecap="round"/>
<line x1="249.83" y1="265.00" x2="241.60" y2="267.05" stroke="currentColor" stroke-width="2" stroke-linecap="round"/>
<line x1="249.83" y1="97.00" x2="241.60" y2="94.95" stroke="currentColor" stroke-width="2" stroke-linecap="round"/>
<line x1="258.07" y1="262.82" x2="249.83" y2="265.00" stroke="currentColor" stroke-width="2" stroke-linecap="round"/>
<line x1="258.07" y1="99.18" x2="249.83" y2="97.00" stroke="currentColor" stroke-width="2" stroke-linecap="round"/>
<line x1="259.39" y1="262.50" x2="258.07" y2="262.82" stroke="currentColor" stroke-width="2" stroke-linecap="round"/>
<line x1="259.39" y1="262.50" x2="266.30" y2="260.77" stroke="currentColor" stroke-width="2" stroke-linecap="round"/>
<line x1="266.30" y1="101.23" x2="259.39" y2="99.50" stroke="currentColor" stroke-width="2" stroke-linecap="round"/>
<line x1="259.39" y1="99.50" x2="258.07" y2="99.18" stroke="currentColor" stroke-width="2" stroke-linecap="round"/>
<line x1="274.53" y1="259.03" x2="266.30" y2="260.77" stroke="currentColor" stroke-width="2" stroke-linecap="round"/>
<line x1="274.53" y1="102.97" x2="266.30" y2="101.23" stroke="currentColor" stroke-width="2" stroke-linecap="round"/>
<line x1="282.77" y1="257.86" x2="274.53" y2="259.03" stroke="currentColor" stroke-width="2" stroke-linecap="round"/>
<line x1="282.77" y1="104.14" x2="274.53" y2="102.97" stroke="currentColor" stroke-width="2" stroke-linecap="round"/>
<line x1="291.00" y1="257.45" x2="282.77" y2="257.86" stroke="currentColor" stroke-width="2" stroke-linecap="round"/>
<line x1="291.00" y1="104.55" x2="282.77" y2="104.14" stroke="currentColor" stroke-width="2" stroke-linecap="round"/>
<line x1="299.23" y1="257.86" x2="291.00" y2="257.45" stroke="currentColor" stroke-width="2" stroke-linecap="round"/>
<line x1="299.23" y1="104.14" x2="291.00" y2="104.55" stroke="currentColor" stroke-width="2" stroke-linecap="round"/>
<line x1="307.47" y1="259.03" x2="299.23" y2="257.86" stroke="currentColor" stroke-width="2" stroke-linecap="round"/>
<line x1="307.47" y1="102.97" x2="299.23" y2="104.14" stroke="currentColor" stroke-width="2" stroke-linecap="round"/>
<line x1="315.70" y1="260.77" x2="307.47" y2="259.03" stroke="currentColor" stroke-width="2" stroke-linecap="round"/>
<line x1="315.70" y1="101.23" x2="307.47" y2="102.97" stroke="currentColor" stroke-width="2" stroke-linecap="round"/>
<line x1="323.93" y1="262.82" x2="322.61" y2="262.50" stroke="currentColor" stroke-width="2" stroke-linecap="round"/>
<line x1="322.61" y1="262.50" x2="315.70" y2="260.77" stroke="currentColor" stroke-width="2" stroke-linecap="round"/>
<line x1="322.61" y1="99.50" x2="315.70" y2="101.23" stroke="currentColor" stroke-width="2" stroke-linecap="round"/>
<line x1="322.61" y1="99.50" x2="323.93" y2="99.18" stroke="currentColor" stroke-width="2" stroke-linecap="round"/>
<line x1="332.17" y1="265.00" x2="323.93" y2="262.82" stroke="currentColor" stroke-width="2" stroke-linecap="round"/>
<line x1="332.17" y1="97.00" x2="323.93" y2="99.18" stroke="currentColor" stroke-width="2" stroke-linecap="round"/>
<line x1="340.40" y1="267.05" x2="332.17" y2="265.00" stroke="currentColor" stroke-width="2" stroke-linecap="round"/>
<line x1="340.40" y1="94.95" x2="332.17" y2="97.00" stroke="currentColor" stroke-width="2" stroke-linecap="round"/>
<line x1="348.63" y1="268.89" x2="344.30" y2="267.93" stroke="currentColor" stroke-width="2" stroke-linecap="round"/>
<line x1="344.30" y1="267.93" x2="340.40" y2="267.05" stroke="currentColor" stroke-width="2" stroke-linecap="round"/>
<line x1="344.30" y1="94.07" x2="340.40" y2="94.95" stroke="currentColor" stroke-width="2" stroke-linecap="round"/>
<line x1="344.30" y1="94.07" x2="348.63" y2="93.11" stroke="currentColor" stroke-width="2" stroke-linecap="round"/>
<line x1="356.87" y1="270.41" x2="348.63" y2="268.89" stroke="currentColor" stroke-width="2" stroke-linecap="round"/>
<line x1="356.87" y1="91.59" x2="348.63" y2="93.11" stroke="currentColor" stroke-width="2" stroke-linecap="round"/>
<line x1="365.10" y1="271.48" x2="356.87" y2="270.41" stroke="currentColor" stroke-width="2" stroke-linecap="round"/>
<line x1="365.10" y1="90.52" x2="356.87" y2="91.59" stroke="currentColor" stroke-width="2" stroke-linecap="round"/>
<line x1="373.33" y1="272.08" x2="365.10" y2="271.48" stroke="currentColor" stroke-width="2" stroke-linecap="round"/>
<line x1="373.33" y1="89.92" x2="365.10" y2="90.52" stroke="currentColor" stroke-width="2" stroke-linecap="round"/>
<line x1="381.57" y1="272.17" x2="373.33" y2="272.08" stroke="currentColor" stroke-width="2" stroke-linecap="round"/>
<line x1="381.57" y1="89.83" x2="373.33" y2="89.92" stroke="currentColor" stroke-width="2" stroke-linecap="round"/>
<line x1="389.80" y1="271.72" x2="381.57" y2="272.17" stroke="currentColor" stroke-width="2" stroke-linecap="round"/>
<line x1="389.80" y1="90.28" x2="381.57" y2="89.83" stroke="currentColor" stroke-width="2" stroke-linecap="round"/>
<line x1="398.03" y1="270.66" x2="389.80" y2="271.72" stroke="currentColor" stroke-width="2" stroke-linecap="round"/>
<line x1="398.03" y1="91.34" x2="389.80" y2="90.28" stroke="currentColor" stroke-width="2" stroke-linecap="round"/>
<line x1="406.27" y1="268.91" x2="398.03" y2="270.66" stroke="currentColor" stroke-width="2" stroke-linecap="round"/>
<line x1="406.27" y1="93.09" x2="398.03" y2="91.34" stroke="currentColor" stroke-width="2" stroke-linecap="round"/>
<line x1="409.50" y1="267.93" x2="406.27" y2="268.91" stroke="currentColor" stroke-width="2" stroke-linecap="round"/>
<line x1="409.50" y1="267.93" x2="414.50" y2="266.50" stroke="currentColor" stroke-width="2" stroke-linecap="round"/>
<line x1="414.50" y1="95.50" x2="409.50" y2="94.07" stroke="currentColor" stroke-width="2" stroke-linecap="round"/>
<line x1="409.50" y1="94.07" x2="406.27" y2="93.09" stroke="currentColor" stroke-width="2" stroke-linecap="round"/>
<line x1="422.73" y1="263.26" x2="414.50" y2="266.50" stroke="currentColor" stroke-width="2" stroke-linecap="round"/>
<line x1="422.73" y1="98.74" x2="414.50" y2="95.50" stroke="currentColor" stroke-width="2" stroke-linecap="round"/>
<line x1="424.27" y1="262.50" x2="422.73" y2="263.26" stroke="currentColor" stroke-width="2" stroke-linecap="round"/>
<line x1="424.27" y1="262.50" x2="430.97" y2="259.17" stroke="currentColor" stroke-width="2" stroke-linecap="round"/>
<line x1="430.97" y1="102.83" x2="424.27" y2="99.50" stroke="currentColor" stroke-width="2" stroke-linecap="round"/>
<line x1="424.27" y1="99.50" x2="422.73" y2="98.74" stroke="currentColor" stroke-width="2" stroke-linecap="round"/>
<line x1="434.38" y1="257.07" x2="430.97" y2="259.17" stroke="currentColor" stroke-width="2" stroke-linecap="round"/>
<line x1="434.38" y1="257.07" x2="439.20" y2="253.97" stroke="currentColor" stroke-width="2" stroke-linecap="round"/>
<line x1="439.20" y1="108.03" x2="434.38" y2="104.93" stroke="currentColor" stroke-width="2" stroke-linecap="round"/>
<line x1="434.38" y1="104.93" x2="430.97" y2="102.83" stroke="currentColor" stroke-width="2" stroke-linecap="round"/>
<line x1="442.30" y1="251.63" x2="439.20" y2="253.97" stroke="currentColor" stroke-width="2" stroke-linecap="round"/>
<line x1="442.30" y1="251.63" x2="447.43" y2="247.42" stroke="currentColor" stroke-width="2" stroke-linecap="round"/>
<line x1="447.43" y1="114.58" x2="442.30" y2="110.37" stroke="currentColor" stroke-width="2" stroke-linecap="round"/>
<line x1="442.30" y1="110.37" x2="439.20" y2="108.03" stroke="currentColor" stroke-width="2" stroke-linecap="round"/>
<line x1="448.77" y1="246.20" x2="447.43" y2="247.42" stroke="currentColor" stroke-width="2" stroke-linecap="round"/>
<line x1="448.77" y1="246.20" x2="454.19" y2="240.77" stroke="currentColor" stroke-width="2" stroke-linecap="round"/>
<line x1="454.19" y1="240.77" x2="455.67" y2="239.09" stroke="currentColor" stroke-width="2" stroke-linecap="round"/>
<line x1="455.67" y1="122.91" x2="454.19" y2="121.23" stroke="currentColor" stroke-width="2" stroke-linecap="round"/>
<line x1="454.19" y1="121.23" x2="448.77" y2="115.80" stroke="currentColor" stroke-width="2" stroke-linecap="round"/>
<line x1="448.77" y1="115.80" x2="447.43" y2="114.58" stroke="currentColor" stroke-width="2" stroke-linecap="round"/>
<line x1="458.83" y1="235.33" x2="455.67" y2="239.09" stroke="currentColor" stroke-width="2" stroke-linecap="round"/>
<line x1="458.83" y1="235.33" x2="462.72" y2="229.90" stroke="currentColor" stroke-width="2" stroke-linecap="round"/>
<line x1="462.72" y1="229.90" x2="463.90" y2="227.99" stroke="currentColor" stroke-width="2" stroke-linecap="round"/>
<line x1="463.90" y1="134.01" x2="462.72" y2="132.10" stroke="currentColor" stroke-width="2" stroke-linecap="round"/>
<line x1="462.72" y1="132.10" x2="458.83" y2="126.67" stroke="currentColor" stroke-width="2" stroke-linecap="round"/>
<line x1="458.83" y1="126.67" x2="455.67" y2="122.91" stroke="currentColor" stroke-width="2" stroke-linecap="round"/>
<line x1="466.12" y1="224.47" x2="463.90" y2="227.99" stroke="currentColor" stroke-width="2" stroke-linecap="round"/>
<line x1="466.12" y1="224.47" x2="469.00" y2="219.03" stroke="currentColor" stroke-width="2" stroke-linecap="round"/>
<line x1="469.00" y1="219.03" x2="471.31" y2="213.60" stroke="currentColor" stroke-width="2" stroke-linecap="round"/>
<line x1="471.31" y1="213.60" x2="472.13" y2="211.21" stroke="currentColor" stroke-width="2" stroke-linecap="round"/>
<line x1="472.13" y1="150.79" x2="471.31" y2="148.40" stroke="currentColor" stroke-width="2" stroke-linecap="round"/>
<line x1="471.31" y1="148.40" x2="469.00" y2="142.97" stroke="currentColor" stroke-width="2" stroke-linecap="round"/>
<line x1="469.00" y1="142.97" x2="466.12" y2="137.53" stroke="currentColor" stroke-width="2" stroke-linecap="round"/>
<line x1="466.12" y1="137.53" x2="463.90" y2="134.01" stroke="currentColor" stroke-width="2" stroke-linecap="round"/>
<line x1="473.29" y1="208.17" x2="472.13" y2="211.21" stroke="currentColor" stroke-width="2" stroke-linecap="round"/>
<line x1="473.29" y1="208.17" x2="474.95" y2="202.73" stroke="currentColor" stroke-width="2" stroke-linecap="round"/>
<line x1="474.95" y1="202.73" x2="476.19" y2="197.30" stroke="currentColor" stroke-width="2" stroke-linecap="round"/>
<line x1="476.19" y1="197.30" x2="477.04" y2="191.87" stroke="currentColor" stroke-width="2" stroke-linecap="round"/>
<line x1="477.04" y1="191.87" x2="477.54" y2="186.43" stroke="currentColor" stroke-width="2" stroke-linecap="round"/>
<line x1="477.54" y1="186.43" x2="477.71" y2="181.00" stroke="currentColor" stroke-width="2" stroke-linecap="round"/>
<line x1="477.71" y1="181.00" x2="477.54" y2="175.57" stroke="currentColor" stroke-width="2" stroke-linecap="round"/>
<line x1="477.54" y1="175.57" x2="477.04" y2="170.13" stroke="currentColor" stroke-width="2" stroke-linecap="round"/>
<line x1="477.04" y1="170.13" x2="476.19" y2="164.70" stroke="currentColor" stroke-width="2" stroke-linecap="round"/>
<line x1="476.19" y1="164.70" x2="474.95" y2="159.27" stroke="currentColor" stroke-width="2" stroke-linecap="round"/>
<line x1="474.95" y1="159.27" x2="473.29" y2="153.83" stroke="currentColor" stroke-width="2" stroke-linecap="round"/>
<line x1="473.29" y1="153.83" x2="472.13" y2="150.79" stroke="currentColor" stroke-width="2" stroke-linecap="round"/>
<text x="538.00" y="171.00" text-anchor="end" dominant-baseline="central" font-size="15" font-style="italic"><tspan dy="0.00">x</tspan></text>
<text x="303.00" y="20.00" text-anchor="start" dominant-baseline="central" font-size="15" font-style="italic"><tspan dy="0.00">y</tspan></text>
</svg>
