<svg xmlns="http://www.w3.org/2000/svg" viewBox="0 0 189.6 278.6" width="190" height="279" font-family="Georgia, 'Times New Roman', serif">
<circle cx="101.64" cy="53.00" r="3.41" fill="currentColor" stroke="currentColor" stroke-width="1"/>
<text class="mtph-lbl" x="110.64" y="44.00" text-anchor="start" dominant-baseline="central" font-size="18" font-style="italic" fill="#ffffff" stroke="#ffffff" stroke-width="3.2" stroke-linejoin="round"><tspan dy="0.00">A</tspan></text><text x="110.64" y="44.00" text-anchor="start" dominant-baseline="central" font-size="18" font-style="italic" fill="currentColor"><tspan dy="0.00">A</tspan></text>
<circle cx="101.64" cy="239.00" r="3.41" fill="currentColor" stroke="currentColor" stroke-width="1"/>
<text class="mtph-lbl" x="110.64" y="230.00" text-anchor="start" dominant-baseline="central" font-size="18" font-style="italic" fill="#ffffff" stroke="#ffffff" stroke-width="3.2" stroke-linejoin="round"><tspan dy="0.00">B</tspan></text><text x="110.64" y="230.00" text-anchor="start" dominant-baseline="central" font-size="18" font-style="italic" fill="currentColor"><tspan dy="0.00">B</tspan></text>
<line x1="101.64" y1="53.00" x2="101.64" y2="239.00" stroke="currentColor" stroke-width="2" stroke-linecap="round" stroke-dasharray="7 5"/>
<line x1="101.64" y1="152.20" x2="101.64" y2="214.20" stroke="currentColor" stroke-width="2" stroke-linecap="round"/><polygon points="101.64,214.20 97.44,204.20 105.84,204.20" fill="currentColor"/>
<text class="mtph-lbl" x="101.64" y="230.20" text-anchor="middle" dominant-baseline="central" font-size="18" font-style="italic" fill="#ffffff" stroke="#ffffff" stroke-width="3.2" stroke-linejoin="round"><tspan dy="0.00">v</tspan></text><text x="101.64" y="230.20" text-anchor="middle" dominant-baseline="central" font-size="18" font-style="italic" fill="currentColor"><tspan dy="0.00">v</tspan></text>
<line x1="39.64" y1="239.00" x2="163.64" y2="239.00" stroke="currentColor" stroke-width="2" stroke-linecap="round"/>
<line x1="39.64" y1="239.00" x2="26.00" y2="252.64" stroke="currentColor" stroke-width="1.3" stroke-linecap="round"/>
<line x1="59.48" y1="239.00" x2="45.84" y2="252.64" stroke="currentColor" stroke-width="1.3" stroke-linecap="round"/>
<line x1="79.32" y1="239.00" x2="65.68" y2="252.64" stroke="currentColor" stroke-width="1.3" stroke-linecap="round"/>
<line x1="99.16" y1="239.00" x2="85.52" y2="252.64" stroke="currentColor" stroke-width="1.3" stroke-linecap="round"/>
<line x1="119.00" y1="239.00" x2="105.36" y2="252.64" stroke="currentColor" stroke-width="1.3" stroke-linecap="round"/>
<line x1="138.84" y1="239.00" x2="125.20" y2="252.64" stroke="currentColor" stroke-width="1.3" stroke-linecap="round"/>
<line x1="158.68" y1="239.00" x2="145.04" y2="252.64" stroke="currentColor" stroke-width="1.3" stroke-linecap="round"/>
<line x1="135.74" y1="53.00" x2="135.74" y2="53.00" stroke="#888888" stroke-width="1.3" stroke-linecap="round"/>
<line x1="135.74" y1="239.00" x2="135.74" y2="239.00" stroke="#888888" stroke-width="1.3" stroke-linecap="round"/>
<line x1="135.74" y1="53.00" x2="135.74" y2="239.00" stroke="currentColor" stroke-width="1.3" stroke-linecap="round"/><polygon points="135.74,239.00 131.54,229.00 139.94,229.00" fill="currentColor"/><polygon points="135.74,53.00 139.94,63.00 131.54,63.00" fill="currentColor"/>
<text class="mtph-lbl" x="149.74" y="146.00" text-anchor="middle" dominant-baseline="central" font-size="18" font-style="italic" fill="#ffffff" stroke="#ffffff" stroke-width="3.2" stroke-linejoin="round"><tspan dy="0.00">h</tspan></text><text x="149.74" y="146.00" text-anchor="middle" dominant-baseline="central" font-size="18" font-style="italic" fill="currentColor"><tspan dy="0.00">h</tspan></text>
</svg>
