<svg xmlns="http://www.w3.org/2000/svg" viewBox="0 0 443.6 276.4" width="444" height="276" font-family="Georgia, 'Times New Roman', serif">
<polygon points="70.64,236.77 392.80,236.77 392.80,50.77" fill="none" stroke="currentColor" stroke-width="2" stroke-linejoin="round"/>
<line x1="39.64" y1="236.77" x2="417.60" y2="236.77" stroke="currentColor" stroke-width="2" stroke-linecap="round"/>
<line x1="39.64" y1="236.77" x2="26.00" y2="250.41" stroke="currentColor" stroke-width="1.3" stroke-linecap="round"/>
<line x1="59.48" y1="236.77" x2="45.84" y2="250.41" stroke="currentColor" stroke-width="1.3" stroke-linecap="round"/>
<line x1="79.32" y1="236.77" x2="65.68" y2="250.41" stroke="currentColor" stroke-width="1.3" stroke-linecap="round"/>
<line x1="99.16" y1="236.77" x2="85.52" y2="250.41" stroke="currentColor" stroke-width="1.3" stroke-linecap="round"/>
<line x1="119.00" y1="236.77" x2="105.36" y2="250.41" stroke="currentColor" stroke-width="1.3" stroke-linecap="round"/>
<line x1="138.84" y1="236.77" x2="125.20" y2="250.41" stroke="currentColor" stroke-width="1.3" stroke-linecap="round"/>
<line x1="158.68" y1="236.77" x2="145.04" y2="250.41" stroke="currentColor" stroke-width="1.3" stroke-linecap="round"/>
<line x1="178.52" y1="236.77" x2="164.88" y2="250.41" stroke="currentColor" stroke-width="1.3" stroke-linecap="round"/>
<line x1="198.36" y1="236.77" x2="184.72" y2="250.41" stroke="currentColor" stroke-width="1.3" stroke-linecap="round"/>
<line x1="218.20" y1="236.77" x2="204.56" y2="250.41" stroke="currentColor" stroke-width="1.3" stroke-linecap="round"/>
<line x1="238.04" y1="236.77" x2="224.40" y2="250.41" stroke="currentColor" stroke-width="1.3" stroke-linecap="round"/>
<line x1="257.88" y1="236.77" x2="244.24" y2="250.41" stroke="currentColor" stroke-width="1.3" stroke-linecap="round"/>
<line x1="277.72" y1="236.77" x2="264.08" y2="250.41" stroke="currentColor" stroke-width="1.3" stroke-linecap="round"/>
<line x1="297.56" y1="236.77" x2="283.92" y2="250.41" stroke="currentColor" stroke-width="1.3" stroke-linecap="round"/>
<line x1="317.40" y1="236.77" x2="303.76" y2="250.41" stroke="currentColor" stroke-width="1.3" stroke-linecap="round"/>
<line x1="337.24" y1="236.77" x2="323.60" y2="250.41" stroke="currentColor" stroke-width="1.3" stroke-linecap="round"/>
<line x1="357.08" y1="236.77" x2="343.44" y2="250.41" stroke="currentColor" stroke-width="1.3" stroke-linecap="round"/>
<line x1="376.92" y1="236.77" x2="363.28" y2="250.41" stroke="currentColor" stroke-width="1.3" stroke-linecap="round"/>
<line x1="396.76" y1="236.77" x2="383.12" y2="250.41" stroke="currentColor" stroke-width="1.3" stroke-linecap="round"/>
<line x1="416.60" y1="236.77" x2="402.96" y2="250.41" stroke="currentColor" stroke-width="1.3" stroke-linecap="round"/>
<polygon points="179.66,109.39 227.98,81.49 255.88,129.82 207.56,157.72" fill="#ffffff" class="mtph-pp" stroke="currentColor" stroke-width="2" stroke-linejoin="round"/>
<text class="mtph-lbl" x="229.90" y="112.60" text-anchor="middle" dominant-baseline="central" font-size="18" font-style="italic" fill="#ffffff" stroke="#ffffff" stroke-width="3.2" stroke-linejoin="round"><tspan dy="0.00">m</tspan></text><text x="229.90" y="112.60" text-anchor="middle" dominant-baseline="central" font-size="18" font-style="italic" fill="currentColor"><tspan dy="0.00">m</tspan></text>
<line x1="217.77" y1="119.60" x2="217.77" y2="190.90" stroke="currentColor" stroke-width="3" stroke-linecap="round"/><polygon points="217.77,190.90 213.57,180.90 221.97,180.90" fill="currentColor"/>
<text class="mtph-lbl" x="217.77" y="206.90" text-anchor="middle" dominant-baseline="central" font-size="18" font-style="italic" fill="#ffffff" stroke="#ffffff" stroke-width="3.2" stroke-linejoin="round"><tspan dy="0.00">mg</tspan></text><text x="217.77" y="206.90" text-anchor="middle" dominant-baseline="central" font-size="18" font-style="italic" fill="currentColor"><tspan dy="0.00">mg</tspan></text>
<line x1="217.77" y1="119.60" x2="182.12" y2="57.86" stroke="currentColor" stroke-width="3" stroke-linecap="round"/><polygon points="182.12,57.86 190.76,64.42 183.48,68.62" fill="currentColor"/>
<text class="mtph-lbl" x="174.12" y="44.00" text-anchor="end" dominant-baseline="central" font-size="18" font-style="italic" fill="#ffffff" stroke="#ffffff" stroke-width="3.2" stroke-linejoin="round"><tspan dy="0.00">N</tspan></text><text x="174.12" y="44.00" text-anchor="end" dominant-baseline="central" font-size="18" font-style="italic" fill="currentColor"><tspan dy="0.00">N</tspan></text>
<polyline points="114.04,236.77 113.95,233.93 113.67,231.10 113.21,228.30 112.56,225.53 111.74,222.82 110.74,220.16 109.56,217.57 108.23,215.07" fill="none" stroke="currentColor" stroke-width="1.3" stroke-linejoin="round" stroke-linecap="round"/>
<text class="mtph-lbl" x="129.33" y="221.04" text-anchor="middle" dominant-baseline="central" font-size="18" font-style="italic" fill="#ffffff" stroke="#ffffff" stroke-width="3.2" stroke-linejoin="round"><tspan dy="0.00">θ</tspan></text><text x="129.33" y="221.04" text-anchor="middle" dominant-baseline="central" font-size="18" font-style="italic" fill="currentColor"><tspan dy="0.00">θ</tspan></text>
</svg>
