<svg xmlns="http://www.w3.org/2000/svg" viewBox="0 0 828.2 409.4" width="828" height="409" font-family="Georgia, 'Times New Roman', serif">
<line x1="39.64" y1="307.96" x2="802.24" y2="307.96" stroke="currentColor" stroke-width="2" stroke-linecap="round"/>
<line x1="39.64" y1="307.96" x2="26.00" y2="321.60" stroke="currentColor" stroke-width="1.3" stroke-linecap="round"/>
<line x1="59.48" y1="307.96" x2="45.84" y2="321.60" stroke="currentColor" stroke-width="1.3" stroke-linecap="round"/>
<line x1="79.32" y1="307.96" x2="65.68" y2="321.60" stroke="currentColor" stroke-width="1.3" stroke-linecap="round"/>
<line x1="99.16" y1="307.96" x2="85.52" y2="321.60" stroke="currentColor" stroke-width="1.3" stroke-linecap="round"/>
<line x1="119.00" y1="307.96" x2="105.36" y2="321.60" stroke="currentColor" stroke-width="1.3" stroke-linecap="round"/>
<line x1="138.84" y1="307.96" x2="125.20" y2="321.60" stroke="currentColor" stroke-width="1.3" stroke-linecap="round"/>
<line x1="158.68" y1="307.96" x2="145.04" y2="321.60" stroke="currentColor" stroke-width="1.3" stroke-linecap="round"/>
<line x1="178.52" y1="307.96" x2="164.88" y2="321.60" stroke="currentColor" stroke-width="1.3" stroke-linecap="round"/>
<line x1="198.36" y1="307.96" x2="184.72" y2="321.60" stroke="currentColor" stroke-width="1.3" stroke-linecap="round"/>
<line x1="218.20" y1="307.96" x2="204.56" y2="321.60" stroke="currentColor" stroke-width="1.3" stroke-linecap="round"/>
<line x1="238.04" y1="307.96" x2="224.40" y2="321.60" stroke="currentColor" stroke-width="1.3" stroke-linecap="round"/>
<line x1="257.88" y1="307.96" x2="244.24" y2="321.60" stroke="currentColor" stroke-width="1.3" stroke-linecap="round"/>
<line x1="277.72" y1="307.96" x2="264.08" y2="321.60" stroke="currentColor" stroke-width="1.3" stroke-linecap="round"/>
<line x1="297.56" y1="307.96" x2="283.92" y2="321.60" stroke="currentColor" stroke-width="1.3" stroke-linecap="round"/>
<line x1="317.40" y1="307.96" x2="303.76" y2="321.60" stroke="currentColor" stroke-width="1.3" stroke-linecap="round"/>
<line x1="337.24" y1="307.96" x2="323.60" y2="321.60" stroke="currentColor" stroke-width="1.3" stroke-linecap="round"/>
<line x1="357.08" y1="307.96" x2="343.44" y2="321.60" stroke="currentColor" stroke-width="1.3" stroke-linecap="round"/>
<line x1="376.92" y1="307.96" x2="363.28" y2="321.60" stroke="currentColor" stroke-width="1.3" stroke-linecap="round"/>
<line x1="396.76" y1="307.96" x2="383.12" y2="321.60" stroke="currentColor" stroke-width="1.3" stroke-linecap="round"/>
<line x1="416.60" y1="307.96" x2="402.96" y2="321.60" stroke="currentColor" stroke-width="1.3" stroke-linecap="round"/>
<line x1="436.44" y1="307.96" x2="422.80" y2="321.60" stroke="currentColor" stroke-width="1.3" stroke-linecap="round"/>
<line x1="456.28" y1="307.96" x2="442.64" y2="321.60" stroke="currentColor" stroke-width="1.3" stroke-linecap="round"/>
<line x1="476.12" y1="307.96" x2="462.48" y2="321.60" stroke="currentColor" stroke-width="1.3" stroke-linecap="round"/>
<line x1="495.96" y1="307.96" x2="482.32" y2="321.60" stroke="currentColor" stroke-width="1.3" stroke-linecap="round"/>
<line x1="515.80" y1="307.96" x2="502.16" y2="321.60" stroke="currentColor" stroke-width="1.3" stroke-linecap="round"/>
<line x1="535.64" y1="307.96" x2="522.00" y2="321.60" stroke="currentColor" stroke-width="1.3" stroke-linecap="round"/>
<line x1="555.48" y1="307.96" x2="541.84" y2="321.60" stroke="currentColor" stroke-width="1.3" stroke-linecap="round"/>
<line x1="575.32" y1="307.96" x2="561.68" y2="321.60" stroke="currentColor" stroke-width="1.3" stroke-linecap="round"/>
<line x1="595.16" y1="307.96" x2="581.52" y2="321.60" stroke="currentColor" stroke-width="1.3" stroke-linecap="round"/>
<line x1="615.00" y1="307.96" x2="601.36" y2="321.60" stroke="currentColor" stroke-width="1.3" stroke-linecap="round"/>
<line x1="634.84" y1="307.96" x2="621.20" y2="321.60" stroke="currentColor" stroke-width="1.3" stroke-linecap="round"/>
<line x1="654.68" y1="307.96" x2="641.04" y2="321.60" stroke="currentColor" stroke-width="1.3" stroke-linecap="round"/>
<line x1="674.52" y1="307.96" x2="660.88" y2="321.60" stroke="currentColor" stroke-width="1.3" stroke-linecap="round"/>
<line x1="694.36" y1="307.96" x2="680.72" y2="321.60" stroke="currentColor" stroke-width="1.3" stroke-linecap="round"/>
<line x1="714.20" y1="307.96" x2="700.56" y2="321.60" stroke="currentColor" stroke-width="1.3" stroke-linecap="round"/>
<line x1="734.04" y1="307.96" x2="720.40" y2="321.60" stroke="currentColor" stroke-width="1.3" stroke-linecap="round"/>
<line x1="753.88" y1="307.96" x2="740.24" y2="321.60" stroke="currentColor" stroke-width="1.3" stroke-linecap="round"/>
<line x1="773.72" y1="307.96" x2="760.08" y2="321.60" stroke="currentColor" stroke-width="1.3" stroke-linecap="round"/>
<line x1="793.56" y1="307.96" x2="779.92" y2="321.60" stroke="currentColor" stroke-width="1.3" stroke-linecap="round"/>
<line x1="58.24" y1="307.96" x2="58.24" y2="214.96" stroke="currentColor" stroke-width="2" stroke-linecap="round"/>
<line x1="58.24" y1="307.96" x2="44.60" y2="294.32" stroke="currentColor" stroke-width="1.3" stroke-linecap="round"/>
<line x1="58.24" y1="288.12" x2="44.60" y2="274.48" stroke="currentColor" stroke-width="1.3" stroke-linecap="round"/>
<line x1="58.24" y1="268.28" x2="44.60" y2="254.64" stroke="currentColor" stroke-width="1.3" stroke-linecap="round"/>
<line x1="58.24" y1="248.44" x2="44.60" y2="234.80" stroke="currentColor" stroke-width="1.3" stroke-linecap="round"/>
<line x1="58.24" y1="228.60" x2="44.60" y2="214.96" stroke="currentColor" stroke-width="1.3" stroke-linecap="round"/>
<polyline points="58.24,273.86 73.62,273.86 78.28,265.80 82.95,281.92 87.62,265.80 92.29,281.92 96.95,265.80 101.62,281.92 106.29,265.80 110.96,281.92 115.63,265.80 120.29,281.92 124.96,265.80 129.63,281.92 134.30,265.80 138.96,273.86 154.34,273.86" fill="none" stroke="currentColor" stroke-width="1.3" stroke-linejoin="round" stroke-linecap="round"/>
<text class="mtph-lbl" x="106.29" y="259.86" text-anchor="middle" dominant-baseline="central" font-size="18" font-style="italic" fill="#ffffff" stroke="#ffffff" stroke-width="3.2" stroke-linejoin="round"><tspan dy="0.00">k</tspan></text><text x="106.29" y="259.86" text-anchor="middle" dominant-baseline="central" font-size="18" font-style="italic" fill="currentColor"><tspan dy="0.00">k</tspan></text>
<polygon points="158.06,249.68 206.42,249.68 206.42,298.04 158.06,298.04" fill="#ffffff" class="mtph-pp" stroke="currentColor" stroke-width="2" stroke-linejoin="round"/>
<text class="mtph-lbl" x="196.24" y="273.86" text-anchor="middle" dominant-baseline="central" font-size="18" font-style="italic" fill="#ffffff" stroke="#ffffff" stroke-width="3.2" stroke-linejoin="round"><tspan dy="0.00">m</tspan></text><text x="196.24" y="273.86" text-anchor="middle" dominant-baseline="central" font-size="18" font-style="italic" fill="currentColor"><tspan dy="0.00">m</tspan></text>
<polygon points="287.64,298.04 448.84,298.04 448.84,307.96 287.64,307.96" fill="#cccccc" stroke="currentColor" stroke-width="2" stroke-linejoin="round"/>
<text class="mtph-lbl" x="368.24" y="288.04" text-anchor="middle" dominant-baseline="auto" font-size="18" font-style="italic" fill="#ffffff" stroke="#ffffff" stroke-width="3.2" stroke-linejoin="round"><tspan dy="0.00">μ</tspan></text><text x="368.24" y="288.04" text-anchor="middle" dominant-baseline="auto" font-size="18" font-style="italic" fill="currentColor"><tspan dy="0.00">μ</tspan></text>
<line x1="287.64" y1="307.96" x2="287.64" y2="351.36" stroke="#888888" stroke-width="1.3" stroke-linecap="round"/>
<line x1="448.84" y1="307.96" x2="448.84" y2="351.36" stroke="#888888" stroke-width="1.3" stroke-linecap="round"/>
<line x1="287.64" y1="351.36" x2="448.84" y2="351.36" stroke="currentColor" stroke-width="1.3" stroke-linecap="round"/><polygon points="448.84,351.36 438.84,355.56 438.84,347.16" fill="currentColor"/><polygon points="287.64,351.36 297.64,347.16 297.64,355.56" fill="currentColor"/>
<text class="mtph-lbl" x="368.24" y="365.36" text-anchor="middle" dominant-baseline="central" font-size="18" font-style="italic" fill="#ffffff" stroke="#ffffff" stroke-width="3.2" stroke-linejoin="round"><tspan dy="0.00">L</tspan></text><text x="368.24" y="365.36" text-anchor="middle" dominant-baseline="central" font-size="18" font-style="italic" fill="currentColor"><tspan dy="0.00">L</tspan></text>
<circle cx="616.24" cy="183.96" r="124.00" fill="none" stroke="currentColor" stroke-width="2"/>
<circle cx="616.24" cy="183.96" r="3.41" fill="currentColor" stroke="currentColor" stroke-width="1"/>
<line x1="616.24" y1="183.96" x2="740.24" y2="183.96" stroke="currentColor" stroke-width="2" stroke-linecap="round"/>
<text class="mtph-lbl" x="678.24" y="173.96" text-anchor="middle" dominant-baseline="auto" font-size="18" font-style="italic" fill="#ffffff" stroke="#ffffff" stroke-width="3.2" stroke-linejoin="round"><tspan dy="0.00">R</tspan></text><text x="678.24" y="173.96" text-anchor="middle" dominant-baseline="auto" font-size="18" font-style="italic" fill="currentColor"><tspan dy="0.00">R</tspan></text>
<line x1="616.24" y1="59.96" x2="616.24" y2="97.16" stroke="currentColor" stroke-width="2" stroke-linecap="round"/><polygon points="616.24,97.16 612.04,87.16 620.44,87.16" fill="currentColor"/>
<text class="mtph-lbl" x="624.24" y="84.76" text-anchor="start" dominant-baseline="central" font-size="18" font-style="italic" fill="#ffffff" stroke="#ffffff" stroke-width="3.2" stroke-linejoin="round"><tspan dy="0.00">mg</tspan></text><text x="624.24" y="84.76" text-anchor="start" dominant-baseline="central" font-size="18" font-style="italic" fill="currentColor"><tspan dy="0.00">mg</tspan></text>
<line x1="616.24" y1="59.96" x2="560.44" y2="59.96" stroke="currentColor" stroke-width="2" stroke-linecap="round"/><polygon points="560.44,59.96 570.44,55.76 570.44,64.16" fill="currentColor"/>
<text class="mtph-lbl" x="544.44" y="59.96" text-anchor="end" dominant-baseline="central" font-size="18" font-style="italic" fill="#ffffff" stroke="#ffffff" stroke-width="3.2" stroke-linejoin="round"><tspan dy="0.00">v</tspan><tspan dy="5.40" font-size="13.0">top</tspan></text><text x="544.44" y="59.96" text-anchor="end" dominant-baseline="central" font-size="18" font-style="italic" fill="currentColor"><tspan dy="0.00">v</tspan><tspan dy="5.40" font-size="13.0">top</tspan></text>
<line x1="616.24" y1="303.62" x2="616.24" y2="242.86" stroke="currentColor" stroke-width="2" stroke-linecap="round"/><polygon points="616.24,242.86 620.44,252.86 612.04,252.86" fill="currentColor"/>
<text class="mtph-lbl" x="616.24" y="226.86" text-anchor="middle" dominant-baseline="central" font-size="18" font-style="italic" fill="#ffffff" stroke="#ffffff" stroke-width="3.2" stroke-linejoin="round"><tspan dy="0.00">N</tspan></text><text x="616.24" y="226.86" text-anchor="middle" dominant-baseline="central" font-size="18" font-style="italic" fill="currentColor"><tspan dy="0.00">N</tspan></text>
<line x1="548.04" y1="307.96" x2="603.84" y2="307.96" stroke="currentColor" stroke-width="2" stroke-linecap="round"/><polygon points="603.84,307.96 593.84,312.16 593.84,303.76" fill="currentColor"/>
<text class="mtph-lbl" x="619.84" y="307.96" text-anchor="start" dominant-baseline="central" font-size="18" font-style="italic" fill="#ffffff" stroke="#ffffff" stroke-width="3.2" stroke-linejoin="round"><tspan dy="0.00">v</tspan><tspan dy="5.40" font-size="13.0">bot</tspan></text><text x="619.84" y="307.96" text-anchor="start" dominant-baseline="central" font-size="18" font-style="italic" fill="currentColor"><tspan dy="0.00">v</tspan><tspan dy="5.40" font-size="13.0">bot</tspan></text>
<circle cx="692.56" cy="86.25" r="3.41" fill="currentColor" stroke="currentColor" stroke-width="1"/>
<line x1="616.24" y1="183.96" x2="692.56" y2="86.25" stroke="currentColor" stroke-width="2" stroke-linecap="round" stroke-dasharray="7 5"/>
<polyline points="646.78,144.87 643.44,142.48 639.91,140.37 636.22,138.56 632.39,137.06 628.45,135.88 624.43,135.04 620.35,134.53 616.24,134.36" fill="none" stroke="currentColor" stroke-width="1.3" stroke-linejoin="round" stroke-linecap="round"/>
<text class="mtph-lbl" x="638.04" y="120.65" text-anchor="middle" dominant-baseline="central" font-size="18" font-style="italic" fill="#ffffff" stroke="#ffffff" stroke-width="3.2" stroke-linejoin="round"><tspan dy="0.00">θ</tspan></text><text x="638.04" y="120.65" text-anchor="middle" dominant-baseline="central" font-size="18" font-style="italic" fill="currentColor"><tspan dy="0.00">θ</tspan></text>
<line x1="692.56" y1="86.25" x2="650.34" y2="53.76" stroke="currentColor" stroke-width="2" stroke-linecap="round"/><polygon points="650.34,53.76 660.83,56.53 655.70,63.18" fill="currentColor"/>
<text class="mtph-lbl" x="637.66" y="44.00" text-anchor="end" dominant-baseline="central" font-size="18" font-style="italic" fill="#ffffff" stroke="#ffffff" stroke-width="3.2" stroke-linejoin="round"><tspan dy="0.00">v</tspan></text><text x="637.66" y="44.00" text-anchor="end" dominant-baseline="central" font-size="18" font-style="italic" fill="currentColor"><tspan dy="0.00">v</tspan></text>
</svg>
