<svg xmlns="http://www.w3.org/2000/svg" viewBox="0 0 560 380" width="560" height="380" fill="currentColor" font-family="Georgia, 'Times New Roman', serif">
<line x1="44.00" y1="18.00" x2="44.00" y2="344.00" stroke="#e6e6e6" stroke-width="1"/>
<line x1="142.80" y1="18.00" x2="142.80" y2="344.00" stroke="#e6e6e6" stroke-width="1"/>
<line x1="241.60" y1="18.00" x2="241.60" y2="344.00" stroke="#e6e6e6" stroke-width="1"/>
<line x1="340.40" y1="18.00" x2="340.40" y2="344.00" stroke="#e6e6e6" stroke-width="1"/>
<line x1="439.20" y1="18.00" x2="439.20" y2="344.00" stroke="#e6e6e6" stroke-width="1"/>
<line x1="538.00" y1="18.00" x2="538.00" y2="344.00" stroke="#e6e6e6" stroke-width="1"/>
<line x1="44.00" y1="332.34" x2="538.00" y2="332.34" stroke="#e6e6e6" stroke-width="1"/>
<line x1="44.00" y1="276.13" x2="538.00" y2="276.13" stroke="#e6e6e6" stroke-width="1"/>
<line x1="44.00" y1="219.93" x2="538.00" y2="219.93" stroke="#e6e6e6" stroke-width="1"/>
<line x1="44.00" y1="163.72" x2="538.00" y2="163.72" stroke="#e6e6e6" stroke-width="1"/>
<line x1="44.00" y1="107.51" x2="538.00" y2="107.51" stroke="#e6e6e6" stroke-width="1"/>
<line x1="44.00" y1="51.31" x2="538.00" y2="51.31" stroke="#e6e6e6" stroke-width="1"/>
<line x1="44.00" y1="332.34" x2="538.00" y2="332.34" stroke="currentColor" stroke-width="1.4"/>
<line x1="44.00" y1="18.00" x2="44.00" y2="344.00" stroke="currentColor" stroke-width="1.4"/>
<line x1="142.80" y1="329.34" x2="142.80" y2="335.34" stroke="currentColor" stroke-width="1.2"/>
<text x="142.80" y="345.34" text-anchor="middle" dominant-baseline="central" font-size="12"><tspan dy="0.00">1</tspan></text>
<line x1="241.60" y1="329.34" x2="241.60" y2="335.34" stroke="currentColor" stroke-width="1.2"/>
<text x="241.60" y="345.34" text-anchor="middle" dominant-baseline="central" font-size="12"><tspan dy="0.00">2</tspan></text>
<line x1="340.40" y1="329.34" x2="340.40" y2="335.34" stroke="currentColor" stroke-width="1.2"/>
<text x="340.40" y="345.34" text-anchor="middle" dominant-baseline="central" font-size="12"><tspan dy="0.00">3</tspan></text>
<line x1="439.20" y1="329.34" x2="439.20" y2="335.34" stroke="currentColor" stroke-width="1.2"/>
<text x="439.20" y="345.34" text-anchor="middle" dominant-baseline="central" font-size="12"><tspan dy="0.00">4</tspan></text>
<line x1="538.00" y1="329.34" x2="538.00" y2="335.34" stroke="currentColor" stroke-width="1.2"/>
<text x="538.00" y="345.34" text-anchor="middle" dominant-baseline="central" font-size="12"><tspan dy="0.00">5</tspan></text>
<line x1="41.00" y1="276.13" x2="47.00" y2="276.13" stroke="currentColor" stroke-width="1.2"/>
<text x="36.00" y="276.13" text-anchor="end" dominant-baseline="central" font-size="12"><tspan dy="0.00">1</tspan></text>
<line x1="41.00" y1="219.93" x2="47.00" y2="219.93" stroke="currentColor" stroke-width="1.2"/>
<text x="36.00" y="219.93" text-anchor="end" dominant-baseline="central" font-size="12"><tspan dy="0.00">2</tspan></text>
<line x1="41.00" y1="163.72" x2="47.00" y2="163.72" stroke="currentColor" stroke-width="1.2"/>
<text x="36.00" y="163.72" text-anchor="end" dominant-baseline="central" font-size="12"><tspan dy="0.00">3</tspan></text>
<line x1="41.00" y1="107.51" x2="47.00" y2="107.51" stroke="currentColor" stroke-width="1.2"/>
<text x="36.00" y="107.51" text-anchor="end" dominant-baseline="central" font-size="12"><tspan dy="0.00">4</tspan></text>
<line x1="41.00" y1="51.31" x2="47.00" y2="51.31" stroke="currentColor" stroke-width="1.2"/>
<text x="36.00" y="51.31" text-anchor="end" dominant-baseline="central" font-size="12"><tspan dy="0.00">5</tspan></text>
<line x1="44.00" y1="276.13" x2="538.00" y2="276.13" stroke="#888" stroke-width="1" stroke-dasharray="5 4"/>
<polyline points="44.00,276.13 46.06,276.72 48.12,277.29 50.17,277.86 52.23,278.43 54.29,278.99 56.35,279.54 58.41,280.08 60.47,280.62 62.52,281.16 64.58,281.69 66.64,282.21 68.70,282.72 70.76,283.23 72.82,283.74 74.88,284.24 76.93,284.73 78.99,285.21 81.05,285.69 83.11,286.17 85.17,286.64 87.22,287.10 89.28,287.56 91.34,288.01 93.40,288.46 95.46,288.90 97.52,289.33 99.58,289.76 101.63,290.19 103.69,290.61 105.75,291.02 107.81,291.43 109.87,291.83 111.93,292.23 113.98,292.62 116.04,293.01 118.10,293.39 120.16,293.77 122.22,294.14 124.28,294.51 126.33,294.87 128.39,295.23 130.45,295.58 132.51,295.93 134.57,296.27 136.62,296.61 138.68,296.95 140.74,297.28 142.80,297.60 144.86,297.93 146.92,298.24 148.97,298.56 151.03,298.86 153.09,299.17 155.15,299.47 157.21,299.77 159.27,300.06 161.32,300.35 163.38,300.63 165.44,300.91 167.50,301.19 169.56,301.46 171.62,301.73 173.68,302.00 175.73,302.26 177.79,302.52 179.85,302.78 181.91,303.03 183.97,303.28 186.02,303.52 188.08,303.76 190.14,304.00 192.20,304.24 194.26,304.47 196.32,304.70 198.38,304.93 200.43,305.15 202.49,305.37 204.55,305.59 206.61,305.80 208.67,306.02 210.73,306.23 212.78,306.43 214.84,306.64 216.90,306.84 218.96,307.04 221.02,307.23 223.07,307.43 225.13,307.62 227.19,307.80 229.25,307.99 231.31,308.17 233.37,308.36 235.43,308.54 237.48,308.71 239.54,308.89 241.60,309.06 243.66,309.23 245.72,309.40 247.77,309.56 249.83,309.73 251.89,309.89 253.95,310.05 256.01,310.21 258.07,310.37 260.12,310.52 262.18,310.67 264.24,310.82 266.30,310.97 268.36,311.12 270.42,311.26 272.48,311.41 274.53,311.55 276.59,311.69 278.65,311.83 280.71,311.96 282.77,312.10 284.82,312.23 286.88,312.37 288.94,312.50 291.00,312.63 293.06,312.75 295.12,312.88 297.17,313.00 299.23,313.13 301.29,313.25 303.35,313.37 305.41,313.49 307.47,313.61 309.52,313.72 311.58,313.84 313.64,313.95 315.70,314.06 317.76,314.18 319.82,314.29 321.88,314.39 323.93,314.50 325.99,314.61 328.05,314.71 330.11,314.82 332.17,314.92 334.23,315.02 336.28,315.12 338.34,315.22 340.40,315.32 342.46,315.42 344.52,315.52 346.58,315.61 348.63,315.71 350.69,315.80 352.75,315.90 354.81,315.99 356.87,316.08 358.92,316.17 360.98,316.26 363.04,316.35 365.10,316.43 367.16,316.52 369.22,316.60 371.27,316.69 373.33,316.77 375.39,316.86 377.45,316.94 379.51,317.02 381.57,317.10 383.62,317.18 385.68,317.26 387.74,317.34 389.80,317.42 391.86,317.49 393.92,317.57 395.98,317.64 398.03,317.72 400.09,317.79 402.15,317.86 404.21,317.94 406.27,318.01 408.33,318.08 410.38,318.15 412.44,318.22 414.50,318.29 416.56,318.36 418.62,318.43 420.67,318.49 422.73,318.56 424.79,318.63 426.85,318.69 428.91,318.76 430.97,318.82 433.02,318.89 435.08,318.95 437.14,319.01 439.20,319.07 441.26,319.13 443.32,319.20 445.38,319.26 447.43,319.32 449.49,319.38 451.55,319.43 453.61,319.49 455.67,319.55 457.73,319.61 459.78,319.66 461.84,319.72 463.90,319.78 465.96,319.83 468.02,319.89 470.08,319.94 472.13,320.00 474.19,320.05 476.25,320.10 478.31,320.16 480.37,320.21 482.42,320.26 484.48,320.31 486.54,320.36 488.60,320.41 490.66,320.46 492.72,320.51 494.77,320.56 496.83,320.61 498.89,320.66 500.95,320.71 503.01,320.76 505.07,320.80 507.12,320.85 509.18,320.90 511.24,320.95 513.30,320.99 515.36,321.04 517.42,321.08 519.48,321.13 521.53,321.17 523.59,321.22 525.65,321.26 527.71,321.30 529.77,321.35 531.83,321.39 533.88,321.43 535.94,321.48 538.00,321.52" fill="none" stroke="currentColor" stroke-width="2" stroke-linejoin="round" stroke-linecap="round"/>
<polyline points="44.00,276.13 46.06,275.55 48.12,274.95 50.17,274.35 52.23,273.74 54.29,273.13 56.35,272.51 58.41,271.89 60.47,271.26 62.52,270.62 64.58,269.98 66.64,269.33 68.70,268.67 70.76,268.01 72.82,267.34 74.88,266.67 76.93,265.99 78.99,265.31 81.05,264.62 83.11,263.92 85.17,263.22 87.22,262.51 89.28,261.80 91.34,261.08 93.40,260.35 95.46,259.62 97.52,258.89 99.58,258.15 101.63,257.40 103.69,256.65 105.75,255.89 107.81,255.13 109.87,254.36 111.93,253.59 113.98,252.81 116.04,252.02 118.10,251.24 120.16,250.44 122.22,249.64 124.28,248.84 126.33,248.03 128.39,247.22 130.45,246.40 132.51,245.58 134.57,244.75 136.62,243.92 138.68,243.08 140.74,242.24 142.80,241.40 144.86,240.55 146.92,239.69 148.97,238.84 151.03,237.97 153.09,237.11 155.15,236.24 157.21,235.36 159.27,234.48 161.32,233.60 163.38,232.71 165.44,231.82 167.50,230.93 169.56,230.03 171.62,229.13 173.68,228.23 175.73,227.32 177.79,226.41 179.85,225.49 181.91,224.57 183.97,223.65 186.02,222.72 188.08,221.80 190.14,220.86 192.20,219.93 194.26,218.99 196.32,218.05 198.38,217.10 200.43,216.16 202.49,215.21 204.55,214.25 206.61,213.30 208.67,212.34 210.73,211.38 212.78,210.41 214.84,209.44 216.90,208.47 218.96,207.50 221.02,206.53 223.07,205.55 225.13,204.57 227.19,203.59 229.25,202.60 231.31,201.62 233.37,200.63 235.43,199.63 237.48,198.64 239.54,197.64 241.60,196.65 243.66,195.65 245.72,194.64 247.77,193.64 249.83,192.63 251.89,191.62 253.95,190.61 256.01,189.60 258.07,188.58 260.12,187.57 262.18,186.55 264.24,185.53 266.30,184.51 268.36,183.48 270.42,182.46 272.48,181.43 274.53,180.40 276.59,179.37 278.65,178.34 280.71,177.30 282.77,176.27 284.82,175.23 286.88,174.19 288.94,173.15 291.00,172.11 293.06,171.06 295.12,170.02 297.17,168.97 299.23,167.93 301.29,166.88 303.35,165.83 305.41,164.77 307.47,163.72 309.52,162.67 311.58,161.61 313.64,160.55 315.70,159.50 317.76,158.44 319.82,157.37 321.88,156.31 323.93,155.25 325.99,154.19 328.05,153.12 330.11,152.05 332.17,150.99 334.23,149.92 336.28,148.85 338.34,147.78 340.40,146.70 342.46,145.63 344.52,144.56 346.58,143.48 348.63,142.40 350.69,141.33 352.75,140.25 354.81,139.17 356.87,138.09 358.92,137.01 360.98,135.93 363.04,134.84 365.10,133.76 367.16,132.68 369.22,131.59 371.27,130.50 373.33,129.42 375.39,128.33 377.45,127.24 379.51,126.15 381.57,125.06 383.62,123.97 385.68,122.88 387.74,121.78 389.80,120.69 391.86,119.60 393.92,118.50 395.98,117.41 398.03,116.31 400.09,115.21 402.15,114.11 404.21,113.02 406.27,111.92 408.33,110.82 410.38,109.72 412.44,108.62 414.50,107.51 416.56,106.41 418.62,105.31 420.67,104.21 422.73,103.10 424.79,102.00 426.85,100.89 428.91,99.78 430.97,98.68 433.02,97.57 435.08,96.46 437.14,95.35 439.20,94.25 441.26,93.14 443.32,92.03 445.38,90.92 447.43,89.80 449.49,88.69 451.55,87.58 453.61,86.47 455.67,85.36 457.73,84.24 459.78,83.13 461.84,82.01 463.90,80.90 465.96,79.78 468.02,78.67 470.08,77.55 472.13,76.43 474.19,75.32 476.25,74.20 478.31,73.08 480.37,71.96 482.42,70.84 484.48,69.72 486.54,68.60 488.60,67.48 490.66,66.36 492.72,65.24 494.77,64.12 496.83,63.00 498.89,61.88 500.95,60.75 503.01,59.63 505.07,58.51 507.12,57.38 509.18,56.26 511.24,55.13 513.30,54.01 515.36,52.88 517.42,51.76 519.48,50.63 521.53,49.51 523.59,48.38 525.65,47.25 527.71,46.12 529.77,45.00 531.83,43.87 533.88,42.74 535.94,41.61 538.00,40.48" fill="none" stroke="currentColor" stroke-width="2" stroke-linejoin="round" stroke-linecap="round" stroke-dasharray="7 5"/>
<text x="538.00" y="322.34" text-anchor="end" dominant-baseline="central" font-size="15" font-style="italic"><tspan dy="0.00">ω</tspan><tspan dy="4.50" font-size="10.8">c</tspan><tspan dy="-4.50">/ω</tspan><tspan dy="4.50" font-size="10.8">0</tspan></text>
<text x="56.00" y="20.00" text-anchor="start" dominant-baseline="central" font-size="15" font-style="italic"><tspan dy="0.00">ω/ω</tspan><tspan dy="4.50" font-size="10.8">0</tspan></text>
</svg>
