<svg xmlns="http://www.w3.org/2000/svg" viewBox="0 0 837.6 478.6" width="838" height="479" font-family="Georgia, 'Times New Roman', serif">
<line x1="67.60" y1="403.60" x2="67.60" y2="31.60" stroke="currentColor" stroke-width="2" stroke-linecap="round"/>
<line x1="67.60" y1="403.60" x2="53.96" y2="389.96" stroke="currentColor" stroke-width="1.3" stroke-linecap="round"/>
<line x1="67.60" y1="383.76" x2="53.96" y2="370.12" stroke="currentColor" stroke-width="1.3" stroke-linecap="round"/>
<line x1="67.60" y1="363.92" x2="53.96" y2="350.28" stroke="currentColor" stroke-width="1.3" stroke-linecap="round"/>
<line x1="67.60" y1="344.08" x2="53.96" y2="330.44" stroke="currentColor" stroke-width="1.3" stroke-linecap="round"/>
<line x1="67.60" y1="324.24" x2="53.96" y2="310.60" stroke="currentColor" stroke-width="1.3" stroke-linecap="round"/>
<line x1="67.60" y1="304.40" x2="53.96" y2="290.76" stroke="currentColor" stroke-width="1.3" stroke-linecap="round"/>
<line x1="67.60" y1="284.56" x2="53.96" y2="270.92" stroke="currentColor" stroke-width="1.3" stroke-linecap="round"/>
<line x1="67.60" y1="264.72" x2="53.96" y2="251.08" stroke="currentColor" stroke-width="1.3" stroke-linecap="round"/>
<line x1="67.60" y1="244.88" x2="53.96" y2="231.24" stroke="currentColor" stroke-width="1.3" stroke-linecap="round"/>
<line x1="67.60" y1="225.04" x2="53.96" y2="211.40" stroke="currentColor" stroke-width="1.3" stroke-linecap="round"/>
<line x1="67.60" y1="205.20" x2="53.96" y2="191.56" stroke="currentColor" stroke-width="1.3" stroke-linecap="round"/>
<line x1="67.60" y1="185.36" x2="53.96" y2="171.72" stroke="currentColor" stroke-width="1.3" stroke-linecap="round"/>
<line x1="67.60" y1="165.52" x2="53.96" y2="151.88" stroke="currentColor" stroke-width="1.3" stroke-linecap="round"/>
<line x1="67.60" y1="145.68" x2="53.96" y2="132.04" stroke="currentColor" stroke-width="1.3" stroke-linecap="round"/>
<line x1="67.60" y1="125.84" x2="53.96" y2="112.20" stroke="currentColor" stroke-width="1.3" stroke-linecap="round"/>
<line x1="67.60" y1="106.00" x2="53.96" y2="92.36" stroke="currentColor" stroke-width="1.3" stroke-linecap="round"/>
<line x1="67.60" y1="86.16" x2="53.96" y2="72.52" stroke="currentColor" stroke-width="1.3" stroke-linecap="round"/>
<line x1="67.60" y1="66.32" x2="53.96" y2="52.68" stroke="currentColor" stroke-width="1.3" stroke-linecap="round"/>
<line x1="67.60" y1="46.48" x2="53.96" y2="32.84" stroke="currentColor" stroke-width="1.3" stroke-linecap="round"/>
<line x1="67.60" y1="403.60" x2="811.60" y2="403.60" stroke="currentColor" stroke-width="2" stroke-linecap="round"/>
<line x1="67.60" y1="403.60" x2="53.96" y2="417.24" stroke="currentColor" stroke-width="1.3" stroke-linecap="round"/>
<line x1="87.44" y1="403.60" x2="73.80" y2="417.24" stroke="currentColor" stroke-width="1.3" stroke-linecap="round"/>
<line x1="107.28" y1="403.60" x2="93.64" y2="417.24" stroke="currentColor" stroke-width="1.3" stroke-linecap="round"/>
<line x1="127.12" y1="403.60" x2="113.48" y2="417.24" stroke="currentColor" stroke-width="1.3" stroke-linecap="round"/>
<line x1="146.96" y1="403.60" x2="133.32" y2="417.24" stroke="currentColor" stroke-width="1.3" stroke-linecap="round"/>
<line x1="166.80" y1="403.60" x2="153.16" y2="417.24" stroke="currentColor" stroke-width="1.3" stroke-linecap="round"/>
<line x1="186.64" y1="403.60" x2="173.00" y2="417.24" stroke="currentColor" stroke-width="1.3" stroke-linecap="round"/>
<line x1="206.48" y1="403.60" x2="192.84" y2="417.24" stroke="currentColor" stroke-width="1.3" stroke-linecap="round"/>
<line x1="226.32" y1="403.60" x2="212.68" y2="417.24" stroke="currentColor" stroke-width="1.3" stroke-linecap="round"/>
<line x1="246.16" y1="403.60" x2="232.52" y2="417.24" stroke="currentColor" stroke-width="1.3" stroke-linecap="round"/>
<line x1="266.00" y1="403.60" x2="252.36" y2="417.24" stroke="currentColor" stroke-width="1.3" stroke-linecap="round"/>
<line x1="285.84" y1="403.60" x2="272.20" y2="417.24" stroke="currentColor" stroke-width="1.3" stroke-linecap="round"/>
<line x1="305.68" y1="403.60" x2="292.04" y2="417.24" stroke="currentColor" stroke-width="1.3" stroke-linecap="round"/>
<line x1="325.52" y1="403.60" x2="311.88" y2="417.24" stroke="currentColor" stroke-width="1.3" stroke-linecap="round"/>
<line x1="345.36" y1="403.60" x2="331.72" y2="417.24" stroke="currentColor" stroke-width="1.3" stroke-linecap="round"/>
<line x1="365.20" y1="403.60" x2="351.56" y2="417.24" stroke="currentColor" stroke-width="1.3" stroke-linecap="round"/>
<line x1="385.04" y1="403.60" x2="371.40" y2="417.24" stroke="currentColor" stroke-width="1.3" stroke-linecap="round"/>
<line x1="404.88" y1="403.60" x2="391.24" y2="417.24" stroke="currentColor" stroke-width="1.3" stroke-linecap="round"/>
<line x1="424.72" y1="403.60" x2="411.08" y2="417.24" stroke="currentColor" stroke-width="1.3" stroke-linecap="round"/>
<line x1="444.56" y1="403.60" x2="430.92" y2="417.24" stroke="currentColor" stroke-width="1.3" stroke-linecap="round"/>
<line x1="464.40" y1="403.60" x2="450.76" y2="417.24" stroke="currentColor" stroke-width="1.3" stroke-linecap="round"/>
<line x1="484.24" y1="403.60" x2="470.60" y2="417.24" stroke="currentColor" stroke-width="1.3" stroke-linecap="round"/>
<line x1="504.08" y1="403.60" x2="490.44" y2="417.24" stroke="currentColor" stroke-width="1.3" stroke-linecap="round"/>
<line x1="523.92" y1="403.60" x2="510.28" y2="417.24" stroke="currentColor" stroke-width="1.3" stroke-linecap="round"/>
<line x1="543.76" y1="403.60" x2="530.12" y2="417.24" stroke="currentColor" stroke-width="1.3" stroke-linecap="round"/>
<line x1="563.60" y1="403.60" x2="549.96" y2="417.24" stroke="currentColor" stroke-width="1.3" stroke-linecap="round"/>
<line x1="583.44" y1="403.60" x2="569.80" y2="417.24" stroke="currentColor" stroke-width="1.3" stroke-linecap="round"/>
<line x1="603.28" y1="403.60" x2="589.64" y2="417.24" stroke="currentColor" stroke-width="1.3" stroke-linecap="round"/>
<line x1="623.12" y1="403.60" x2="609.48" y2="417.24" stroke="currentColor" stroke-width="1.3" stroke-linecap="round"/>
<line x1="642.96" y1="403.60" x2="629.32" y2="417.24" stroke="currentColor" stroke-width="1.3" stroke-linecap="round"/>
<line x1="662.80" y1="403.60" x2="649.16" y2="417.24" stroke="currentColor" stroke-width="1.3" stroke-linecap="round"/>
<line x1="682.64" y1="403.60" x2="669.00" y2="417.24" stroke="currentColor" stroke-width="1.3" stroke-linecap="round"/>
<line x1="702.48" y1="403.60" x2="688.84" y2="417.24" stroke="currentColor" stroke-width="1.3" stroke-linecap="round"/>
<line x1="722.32" y1="403.60" x2="708.68" y2="417.24" stroke="currentColor" stroke-width="1.3" stroke-linecap="round"/>
<line x1="742.16" y1="403.60" x2="728.52" y2="417.24" stroke="currentColor" stroke-width="1.3" stroke-linecap="round"/>
<line x1="762.00" y1="403.60" x2="748.36" y2="417.24" stroke="currentColor" stroke-width="1.3" stroke-linecap="round"/>
<line x1="781.84" y1="403.60" x2="768.20" y2="417.24" stroke="currentColor" stroke-width="1.3" stroke-linecap="round"/>
<line x1="801.68" y1="403.60" x2="788.04" y2="417.24" stroke="currentColor" stroke-width="1.3" stroke-linecap="round"/>
<path d="M 117.20 186.60 C 124.64 168.19 109.76 158.70 117.20 149.77 Q 124.64 138.61 117.20 130.80" fill="none" stroke="currentColor" stroke-width="1.3" stroke-linejoin="round" stroke-linecap="round"/><polygon points="117.20,130.80 127.14,135.14 121.06,140.94" fill="currentColor"/>
<path d="M 142.00 186.60 C 149.44 168.19 134.56 158.70 142.00 149.77 Q 149.44 138.61 142.00 130.80" fill="none" stroke="currentColor" stroke-width="1.3" stroke-linejoin="round" stroke-linecap="round"/><polygon points="142.00,130.80 151.94,135.14 145.86,140.94" fill="currentColor"/>
<path d="M 166.80 186.60 C 174.24 168.19 159.36 158.70 166.80 149.77 Q 174.24 138.61 166.80 130.80" fill="none" stroke="currentColor" stroke-width="1.3" stroke-linejoin="round" stroke-linecap="round"/><polygon points="166.80,130.80 176.74,135.14 170.66,140.94" fill="currentColor"/>
<text class="mtph-lbl" x="26.00" y="81.20" text-anchor="start" dominant-baseline="central" font-size="18" font-style="italic" fill="#ffffff" stroke="#ffffff" stroke-width="3.2" stroke-linejoin="round"><tspan dy="0.00">T</tspan><tspan dy="5.40" font-size="13.0">0</tspan></text><text x="26.00" y="81.20" text-anchor="start" dominant-baseline="central" font-size="18" font-style="italic" fill="currentColor"><tspan dy="0.00">T</tspan><tspan dy="5.40" font-size="13.0">0</tspan></text>
<text class="mtph-lbl" x="26.00" y="354.00" text-anchor="start" dominant-baseline="central" font-size="18" font-style="italic" fill="#ffffff" stroke="#ffffff" stroke-width="3.2" stroke-linejoin="round"><tspan dy="0.00">T</tspan><tspan dy="5.40" font-size="13.0">m</tspan></text><text x="26.00" y="354.00" text-anchor="start" dominant-baseline="central" font-size="18" font-style="italic" fill="currentColor"><tspan dy="0.00">T</tspan><tspan dy="5.40" font-size="13.0">m</tspan></text>
<path d="M 67.60 93.60 C 179.20 106.00 266.00 155.60 315.60 248.60 C 346.60 304.40 365.20 341.60 377.60 372.60" fill="none" stroke="currentColor" stroke-width="1.5" stroke-linejoin="round" stroke-linecap="round"/>
<text class="mtph-lbl" x="230.60" y="217.60" text-anchor="start" dominant-baseline="central" font-size="18" font-style="italic" fill="#ffffff" stroke="#ffffff" stroke-width="3.2" stroke-linejoin="round"><tspan dy="0.00">T(x,t</tspan><tspan dy="5.40" font-size="13.0">1</tspan><tspan dy="-5.40">)</tspan></text><text x="230.60" y="217.60" text-anchor="start" dominant-baseline="central" font-size="18" font-style="italic" fill="currentColor"><tspan dy="0.00">T(x,t</tspan><tspan dy="5.40" font-size="13.0">1</tspan><tspan dy="-5.40">)</tspan></text>
<path d="M 67.60 93.60 C 284.60 99.80 439.60 143.20 532.60 217.60 C 594.60 267.20 638.00 329.20 656.60 372.60" fill="none" stroke="currentColor" stroke-width="1.5" stroke-linejoin="round" stroke-linecap="round"/>
<text class="mtph-lbl" x="385.60" y="199.00" text-anchor="start" dominant-baseline="central" font-size="18" font-style="italic" fill="#ffffff" stroke="#ffffff" stroke-width="3.2" stroke-linejoin="round"><tspan dy="0.00">T(x,t</tspan><tspan dy="5.40" font-size="13.0">2</tspan><tspan dy="-5.40">)</tspan></text><text x="385.60" y="199.00" text-anchor="start" dominant-baseline="central" font-size="18" font-style="italic" fill="currentColor"><tspan dy="0.00">T(x,t</tspan><tspan dy="5.40" font-size="13.0">2</tspan><tspan dy="-5.40">)</tspan></text>
<line x1="377.60" y1="403.60" x2="377.60" y2="354.00" stroke="currentColor" stroke-width="2" stroke-linecap="round" stroke-dasharray="7 5"/>
<text class="mtph-lbl" x="377.60" y="434.60" text-anchor="middle" dominant-baseline="central" font-size="18" font-style="italic" fill="#ffffff" stroke="#ffffff" stroke-width="3.2" stroke-linejoin="round"><tspan dy="0.00">s(t</tspan><tspan dy="5.40" font-size="13.0">1</tspan><tspan dy="-5.40">)</tspan></text><text x="377.60" y="434.60" text-anchor="middle" dominant-baseline="central" font-size="18" font-style="italic" fill="currentColor"><tspan dy="0.00">s(t</tspan><tspan dy="5.40" font-size="13.0">1</tspan><tspan dy="-5.40">)</tspan></text>
<line x1="656.60" y1="403.60" x2="656.60" y2="354.00" stroke="currentColor" stroke-width="2" stroke-linecap="round" stroke-dasharray="7 5"/>
<text class="mtph-lbl" x="656.60" y="434.60" text-anchor="middle" dominant-baseline="central" font-size="18" font-style="italic" fill="#ffffff" stroke="#ffffff" stroke-width="3.2" stroke-linejoin="round"><tspan dy="0.00">s(t</tspan><tspan dy="5.40" font-size="13.0">2</tspan><tspan dy="-5.40">)</tspan></text><text x="656.60" y="434.60" text-anchor="middle" dominant-baseline="central" font-size="18" font-style="italic" fill="currentColor"><tspan dy="0.00">s(t</tspan><tspan dy="5.40" font-size="13.0">2</tspan><tspan dy="-5.40">)</tspan></text>
<polygon points="191.60,313.70 625.60,313.70 625.60,344.70 191.60,344.70" fill="#cccccc" stroke="currentColor" stroke-width="2" stroke-linejoin="round"/>
<text class="mtph-lbl" x="625.60" y="313.70" text-anchor="middle" dominant-baseline="central" font-size="18" font-style="italic" fill="#ffffff" stroke="#ffffff" stroke-width="3.2" stroke-linejoin="round"><tspan dy="0.00">undisturbed ($T = T</tspan><tspan dy="5.40" font-size="13.0">m</tspan><tspan dy="-5.40">$)</tspan></text><text x="625.60" y="313.70" text-anchor="middle" dominant-baseline="central" font-size="18" font-style="italic" fill="currentColor"><tspan dy="0.00">undisturbed ($T = T</tspan><tspan dy="5.40" font-size="13.0">m</tspan><tspan dy="-5.40">$)</tspan></text>
<line x1="92.40" y1="93.60" x2="191.60" y2="93.60" stroke="currentColor" stroke-width="2" stroke-linecap="round"/><polygon points="191.60,93.60 181.60,97.80 181.60,89.40" fill="currentColor"/>
<text class="mtph-lbl" x="207.60" y="93.60" text-anchor="start" dominant-baseline="central" font-size="18" font-style="italic" fill="#ffffff" stroke="#ffffff" stroke-width="3.2" stroke-linejoin="round"><tspan dy="0.00">q̇</tspan></text><text x="207.60" y="93.60" text-anchor="start" dominant-baseline="central" font-size="18" font-style="italic" fill="currentColor"><tspan dy="0.00">q̇</tspan></text>
<text class="mtph-lbl" x="315.60" y="44.00" text-anchor="middle" dominant-baseline="central" font-size="18" font-style="italic" fill="#ffffff" stroke="#ffffff" stroke-width="3.2" stroke-linejoin="round"><tspan dy="0.00">heated region</tspan></text><text x="315.60" y="44.00" text-anchor="middle" dominant-baseline="central" font-size="18" font-style="italic" fill="currentColor"><tspan dy="0.00">heated region</tspan></text>
<text class="mtph-lbl" x="315.60" y="168.00" text-anchor="middle" dominant-baseline="central" font-size="18" font-style="italic" fill="#ffffff" stroke="#ffffff" stroke-width="3.2" stroke-linejoin="round"><tspan dy="0.00">κ(T) ∝ T</tspan><tspan dy="-7.56" font-size="13.0">p</tspan></text><text x="315.60" y="168.00" text-anchor="middle" dominant-baseline="central" font-size="18" font-style="italic" fill="currentColor"><tspan dy="0.00">κ(T) ∝ T</tspan><tspan dy="-7.56" font-size="13.0">p</tspan></text>
<circle cx="377.60" cy="378.80" r="3.41" fill="currentColor" stroke="currentColor" stroke-width="1"/>
<circle cx="656.60" cy="378.80" r="3.41" fill="currentColor" stroke="currentColor" stroke-width="1"/>
</svg>
