<svg xmlns="http://www.w3.org/2000/svg" viewBox="0 0 560 380" width="560" height="380" fill="currentColor" font-family="Georgia, 'Times New Roman', serif">
<line x1="44.00" y1="18.00" x2="44.00" y2="344.00" stroke="#e6e6e6" stroke-width="1"/>
<line x1="105.75" y1="18.00" x2="105.75" y2="344.00" stroke="#e6e6e6" stroke-width="1"/>
<line x1="167.50" y1="18.00" x2="167.50" y2="344.00" stroke="#e6e6e6" stroke-width="1"/>
<line x1="229.25" y1="18.00" x2="229.25" y2="344.00" stroke="#e6e6e6" stroke-width="1"/>
<line x1="291.00" y1="18.00" x2="291.00" y2="344.00" stroke="#e6e6e6" stroke-width="1"/>
<line x1="352.75" y1="18.00" x2="352.75" y2="344.00" stroke="#e6e6e6" stroke-width="1"/>
<line x1="414.50" y1="18.00" x2="414.50" y2="344.00" stroke="#e6e6e6" stroke-width="1"/>
<line x1="476.25" y1="18.00" x2="476.25" y2="344.00" stroke="#e6e6e6" stroke-width="1"/>
<line x1="538.00" y1="18.00" x2="538.00" y2="344.00" stroke="#e6e6e6" stroke-width="1"/>
<line x1="44.00" y1="335.57" x2="538.00" y2="335.57" stroke="#e6e6e6" stroke-width="1"/>
<line x1="44.00" y1="293.41" x2="538.00" y2="293.41" stroke="#e6e6e6" stroke-width="1"/>
<line x1="44.00" y1="251.26" x2="538.00" y2="251.26" stroke="#e6e6e6" stroke-width="1"/>
<line x1="44.00" y1="209.10" x2="538.00" y2="209.10" stroke="#e6e6e6" stroke-width="1"/>
<line x1="44.00" y1="166.95" x2="538.00" y2="166.95" stroke="#e6e6e6" stroke-width="1"/>
<line x1="44.00" y1="124.79" x2="538.00" y2="124.79" stroke="#e6e6e6" stroke-width="1"/>
<line x1="44.00" y1="82.64" x2="538.00" y2="82.64" stroke="#e6e6e6" stroke-width="1"/>
<line x1="44.00" y1="40.48" x2="538.00" y2="40.48" stroke="#e6e6e6" stroke-width="1"/>
<line x1="44.00" y1="251.26" x2="538.00" y2="251.26" stroke="currentColor" stroke-width="1.4"/>
<line x1="44.00" y1="18.00" x2="44.00" y2="344.00" stroke="currentColor" stroke-width="1.4"/>
<line x1="105.75" y1="248.26" x2="105.75" y2="254.26" stroke="currentColor" stroke-width="1.2"/>
<text x="105.75" y="264.26" text-anchor="middle" dominant-baseline="central" font-size="12"><tspan dy="0.00">0.5</tspan></text>
<line x1="167.50" y1="248.26" x2="167.50" y2="254.26" stroke="currentColor" stroke-width="1.2"/>
<text x="167.50" y="264.26" text-anchor="middle" dominant-baseline="central" font-size="12"><tspan dy="0.00">1</tspan></text>
<line x1="229.25" y1="248.26" x2="229.25" y2="254.26" stroke="currentColor" stroke-width="1.2"/>
<text x="229.25" y="264.26" text-anchor="middle" dominant-baseline="central" font-size="12"><tspan dy="0.00">1.5</tspan></text>
<line x1="291.00" y1="248.26" x2="291.00" y2="254.26" stroke="currentColor" stroke-width="1.2"/>
<text x="291.00" y="264.26" text-anchor="middle" dominant-baseline="central" font-size="12"><tspan dy="0.00">2</tspan></text>
<line x1="352.75" y1="248.26" x2="352.75" y2="254.26" stroke="currentColor" stroke-width="1.2"/>
<text x="352.75" y="264.26" text-anchor="middle" dominant-baseline="central" font-size="12"><tspan dy="0.00">2.5</tspan></text>
<line x1="414.50" y1="248.26" x2="414.50" y2="254.26" stroke="currentColor" stroke-width="1.2"/>
<text x="414.50" y="264.26" text-anchor="middle" dominant-baseline="central" font-size="12"><tspan dy="0.00">3</tspan></text>
<line x1="476.25" y1="248.26" x2="476.25" y2="254.26" stroke="currentColor" stroke-width="1.2"/>
<text x="476.25" y="264.26" text-anchor="middle" dominant-baseline="central" font-size="12"><tspan dy="0.00">3.5</tspan></text>
<line x1="538.00" y1="248.26" x2="538.00" y2="254.26" stroke="currentColor" stroke-width="1.2"/>
<text x="538.00" y="264.26" text-anchor="middle" dominant-baseline="central" font-size="12"><tspan dy="0.00">4</tspan></text>
<line x1="41.00" y1="335.57" x2="47.00" y2="335.57" stroke="currentColor" stroke-width="1.2"/>
<text x="36.00" y="335.57" text-anchor="end" dominant-baseline="central" font-size="12"><tspan dy="0.00">-0.4</tspan></text>
<line x1="41.00" y1="293.41" x2="47.00" y2="293.41" stroke="currentColor" stroke-width="1.2"/>
<text x="36.00" y="293.41" text-anchor="end" dominant-baseline="central" font-size="12"><tspan dy="0.00">-0.2</tspan></text>
<line x1="41.00" y1="209.10" x2="47.00" y2="209.10" stroke="currentColor" stroke-width="1.2"/>
<text x="36.00" y="209.10" text-anchor="end" dominant-baseline="central" font-size="12"><tspan dy="0.00">0.2</tspan></text>
<line x1="41.00" y1="166.95" x2="47.00" y2="166.95" stroke="currentColor" stroke-width="1.2"/>
<text x="36.00" y="166.95" text-anchor="end" dominant-baseline="central" font-size="12"><tspan dy="0.00">0.4</tspan></text>
<line x1="41.00" y1="124.79" x2="47.00" y2="124.79" stroke="currentColor" stroke-width="1.2"/>
<text x="36.00" y="124.79" text-anchor="end" dominant-baseline="central" font-size="12"><tspan dy="0.00">0.6</tspan></text>
<line x1="41.00" y1="82.64" x2="47.00" y2="82.64" stroke="currentColor" stroke-width="1.2"/>
<text x="36.00" y="82.64" text-anchor="end" dominant-baseline="central" font-size="12"><tspan dy="0.00">0.8</tspan></text>
<line x1="41.00" y1="40.48" x2="47.00" y2="40.48" stroke="currentColor" stroke-width="1.2"/>
<text x="36.00" y="40.48" text-anchor="end" dominant-baseline="central" font-size="12"><tspan dy="0.00">1</tspan></text>
<polyline points="44.00,40.48 46.06,40.50 48.12,40.54 50.17,40.61 52.23,40.72 54.29,40.85 56.35,41.01 58.41,41.20 60.47,41.42 62.52,41.67 64.58,41.94 66.64,42.25 68.70,42.58 70.76,42.94 72.82,43.33 74.88,43.75 76.93,44.20 78.99,44.67 81.05,45.17 83.11,45.70 85.17,46.26 87.22,46.84 89.28,47.45 91.34,48.09 93.40,48.75 95.46,49.44 97.52,50.15 99.58,50.89 101.63,51.65 103.69,52.44 105.75,53.25 107.81,54.09 109.87,54.95 111.93,55.83 113.98,56.74 116.04,57.67 118.10,58.62 120.16,59.60 122.22,60.59 124.28,61.61 126.33,62.65 128.39,63.71 130.45,64.78 132.51,65.88 134.57,67.00 136.62,68.13 138.68,69.29 140.74,70.46 142.80,71.65 144.86,72.85 146.92,74.08 148.97,75.31 151.03,76.57 153.09,77.84 155.15,79.12 157.21,80.42 159.27,81.73 161.32,83.06 163.38,84.39 165.44,85.74 167.50,87.11 169.56,88.48 171.62,89.86 173.68,91.26 175.73,92.66 177.79,94.08 179.85,95.50 181.91,96.93 183.97,98.37 186.02,99.82 188.08,101.28 190.14,102.74 192.20,104.21 194.26,105.68 196.32,107.16 198.38,108.64 200.43,110.13 202.49,111.62 204.55,113.11 206.61,114.61 208.67,116.11 210.73,117.62 212.78,119.12 214.84,120.63 216.90,122.13 218.96,123.64 221.02,125.14 223.07,126.65 225.13,128.16 227.19,129.66 229.25,131.16 231.31,132.66 233.37,134.16 235.43,135.65 237.48,137.15 239.54,138.63 241.60,140.12 243.66,141.60 245.72,143.07 247.77,144.54 249.83,146.01 251.89,147.47 253.95,148.92 256.01,150.37 258.07,151.81 260.12,153.24 262.18,154.66 264.24,156.08 266.30,157.49 268.36,158.90 270.42,160.29 272.48,161.68 274.53,163.05 276.59,164.42 278.65,165.78 280.71,167.13 282.77,168.47 284.82,169.79 286.88,171.11 288.94,172.42 291.00,173.72 293.06,175.01 295.12,176.28 297.17,177.55 299.23,178.80 301.29,180.04 303.35,181.27 305.41,182.49 307.47,183.70 309.52,184.89 311.58,186.08 313.64,187.25 315.70,188.41 317.76,189.55 319.82,190.69 321.88,191.81 323.93,192.91 325.99,194.01 328.05,195.09 330.11,196.16 332.17,197.22 334.23,198.27 336.28,199.30 338.34,200.31 340.40,201.32 342.46,202.31 344.52,203.29 346.58,204.26 348.63,205.21 350.69,206.15 352.75,207.08 354.81,207.99 356.87,208.89 358.92,209.78 360.98,210.66 363.04,211.52 365.10,212.37 367.16,213.20 369.22,214.03 371.27,214.84 373.33,215.63 375.39,216.42 377.45,217.19 379.51,217.95 381.57,218.70 383.62,219.44 385.68,220.16 387.74,220.87 389.80,221.57 391.86,222.26 393.92,222.93 395.98,223.59 398.03,224.24 400.09,224.88 402.15,225.51 404.21,226.13 406.27,226.73 408.33,227.33 410.38,227.91 412.44,228.48 414.50,229.04 416.56,229.59 418.62,230.13 420.67,230.66 422.73,231.18 424.79,231.69 426.85,232.19 428.91,232.67 430.97,233.15 433.02,233.62 435.08,234.08 437.14,234.53 439.20,234.96 441.26,235.39 443.32,235.82 445.38,236.23 447.43,236.63 449.49,237.02 451.55,237.41 453.61,237.79 455.67,238.15 457.73,238.51 459.78,238.86 461.84,239.21 463.90,239.54 465.96,239.87 468.02,240.19 470.08,240.51 472.13,240.81 474.19,241.11 476.25,241.40 478.31,241.68 480.37,241.96 482.42,242.23 484.48,242.50 486.54,242.75 488.60,243.00 490.66,243.25 492.72,243.49 494.77,243.72 496.83,243.95 498.89,244.17 500.95,244.38 503.01,244.59 505.07,244.79 507.12,244.99 509.18,245.19 511.24,245.37 513.30,245.56 515.36,245.73 517.42,245.91 519.48,246.08 521.53,246.24 523.59,246.40 525.65,246.56 527.71,246.71 529.77,246.85 531.83,246.99 533.88,247.13 535.94,247.27 538.00,247.40" fill="none" stroke="currentColor" stroke-width="2" stroke-linejoin="round" stroke-linecap="round"/>
<polyline points="44.00,40.48 46.06,41.65 48.12,42.82 50.17,44.00 52.23,45.17 54.29,46.34 56.35,47.51 58.41,48.68 60.47,49.85 62.52,51.02 64.58,52.19 66.64,53.36 68.70,54.53 70.76,55.71 72.82,56.88 74.88,58.05 76.93,59.22 78.99,60.39 81.05,61.56 83.11,62.73 85.17,63.90 87.22,65.07 89.28,66.24 91.34,67.42 93.40,68.59 95.46,69.76 97.52,70.93 99.58,72.10 101.63,73.27 103.69,74.44 105.75,75.61 107.81,76.78 109.87,77.95 111.93,79.12 113.98,80.30 116.04,81.47 118.10,82.64 120.16,83.81 122.22,84.98 124.28,86.15 126.33,87.32 128.39,88.49 130.45,89.66 132.51,90.83 134.57,92.01 136.62,93.18 138.68,94.35 140.74,95.52 142.80,96.69 144.86,97.86 146.92,99.03 148.97,100.20 151.03,101.37 153.09,102.54 155.15,103.72 157.21,104.89 159.27,106.06 161.32,107.23 163.38,108.40 165.44,109.57 167.50,110.74 169.56,111.91 171.62,113.08 173.68,114.25 175.73,115.43 177.79,116.60 179.85,117.77 181.91,118.94 183.97,120.11 186.02,121.28 188.08,122.45 190.14,123.62 192.20,124.79 194.26,125.96 196.32,127.14 198.38,128.31 200.43,129.48 202.49,130.65 204.55,131.82 206.61,132.99 208.67,134.16 210.73,135.33 212.78,136.50 214.84,137.67 216.90,138.84 218.96,140.02 221.02,141.19 223.07,142.36 225.13,143.53 227.19,144.70 229.25,145.87 231.31,147.04 233.37,148.21 235.43,149.38 237.48,150.55 239.54,151.73 241.60,152.90 243.66,154.07 245.72,155.24 247.77,156.41 249.83,157.58 251.89,158.75 253.95,159.92 256.01,161.09 258.07,162.26 260.12,163.44 262.18,164.61 264.24,165.78 266.30,166.95 268.36,168.12 270.42,169.29 272.48,170.46 274.53,171.63 276.59,172.80 278.65,173.97 280.71,175.15 282.77,176.32 284.82,177.49 286.88,178.66 288.94,179.83 291.00,181.00 293.06,182.17 295.12,183.34 297.17,184.51 299.23,185.68 301.29,186.85 303.35,188.03 305.41,189.20 307.47,190.37 309.52,191.54 311.58,192.71 313.64,193.88 315.70,195.05 317.76,196.22 319.82,197.39 321.88,198.56 323.93,199.74 325.99,200.91 328.05,202.08 330.11,203.25 332.17,204.42 334.23,205.59 336.28,206.76 338.34,207.93 340.40,209.10 342.46,210.27 344.52,211.45 346.58,212.62 348.63,213.79 350.69,214.96 352.75,216.13 354.81,217.30 356.87,218.47 358.92,219.64 360.98,220.81 363.04,221.98 365.10,223.16 367.16,224.33 369.22,225.50 371.27,226.67 373.33,227.84 375.39,229.01 377.45,230.18 379.51,231.35 381.57,232.52 383.62,233.69 385.68,234.86 387.74,236.04 389.80,237.21 391.86,238.38 393.92,239.55 395.98,240.72 398.03,241.89 400.09,243.06 402.15,244.23 404.21,245.40 406.27,246.57 408.33,247.75 410.38,248.92 412.44,250.09 414.50,251.26 416.56,252.43 418.62,253.60 420.67,254.77 422.73,255.94 424.79,257.11 426.85,258.28 428.91,259.46 430.97,260.63 433.02,261.80 435.08,262.97 437.14,264.14 439.20,265.31 441.26,266.48 443.32,267.65 445.38,268.82 447.43,269.99 449.49,271.17 451.55,272.34 453.61,273.51 455.67,274.68 457.73,275.85 459.78,277.02 461.84,278.19 463.90,279.36 465.96,280.53 468.02,281.70 470.08,282.88 472.13,284.05 474.19,285.22 476.25,286.39 478.31,287.56 480.37,288.73 482.42,289.90 484.48,291.07 486.54,292.24 488.60,293.41 490.66,294.58 492.72,295.76 494.77,296.93 496.83,298.10 498.89,299.27 500.95,300.44 503.01,301.61 505.07,302.78 507.12,303.95 509.18,305.12 511.24,306.29 513.30,307.47 515.36,308.64 517.42,309.81 519.48,310.98 521.53,312.15 523.59,313.32 525.65,314.49 527.71,315.66 529.77,316.83 531.83,318.00 533.88,319.18 535.94,320.35 538.00,321.52" fill="none" stroke="currentColor" stroke-width="2" stroke-linejoin="round" stroke-linecap="round" stroke-dasharray="7 5"/>
<circle cx="229.25" cy="131.16" r="3.4" fill="currentColor"/>
<text x="237.25" y="123.16" text-anchor="start" dominant-baseline="central" font-size="14" font-style="italic"><tspan dy="0.00">η</tspan><tspan dy="4.20" font-size="10.1">s</tspan></text>
<text x="538.00" y="241.26" text-anchor="end" dominant-baseline="central" font-size="15" font-style="italic"><tspan dy="0.00">η</tspan></text>
<text x="56.00" y="20.00" text-anchor="start" dominant-baseline="central" font-size="15" font-style="italic"><tspan dy="0.00">e</tspan><tspan dy="-6.30" font-size="10.8">-η^2/4</tspan></text>
</svg>
