<svg xmlns="http://www.w3.org/2000/svg" viewBox="0 0 254.0 269.9" width="254" height="270" font-family="Georgia, 'Times New Roman', serif">
<g>
<line x1="91.83" y1="58.46" x2="91.83" y2="219.66" stroke="#888888" stroke-width="1.3" stroke-linecap="round" stroke-dasharray="7 5"/>
<line x1="91.83" y1="58.46" x2="152.22" y2="207.93" stroke="currentColor" stroke-width="2" stroke-linecap="round"/>
<circle cx="91.83" cy="58.46" r="3.10" fill="currentColor" stroke="currentColor" stroke-width="2"/>
<circle cx="152.22" cy="207.93" r="18.60" fill="#ffffff" class="mtph-pp" stroke="currentColor" stroke-width="2"/>
<polyline points="91.83,110.05 94.31,109.99 96.78,109.81 99.23,109.51 101.67,109.10 104.09,108.57 106.48,107.92 108.84,107.16 111.16,106.29" fill="none" stroke="currentColor" stroke-width="1.3" stroke-linejoin="round" stroke-linecap="round"/>
<animateTransform attributeName="transform" attributeType="XML" type="rotate" values="0 91.83 58.46;-22 91.83 58.46;0 91.83 58.46;22 91.83 58.46;0 91.83 58.46" keyTimes="0;0.25;0.5;0.75;1" calcMode="spline" keySplines="0.42 0 0.58 1;0.42 0 0.58 1;0.42 0 0.58 1;0.42 0 0.58 1" dur="2s" repeatCount="indefinite"/>
</g>
<line x1="116.63" y1="58.46" x2="116.63" y2="58.46" stroke="#888888" stroke-width="1.3" stroke-linecap="round"/>
<line x1="116.63" y1="219.66" x2="116.63" y2="219.66" stroke="#888888" stroke-width="1.3" stroke-linecap="round"/>
<line x1="116.63" y1="58.46" x2="116.63" y2="219.66" stroke="currentColor" stroke-width="1.3" stroke-linecap="round"/><polygon points="116.63,219.66 112.43,209.66 120.83,209.66" fill="currentColor"/><polygon points="116.63,58.46 120.83,68.46 112.43,68.46" fill="currentColor"/>
<text class="mtph-lbl" x="130.63" y="139.06" text-anchor="middle" dominant-baseline="central" font-size="18" font-style="italic" fill="#ffffff" stroke="#ffffff" stroke-width="3.2" stroke-linejoin="round"><tspan dy="0.00">L</tspan></text><text x="130.63" y="139.06" text-anchor="middle" dominant-baseline="central" font-size="18" font-style="italic" fill="currentColor"><tspan dy="0.00">L</tspan></text>
</svg>
