<svg xmlns="http://www.w3.org/2000/svg" viewBox="0 0 560 380" width="560" height="380" fill="currentColor" font-family="Georgia, 'Times New Roman', serif">
<line x1="46.49" y1="18.00" x2="46.49" y2="344.00" stroke="#e6e6e6" stroke-width="1"/>
<line x1="154.24" y1="18.00" x2="154.24" y2="344.00" stroke="#e6e6e6" stroke-width="1"/>
<line x1="261.99" y1="18.00" x2="261.99" y2="344.00" stroke="#e6e6e6" stroke-width="1"/>
<line x1="369.74" y1="18.00" x2="369.74" y2="344.00" stroke="#e6e6e6" stroke-width="1"/>
<line x1="477.49" y1="18.00" x2="477.49" y2="344.00" stroke="#e6e6e6" stroke-width="1"/>
<line x1="44.00" y1="342.63" x2="538.00" y2="342.63" stroke="#e6e6e6" stroke-width="1"/>
<line x1="44.00" y1="288.75" x2="538.00" y2="288.75" stroke="#e6e6e6" stroke-width="1"/>
<line x1="44.00" y1="234.88" x2="538.00" y2="234.88" stroke="#e6e6e6" stroke-width="1"/>
<line x1="44.00" y1="181.00" x2="538.00" y2="181.00" stroke="#e6e6e6" stroke-width="1"/>
<line x1="44.00" y1="127.12" x2="538.00" y2="127.12" stroke="#e6e6e6" stroke-width="1"/>
<line x1="44.00" y1="73.25" x2="538.00" y2="73.25" stroke="#e6e6e6" stroke-width="1"/>
<line x1="44.00" y1="19.37" x2="538.00" y2="19.37" stroke="#e6e6e6" stroke-width="1"/>
<line x1="44.00" y1="181.00" x2="538.00" y2="181.00" stroke="currentColor" stroke-width="1.4"/>
<line x1="261.99" y1="18.00" x2="261.99" y2="344.00" stroke="currentColor" stroke-width="1.4"/>
<line x1="46.49" y1="178.00" x2="46.49" y2="184.00" stroke="currentColor" stroke-width="1.2"/>
<text x="46.49" y="194.00" text-anchor="middle" dominant-baseline="central" font-size="12"><tspan dy="0.00">-2</tspan></text>
<line x1="154.24" y1="178.00" x2="154.24" y2="184.00" stroke="currentColor" stroke-width="1.2"/>
<text x="154.24" y="194.00" text-anchor="middle" dominant-baseline="central" font-size="12"><tspan dy="0.00">-1</tspan></text>
<line x1="369.74" y1="178.00" x2="369.74" y2="184.00" stroke="currentColor" stroke-width="1.2"/>
<text x="369.74" y="194.00" text-anchor="middle" dominant-baseline="central" font-size="12"><tspan dy="0.00">1</tspan></text>
<line x1="477.49" y1="178.00" x2="477.49" y2="184.00" stroke="currentColor" stroke-width="1.2"/>
<text x="477.49" y="194.00" text-anchor="middle" dominant-baseline="central" font-size="12"><tspan dy="0.00">2</tspan></text>
<line x1="258.99" y1="342.63" x2="264.99" y2="342.63" stroke="currentColor" stroke-width="1.2"/>
<text x="253.99" y="342.63" text-anchor="end" dominant-baseline="central" font-size="12"><tspan dy="0.00">-1.5</tspan></text>
<line x1="258.99" y1="288.75" x2="264.99" y2="288.75" stroke="currentColor" stroke-width="1.2"/>
<text x="253.99" y="288.75" text-anchor="end" dominant-baseline="central" font-size="12"><tspan dy="0.00">-1</tspan></text>
<line x1="258.99" y1="234.88" x2="264.99" y2="234.88" stroke="currentColor" stroke-width="1.2"/>
<text x="253.99" y="234.88" text-anchor="end" dominant-baseline="central" font-size="12"><tspan dy="0.00">-0.5</tspan></text>
<line x1="258.99" y1="127.12" x2="264.99" y2="127.12" stroke="currentColor" stroke-width="1.2"/>
<text x="253.99" y="127.12" text-anchor="end" dominant-baseline="central" font-size="12"><tspan dy="0.00">0.5</tspan></text>
<line x1="258.99" y1="73.25" x2="264.99" y2="73.25" stroke="currentColor" stroke-width="1.2"/>
<text x="253.99" y="73.25" text-anchor="end" dominant-baseline="central" font-size="12"><tspan dy="0.00">1</tspan></text>
<line x1="258.99" y1="19.37" x2="264.99" y2="19.37" stroke="currentColor" stroke-width="1.2"/>
<text x="253.99" y="19.37" text-anchor="end" dominant-baseline="central" font-size="12"><tspan dy="0.00">1.5</tspan></text>
<polyline points="423.62,181.00 423.40,176.77 422.73,172.58 421.64,168.44 420.11,164.38 418.17,160.44 415.83,156.63 413.11,152.99 410.02,149.53 406.60,146.28 402.87,143.25 398.85,140.46 394.59,137.92 390.10,135.63 385.42,133.62 380.59,131.88 375.64,130.40 370.60,129.20 365.51,128.26 360.40,127.57 355.31,127.12 350.26,126.91 345.29,126.90 340.43,127.09 335.69,127.45 331.12,127.96 326.72,128.58 322.52,129.30 318.53,130.09 314.77,130.91 311.24,131.75 307.96,132.56 304.93,133.32 302.14,134.00 299.59,134.57 297.28,135.00 295.21,135.28 293.35,135.37 291.69,135.26 290.23,134.92 288.93,134.34 287.78,133.51 286.75,132.41 285.83,131.03 284.98,129.37 284.18,127.44 283.40,125.22 282.62,122.73 281.82,119.98 280.96,116.97 280.02,113.72 278.98,110.25 277.81,106.58 276.50,102.73 275.02,98.73 273.36,94.61 271.51,90.40 269.46,86.12 267.19,81.81 264.70,77.51 261.99,73.25 259.06,69.06 255.91,64.98 252.55,61.04 248.99,57.28 245.23,53.73 241.31,50.42 237.22,47.37 233.00,44.63 228.67,42.20 224.24,40.12 219.75,38.40 215.22,37.07 210.69,36.13 206.17,35.59 201.71,35.46 197.32,35.75 193.05,36.46 188.91,37.58 184.95,39.10 181.18,41.03 177.63,43.33 174.32,46.00 171.29,49.03 168.54,52.37 166.09,56.03 163.97,59.96 162.18,64.13 160.73,68.53 159.62,73.12 158.86,77.87 158.45,82.74 158.38,87.71 158.65,92.74 159.24,97.80 160.15,102.85 161.35,107.88 162.82,112.84 164.55,117.72 166.51,122.49 168.67,127.12 171.01,131.60 173.49,135.91 176.09,140.03 178.76,143.94 181.49,147.66 184.23,151.15 186.95,154.43 189.63,157.49 192.22,160.33 194.71,162.97 197.05,165.41 199.23,167.66 201.21,169.74 202.98,171.65 204.51,173.43 205.79,175.09 206.80,176.66 207.53,178.15 207.97,179.59 208.11,181.00 207.97,182.41 207.53,183.85 206.80,185.34 205.79,186.91 204.51,188.57 202.98,190.35 201.21,192.26 199.23,194.34 197.05,196.59 194.71,199.03 192.22,201.67 189.63,204.51 186.95,207.57 184.23,210.85 181.49,214.34 178.76,218.06 176.09,221.97 173.49,226.09 171.01,230.40 168.67,234.88 166.51,239.51 164.55,244.28 162.82,249.16 161.35,254.12 160.15,259.15 159.24,264.20 158.65,269.26 158.38,274.29 158.45,279.26 158.86,284.13 159.62,288.88 160.73,293.47 162.18,297.87 163.97,302.04 166.09,305.97 168.54,309.63 171.29,312.97 174.32,316.00 177.63,318.67 181.18,320.97 184.95,322.90 188.91,324.42 193.05,325.54 197.32,326.25 201.71,326.54 206.17,326.41 210.69,325.87 215.22,324.93 219.75,323.60 224.24,321.88 228.67,319.80 233.00,317.37 237.22,314.63 241.31,311.58 245.23,308.27 248.99,304.72 252.55,300.96 255.91,297.02 259.06,292.94 261.99,288.75 264.70,284.49 267.19,280.19 269.46,275.88 271.51,271.60 273.36,267.39 275.02,263.27 276.50,259.27 277.81,255.42 278.98,251.75 280.02,248.28 280.96,245.03 281.82,242.02 282.62,239.27 283.40,236.78 284.18,234.56 284.98,232.63 285.83,230.97 286.75,229.59 287.78,228.49 288.93,227.66 290.23,227.08 291.69,226.74 293.35,226.63 295.21,226.72 297.28,227.00 299.59,227.43 302.14,228.00 304.93,228.68 307.96,229.44 311.24,230.25 314.77,231.09 318.53,231.91 322.52,232.70 326.72,233.42 331.12,234.04 335.69,234.55 340.43,234.91 345.29,235.10 350.26,235.09 355.31,234.88 360.40,234.43 365.51,233.74 370.60,232.80 375.64,231.60 380.59,230.12 385.42,228.38 390.10,226.37 394.59,224.08 398.85,221.54 402.87,218.75 406.60,215.72 410.02,212.47 413.11,209.01 415.83,205.37 418.17,201.56 420.11,197.62 421.64,193.56 422.73,189.42 423.40,185.23 423.62,181.00" fill="none" stroke="currentColor" stroke-width="2" stroke-linejoin="round" stroke-linecap="round"/>
<text x="538.00" y="171.00" text-anchor="end" dominant-baseline="central" font-size="15" font-style="italic"><tspan dy="0.00">x</tspan></text>
<text x="273.99" y="20.00" text-anchor="start" dominant-baseline="central" font-size="15" font-style="italic"><tspan dy="0.00">y</tspan></text>
</svg>
