<svg xmlns="http://www.w3.org/2000/svg" viewBox="0 0 560 380" width="560" height="380" fill="currentColor" font-family="Georgia, 'Times New Roman', serif">
<line x1="72.70" y1="18.00" x2="72.70" y2="344.00" stroke="#e6e6e6" stroke-width="1"/>
<line x1="145.46" y1="18.00" x2="145.46" y2="344.00" stroke="#e6e6e6" stroke-width="1"/>
<line x1="218.23" y1="18.00" x2="218.23" y2="344.00" stroke="#e6e6e6" stroke-width="1"/>
<line x1="291.00" y1="18.00" x2="291.00" y2="344.00" stroke="#e6e6e6" stroke-width="1"/>
<line x1="363.77" y1="18.00" x2="363.77" y2="344.00" stroke="#e6e6e6" stroke-width="1"/>
<line x1="436.54" y1="18.00" x2="436.54" y2="344.00" stroke="#e6e6e6" stroke-width="1"/>
<line x1="509.30" y1="18.00" x2="509.30" y2="344.00" stroke="#e6e6e6" stroke-width="1"/>
<line x1="44.00" y1="326.54" x2="538.00" y2="326.54" stroke="#e6e6e6" stroke-width="1"/>
<line x1="44.00" y1="253.77" x2="538.00" y2="253.77" stroke="#e6e6e6" stroke-width="1"/>
<line x1="44.00" y1="181.00" x2="538.00" y2="181.00" stroke="#e6e6e6" stroke-width="1"/>
<line x1="44.00" y1="108.23" x2="538.00" y2="108.23" stroke="#e6e6e6" stroke-width="1"/>
<line x1="44.00" y1="35.46" x2="538.00" y2="35.46" stroke="#e6e6e6" stroke-width="1"/>
<line x1="44.00" y1="181.00" x2="538.00" y2="181.00" stroke="currentColor" stroke-width="1.4"/>
<line x1="291.00" y1="18.00" x2="291.00" y2="344.00" stroke="currentColor" stroke-width="1.4"/>
<line x1="72.70" y1="178.00" x2="72.70" y2="184.00" stroke="currentColor" stroke-width="1.2"/>
<text x="72.70" y="194.00" text-anchor="middle" dominant-baseline="central" font-size="12"><tspan dy="0.00">-1.5</tspan></text>
<line x1="145.46" y1="178.00" x2="145.46" y2="184.00" stroke="currentColor" stroke-width="1.2"/>
<text x="145.46" y="194.00" text-anchor="middle" dominant-baseline="central" font-size="12"><tspan dy="0.00">-1</tspan></text>
<line x1="218.23" y1="178.00" x2="218.23" y2="184.00" stroke="currentColor" stroke-width="1.2"/>
<text x="218.23" y="194.00" text-anchor="middle" dominant-baseline="central" font-size="12"><tspan dy="0.00">-0.5</tspan></text>
<line x1="363.77" y1="178.00" x2="363.77" y2="184.00" stroke="currentColor" stroke-width="1.2"/>
<text x="363.77" y="194.00" text-anchor="middle" dominant-baseline="central" font-size="12"><tspan dy="0.00">0.5</tspan></text>
<line x1="436.54" y1="178.00" x2="436.54" y2="184.00" stroke="currentColor" stroke-width="1.2"/>
<text x="436.54" y="194.00" text-anchor="middle" dominant-baseline="central" font-size="12"><tspan dy="0.00">1</tspan></text>
<line x1="509.30" y1="178.00" x2="509.30" y2="184.00" stroke="currentColor" stroke-width="1.2"/>
<text x="509.30" y="194.00" text-anchor="middle" dominant-baseline="central" font-size="12"><tspan dy="0.00">1.5</tspan></text>
<line x1="288.00" y1="326.54" x2="294.00" y2="326.54" stroke="currentColor" stroke-width="1.2"/>
<text x="283.00" y="326.54" text-anchor="end" dominant-baseline="central" font-size="12"><tspan dy="0.00">-1</tspan></text>
<line x1="288.00" y1="253.77" x2="294.00" y2="253.77" stroke="currentColor" stroke-width="1.2"/>
<text x="283.00" y="253.77" text-anchor="end" dominant-baseline="central" font-size="12"><tspan dy="0.00">-0.5</tspan></text>
<line x1="288.00" y1="108.23" x2="294.00" y2="108.23" stroke="currentColor" stroke-width="1.2"/>
<text x="283.00" y="108.23" text-anchor="end" dominant-baseline="central" font-size="12"><tspan dy="0.00">0.5</tspan></text>
<line x1="288.00" y1="35.46" x2="294.00" y2="35.46" stroke="currentColor" stroke-width="1.2"/>
<text x="283.00" y="35.46" text-anchor="end" dominant-baseline="central" font-size="12"><tspan dy="0.00">1</tspan></text>
<polyline points="436.54,181.00 436.49,173.38 436.34,165.79 436.09,158.23 435.74,150.74 435.29,143.33 434.74,136.03 434.10,128.84 433.36,121.81 432.51,114.93 431.58,108.23 430.54,101.74 429.41,95.46 428.19,89.41 426.87,83.62 425.46,78.09 423.95,72.85 422.36,67.90 420.67,63.26 418.90,58.94 417.04,54.96 415.09,51.33 413.06,48.05 410.94,45.13 408.74,42.59 406.46,40.42 404.10,38.64 401.67,37.26 399.15,36.26 396.57,35.66 393.91,35.46 391.18,35.66 388.38,36.26 385.52,37.26 382.59,38.64 379.60,40.42 376.54,42.59 373.43,45.13 370.26,48.05 367.04,51.33 363.77,54.96 360.44,58.94 357.07,63.26 353.65,67.90 350.19,72.85 346.69,78.09 343.16,83.62 339.58,89.41 335.97,95.46 332.33,101.74 328.67,108.23 324.97,114.93 321.26,121.81 317.52,128.84 313.77,136.03 310.00,143.33 306.21,150.74 302.42,158.23 298.62,165.79 294.81,173.38 291.00,181.00 287.19,188.62 283.38,196.21 279.58,203.77 275.79,211.26 272.00,218.67 268.23,225.97 264.48,233.16 260.74,240.19 257.03,247.07 253.33,253.77 249.67,260.26 246.03,266.54 242.42,272.59 238.84,278.38 235.31,283.91 231.81,289.15 228.35,294.10 224.93,298.74 221.56,303.06 218.23,307.04 214.96,310.67 211.74,313.95 208.57,316.87 205.46,319.41 202.40,321.58 199.41,323.36 196.48,324.74 193.62,325.74 190.82,326.34 188.09,326.54 185.43,326.34 182.85,325.74 180.33,324.74 177.90,323.36 175.54,321.58 173.26,319.41 171.06,316.87 168.94,313.95 166.91,310.67 164.96,307.04 163.10,303.06 161.33,298.74 159.64,294.10 158.05,289.15 156.54,283.91 155.13,278.38 153.81,272.59 152.59,266.54 151.46,260.26 150.42,253.77 149.49,247.07 148.64,240.19 147.90,233.16 147.26,225.97 146.71,218.67 146.26,211.26 145.91,203.77 145.66,196.21 145.51,188.62 145.46,181.00 145.51,173.38 145.66,165.79 145.91,158.23 146.26,150.74 146.71,143.33 147.26,136.03 147.90,128.84 148.64,121.81 149.49,114.93 150.42,108.23 151.46,101.74 152.59,95.46 153.81,89.41 155.13,83.62 156.54,78.09 158.05,72.85 159.64,67.90 161.33,63.26 163.10,58.94 164.96,54.96 166.91,51.33 168.94,48.05 171.06,45.13 173.26,42.59 175.54,40.42 177.90,38.64 180.33,37.26 182.85,36.26 185.43,35.66 188.09,35.46 190.82,35.66 193.62,36.26 196.48,37.26 199.41,38.64 202.40,40.42 205.46,42.59 208.57,45.13 211.74,48.05 214.96,51.33 218.23,54.96 221.56,58.94 224.93,63.26 228.35,67.90 231.81,72.85 235.31,78.09 238.84,83.62 242.42,89.41 246.03,95.46 249.67,101.74 253.33,108.23 257.03,114.93 260.74,121.81 264.48,128.84 268.23,136.03 272.00,143.33 275.79,150.74 279.58,158.23 283.38,165.79 287.19,173.38 291.00,181.00 294.81,188.62 298.62,196.21 302.42,203.77 306.21,211.26 310.00,218.67 313.77,225.97 317.52,233.16 321.26,240.19 324.97,247.07 328.67,253.77 332.33,260.26 335.97,266.54 339.58,272.59 343.16,278.38 346.69,283.91 350.19,289.15 353.65,294.10 357.07,298.74 360.44,303.06 363.77,307.04 367.04,310.67 370.26,313.95 373.43,316.87 376.54,319.41 379.60,321.58 382.59,323.36 385.52,324.74 388.38,325.74 391.18,326.34 393.91,326.54 396.57,326.34 399.15,325.74 401.67,324.74 404.10,323.36 406.46,321.58 408.74,319.41 410.94,316.87 413.06,313.95 415.09,310.67 417.04,307.04 418.90,303.06 420.67,298.74 422.36,294.10 423.95,289.15 425.46,283.91 426.87,278.38 428.19,272.59 429.41,266.54 430.54,260.26 431.58,253.77 432.51,247.07 433.36,240.19 434.10,233.16 434.74,225.97 435.29,218.67 435.74,211.26 436.09,203.77 436.34,196.21 436.49,188.62 436.54,181.00" fill="none" stroke="currentColor" stroke-width="2" stroke-linejoin="round" stroke-linecap="round"/>
<circle cx="436.54" cy="181.00" r="3.4" fill="currentColor"/>
<text x="444.54" y="173.00" text-anchor="start" dominant-baseline="central" font-size="14" font-style="italic"><tspan dy="0.00">t=0</tspan></text>
<text x="538.00" y="171.00" text-anchor="end" dominant-baseline="central" font-size="15" font-style="italic"><tspan dy="0.00">x</tspan></text>
<text x="303.00" y="20.00" text-anchor="start" dominant-baseline="central" font-size="15" font-style="italic"><tspan dy="0.00">y</tspan></text>
</svg>
