<svg xmlns="http://www.w3.org/2000/svg" viewBox="0 0 250.4 324.8" width="250" height="325" font-family="Georgia, 'Times New Roman', serif">
<circle cx="125.20" cy="181.00" r="99.20" fill="none" stroke="currentColor" stroke-width="2" stroke-dasharray="7 5"/>
<line x1="125.20" y1="63.20" x2="125.20" y2="298.80" stroke="currentColor" stroke-width="2" stroke-linecap="round" stroke-dasharray="1.5 4"/>
<polygon points="182.24,238.04 208.28,238.04 208.28,264.08 182.24,264.08" fill="#ffffff" class="mtph-pp" stroke="currentColor" stroke-width="2" stroke-linejoin="round"/>
<text class="mtph-lbl" x="209.26" y="251.06" text-anchor="middle" dominant-baseline="central" font-size="18" font-style="italic" fill="#ffffff" stroke="#ffffff" stroke-width="3.2" stroke-linejoin="round"><tspan dy="0.00">m</tspan></text><text x="209.26" y="251.06" text-anchor="middle" dominant-baseline="central" font-size="18" font-style="italic" fill="currentColor"><tspan dy="0.00">m</tspan></text>
<line x1="125.20" y1="181.00" x2="195.26" y2="251.06" stroke="currentColor" stroke-width="2" stroke-linecap="round"/>
<polyline points="125.20,212.00 128.24,211.85 131.25,211.40 134.20,210.66 137.06,209.64 139.81,208.34 142.42,206.78 144.87,204.96 147.12,202.92" fill="none" stroke="currentColor" stroke-width="1.3" stroke-linejoin="round" stroke-linecap="round"/>
<text class="mtph-lbl" x="143.71" y="225.68" text-anchor="middle" dominant-baseline="central" font-size="18" font-style="italic" fill="#ffffff" stroke="#ffffff" stroke-width="3.2" stroke-linejoin="round"><tspan dy="0.00">θ</tspan></text><text x="143.71" y="225.68" text-anchor="middle" dominant-baseline="central" font-size="18" font-style="italic" fill="currentColor"><tspan dy="0.00">θ</tspan></text>
<polyline points="155.67,41.86 151.06,36.46 145.50,32.03 139.20,28.74 132.40,26.70 125.32,26.00 118.25,26.65 111.43,28.64 105.11,31.89 99.52,36.28 94.87,41.66 91.33,47.82 89.02,54.54 88.04,61.58 88.40,68.67 90.12,75.57 93.11,82.02 97.27,87.77 102.46,92.64 108.47,96.42 115.09,99.00 122.08,100.27 129.19,100.19 136.15,98.75 142.71,96.02 148.63,92.09 153.70,87.11" fill="none" stroke="currentColor" stroke-width="2" stroke-linejoin="round" stroke-linecap="round"/>
<line x1="148.63" y1="92.09" x2="153.70" y2="87.11" stroke="currentColor" stroke-width="2" stroke-linecap="round"/><polygon points="153.70,87.11 149.51,97.12 143.62,91.13" fill="currentColor"/>
<text class="mtph-lbl" x="125.20" y="63.20" text-anchor="middle" dominant-baseline="central" font-size="18" font-style="italic" fill="#ffffff" stroke="#ffffff" stroke-width="3.2" stroke-linejoin="round"><tspan dy="0.00">ω</tspan></text><text x="125.20" y="63.20" text-anchor="middle" dominant-baseline="central" font-size="18" font-style="italic" fill="currentColor"><tspan dy="0.00">ω</tspan></text>
<text class="mtph-lbl" x="169.84" y="212.00" text-anchor="middle" dominant-baseline="central" font-size="18" font-style="italic" fill="#ffffff" stroke="#ffffff" stroke-width="3.2" stroke-linejoin="round"><tspan dy="0.00">R</tspan></text><text x="169.84" y="212.00" text-anchor="middle" dominant-baseline="central" font-size="18" font-style="italic" fill="currentColor"><tspan dy="0.00">R</tspan></text>
</svg>
