<svg xmlns="http://www.w3.org/2000/svg" viewBox="0 0 560 380" width="560" height="380" fill="currentColor" font-family="Georgia, 'Times New Roman', serif">
<line x1="44.00" y1="18.00" x2="44.00" y2="344.00" stroke="#e6e6e6" stroke-width="1"/>
<line x1="122.62" y1="18.00" x2="122.62" y2="344.00" stroke="#e6e6e6" stroke-width="1"/>
<line x1="201.25" y1="18.00" x2="201.25" y2="344.00" stroke="#e6e6e6" stroke-width="1"/>
<line x1="279.87" y1="18.00" x2="279.87" y2="344.00" stroke="#e6e6e6" stroke-width="1"/>
<line x1="358.49" y1="18.00" x2="358.49" y2="344.00" stroke="#e6e6e6" stroke-width="1"/>
<line x1="437.11" y1="18.00" x2="437.11" y2="344.00" stroke="#e6e6e6" stroke-width="1"/>
<line x1="515.74" y1="18.00" x2="515.74" y2="344.00" stroke="#e6e6e6" stroke-width="1"/>
<line x1="44.00" y1="332.21" x2="538.00" y2="332.21" stroke="#e6e6e6" stroke-width="1"/>
<line x1="44.00" y1="273.87" x2="538.00" y2="273.87" stroke="#e6e6e6" stroke-width="1"/>
<line x1="44.00" y1="215.52" x2="538.00" y2="215.52" stroke="#e6e6e6" stroke-width="1"/>
<line x1="44.00" y1="157.18" x2="538.00" y2="157.18" stroke="#e6e6e6" stroke-width="1"/>
<line x1="44.00" y1="98.83" x2="538.00" y2="98.83" stroke="#e6e6e6" stroke-width="1"/>
<line x1="44.00" y1="40.48" x2="538.00" y2="40.48" stroke="#e6e6e6" stroke-width="1"/>
<line x1="44.00" y1="157.18" x2="538.00" y2="157.18" stroke="currentColor" stroke-width="1.4"/>
<line x1="44.00" y1="18.00" x2="44.00" y2="344.00" stroke="currentColor" stroke-width="1.4"/>
<line x1="122.62" y1="154.18" x2="122.62" y2="160.18" stroke="currentColor" stroke-width="1.2"/>
<text x="122.62" y="170.18" text-anchor="middle" dominant-baseline="central" font-size="12"><tspan dy="0.00">0.5</tspan></text>
<line x1="201.25" y1="154.18" x2="201.25" y2="160.18" stroke="currentColor" stroke-width="1.2"/>
<text x="201.25" y="170.18" text-anchor="middle" dominant-baseline="central" font-size="12"><tspan dy="0.00">1</tspan></text>
<line x1="279.87" y1="154.18" x2="279.87" y2="160.18" stroke="currentColor" stroke-width="1.2"/>
<text x="279.87" y="170.18" text-anchor="middle" dominant-baseline="central" font-size="12"><tspan dy="0.00">1.5</tspan></text>
<line x1="358.49" y1="154.18" x2="358.49" y2="160.18" stroke="currentColor" stroke-width="1.2"/>
<text x="358.49" y="170.18" text-anchor="middle" dominant-baseline="central" font-size="12"><tspan dy="0.00">2</tspan></text>
<line x1="437.11" y1="154.18" x2="437.11" y2="160.18" stroke="currentColor" stroke-width="1.2"/>
<text x="437.11" y="170.18" text-anchor="middle" dominant-baseline="central" font-size="12"><tspan dy="0.00">2.5</tspan></text>
<line x1="515.74" y1="154.18" x2="515.74" y2="160.18" stroke="currentColor" stroke-width="1.2"/>
<text x="515.74" y="170.18" text-anchor="middle" dominant-baseline="central" font-size="12"><tspan dy="0.00">3</tspan></text>
<line x1="41.00" y1="332.21" x2="47.00" y2="332.21" stroke="currentColor" stroke-width="1.2"/>
<text x="36.00" y="332.21" text-anchor="end" dominant-baseline="central" font-size="12"><tspan dy="0.00">-1.5</tspan></text>
<line x1="41.00" y1="273.87" x2="47.00" y2="273.87" stroke="currentColor" stroke-width="1.2"/>
<text x="36.00" y="273.87" text-anchor="end" dominant-baseline="central" font-size="12"><tspan dy="0.00">-1</tspan></text>
<line x1="41.00" y1="215.52" x2="47.00" y2="215.52" stroke="currentColor" stroke-width="1.2"/>
<text x="36.00" y="215.52" text-anchor="end" dominant-baseline="central" font-size="12"><tspan dy="0.00">-0.5</tspan></text>
<line x1="41.00" y1="98.83" x2="47.00" y2="98.83" stroke="currentColor" stroke-width="1.2"/>
<text x="36.00" y="98.83" text-anchor="end" dominant-baseline="central" font-size="12"><tspan dy="0.00">0.5</tspan></text>
<line x1="41.00" y1="40.48" x2="47.00" y2="40.48" stroke="currentColor" stroke-width="1.2"/>
<text x="36.00" y="40.48" text-anchor="end" dominant-baseline="central" font-size="12"><tspan dy="0.00">1</tspan></text>
<polyline points="44.00,273.87 46.06,273.86 48.12,273.85 50.17,273.83 52.23,273.80 54.29,273.77 56.35,273.72 58.41,273.67 60.47,273.61 62.52,273.54 64.58,273.47 66.64,273.38 68.70,273.29 70.76,273.19 72.82,273.08 74.88,272.96 76.93,272.83 78.99,272.70 81.05,272.55 83.11,272.40 85.17,272.24 87.22,272.07 89.28,271.89 91.34,271.70 93.40,271.50 95.46,271.29 97.52,271.08 99.58,270.85 101.63,270.61 103.69,270.37 105.75,270.11 107.81,269.85 109.87,269.57 111.92,269.29 113.98,268.99 116.04,268.68 118.10,268.36 120.16,268.04 122.22,267.70 124.28,267.35 126.33,266.99 128.39,266.61 130.45,266.23 132.51,265.83 134.57,265.43 136.62,265.01 138.68,264.58 140.74,264.13 142.80,263.68 144.86,263.21 146.92,262.73 148.98,262.23 151.03,261.73 153.09,261.21 155.15,260.68 157.21,260.13 159.27,259.57 161.32,259.00 163.38,258.41 165.44,257.81 167.50,257.19 169.56,256.56 171.62,255.92 173.68,255.26 175.73,254.59 177.79,253.91 179.85,253.20 181.91,252.49 183.97,251.76 186.03,251.01 188.08,250.25 190.14,249.47 192.20,248.68 194.26,247.87 196.32,247.05 198.38,246.21 200.43,245.35 202.49,244.48 204.55,243.60 206.61,242.70 208.67,241.78 210.73,240.84 212.78,239.89 214.84,238.93 216.90,237.95 218.96,236.95 221.02,235.93 223.08,234.90 225.13,233.86 227.19,232.79 229.25,231.71 231.31,230.62 233.37,229.51 235.43,228.38 237.48,227.24 239.54,226.08 241.60,224.90 243.66,223.71 245.72,222.50 247.77,221.28 249.83,220.04 251.89,218.79 253.95,217.52 256.01,216.23 258.07,214.93 260.12,213.62 262.18,212.29 264.24,210.94 266.30,209.58 268.36,208.21 270.42,206.82 272.48,205.42 274.53,204.00 276.59,202.57 278.65,201.12 280.71,199.67 282.77,198.19 284.83,196.71 286.88,195.21 288.94,193.70 291.00,192.18 293.06,190.65 295.12,189.10 297.17,187.55 299.23,185.98 301.29,184.40 303.35,182.81 305.41,181.21 307.47,179.60 309.52,177.98 311.58,176.36 313.64,174.72 315.70,173.07 317.76,171.42 319.82,169.76 321.88,168.09 323.93,166.41 325.99,164.72 328.05,163.03 330.11,161.34 332.17,159.64 334.22,157.93 336.28,156.22 338.34,154.50 340.40,152.78 342.46,151.06 344.52,149.33 346.57,147.60 348.63,145.87 350.69,144.14 352.75,142.40 354.81,140.66 356.87,138.93 358.92,137.19 360.98,135.46 363.04,133.72 365.10,131.99 367.16,130.26 369.22,128.53 371.28,126.81 373.33,125.09 375.39,123.37 377.45,121.65 379.51,119.95 381.57,118.24 383.62,116.55 385.68,114.86 387.74,113.17 389.80,111.50 391.86,109.83 393.92,108.17 395.97,106.52 398.03,104.88 400.09,103.25 402.15,101.63 404.21,100.02 406.27,98.43 408.32,96.84 410.38,95.27 412.44,93.71 414.50,92.17 416.56,90.63 418.62,89.12 420.68,87.62 422.73,86.13 424.79,84.66 426.85,83.21 428.91,81.77 430.97,80.35 433.02,78.95 435.08,77.57 437.14,76.21 439.20,74.86 441.26,73.54 443.32,72.24 445.38,70.95 447.43,69.69 449.49,68.45 451.55,67.24 453.61,66.04 455.67,64.87 457.72,63.72 459.78,62.59 461.84,61.49 463.90,60.42 465.96,59.37 468.02,58.34 470.07,57.34 472.13,56.36 474.19,55.41 476.25,54.49 478.31,53.60 480.37,52.73 482.43,51.89 484.48,51.08 486.54,50.29 488.60,49.54 490.66,48.81 492.72,48.11 494.77,47.44 496.83,46.80 498.89,46.19 500.95,45.61 503.01,45.07 505.07,44.55 507.12,44.06 509.18,43.60 511.24,43.17 513.30,42.78 515.36,42.41 517.42,42.08 519.48,41.78 521.53,41.50 523.59,41.27 525.65,41.06 527.71,40.88 529.77,40.74 531.83,40.63 533.88,40.55 535.94,40.50 538.00,40.48" fill="none" stroke="currentColor" stroke-width="2" stroke-linejoin="round" stroke-linecap="round"/>
<polyline points="44.00,273.87 46.06,273.88 48.12,273.92 50.17,273.99 52.23,274.09 54.29,274.22 56.35,274.37 58.41,274.55 60.47,274.76 62.52,274.99 64.58,275.26 66.64,275.54 68.70,275.86 70.76,276.20 72.82,276.56 74.88,276.96 76.93,277.37 78.99,277.81 81.05,278.28 83.11,278.76 85.17,279.27 87.22,279.80 89.28,280.36 91.34,280.93 93.40,281.53 95.46,282.14 97.52,282.78 99.58,283.43 101.63,284.10 103.69,284.79 105.75,285.49 107.81,286.21 109.87,286.95 111.92,287.69 113.98,288.45 116.04,289.23 118.10,290.01 120.16,290.81 122.22,291.61 124.28,292.42 126.33,293.24 128.39,294.07 130.45,294.90 132.51,295.74 134.57,296.58 136.62,297.42 138.68,298.27 140.74,299.12 142.80,299.96 144.86,300.81 146.92,301.65 148.98,302.49 151.03,303.32 153.09,304.15 155.15,304.97 157.21,305.79 159.27,306.59 161.32,307.39 163.38,308.17 165.44,308.95 167.50,309.71 169.56,310.45 171.62,311.18 173.68,311.90 175.73,312.59 177.79,313.27 179.85,313.93 181.91,314.57 183.97,315.19 186.03,315.78 188.08,316.35 190.14,316.90 192.20,317.42 194.26,317.91 196.32,318.38 198.38,318.82 200.43,319.22 202.49,319.60 204.55,319.95 206.61,320.26 208.67,320.55 210.73,320.79 212.78,321.01 214.84,321.18 216.90,321.32 218.96,321.43 221.02,321.49 223.08,321.52 225.13,321.50 227.19,321.45 229.25,321.36 231.31,321.22 233.37,321.04 235.43,320.82 237.48,320.56 239.54,320.25 241.60,319.90 243.66,319.50 245.72,319.05 247.77,318.56 249.83,318.03 251.89,317.45 253.95,316.82 256.01,316.14 258.07,315.42 260.12,314.64 262.18,313.82 264.24,312.95 266.30,312.03 268.36,311.07 270.42,310.05 272.48,308.99 274.53,307.87 276.59,306.71 278.65,305.50 280.71,304.24 282.77,302.93 284.83,301.57 286.88,300.17 288.94,298.71 291.00,297.21 293.06,295.66 295.12,294.06 297.17,292.41 299.23,290.72 301.29,288.98 303.35,287.19 305.41,285.36 307.47,283.48 309.52,281.56 311.58,279.59 313.64,277.58 315.70,275.53 317.76,273.43 319.82,271.29 321.88,269.11 323.93,266.89 325.99,264.63 328.05,262.33 330.11,260.00 332.17,257.62 334.22,255.21 336.28,252.77 338.34,250.29 340.40,247.78 342.46,245.23 344.52,242.65 346.57,240.04 348.63,237.40 350.69,234.74 352.75,232.04 354.81,229.32 356.87,226.58 358.92,223.81 360.98,221.02 363.04,218.20 365.10,215.37 367.16,212.52 369.22,209.64 371.28,206.76 373.33,203.85 375.39,200.94 377.45,198.01 379.51,195.07 381.57,192.11 383.62,189.15 385.68,186.19 387.74,183.21 389.80,180.24 391.86,177.26 393.92,174.27 395.97,171.29 398.03,168.31 400.09,165.33 402.15,162.36 404.21,159.39 406.27,156.43 408.32,153.47 410.38,150.53 412.44,147.60 414.50,144.68 416.56,141.77 418.62,138.88 420.68,136.01 422.73,133.15 424.79,130.32 426.85,127.50 428.91,124.71 430.97,121.95 433.02,119.21 435.08,116.49 437.14,113.81 439.20,111.15 441.26,108.52 443.32,105.93 445.38,103.37 447.43,100.85 449.49,98.36 451.55,95.91 453.61,93.50 455.67,91.12 457.72,88.79 459.78,86.51 461.84,84.26 463.90,82.06 465.96,79.91 468.02,77.80 470.07,75.75 472.13,73.74 474.19,71.78 476.25,69.87 478.31,68.02 480.37,66.22 482.43,64.47 484.48,62.78 486.54,61.14 488.60,59.57 490.66,58.05 492.72,56.58 494.77,55.18 496.83,53.84 498.89,52.56 500.95,51.34 503.01,50.18 505.07,49.09 507.12,48.05 509.18,47.09 511.24,46.18 513.30,45.35 515.36,44.57 517.42,43.87 519.48,43.23 521.53,42.65 523.59,42.14 525.65,41.70 527.71,41.33 529.77,41.03 531.83,40.79 533.88,40.62 535.94,40.52 538.00,40.48" fill="none" stroke="currentColor" stroke-width="2" stroke-linejoin="round" stroke-linecap="round" stroke-dasharray="7 5"/>
<circle cx="44.00" cy="273.87" r="3.4" fill="currentColor"/>
<text x="52.00" y="265.87" text-anchor="start" dominant-baseline="central" font-size="14" font-style="italic"><tspan dy="0.00">slow: bottom stable</tspan></text>
<text x="538.00" y="147.18" text-anchor="end" dominant-baseline="central" font-size="15" font-style="italic"><tspan dy="0.00">θ</tspan></text>
<text x="56.00" y="20.00" text-anchor="start" dominant-baseline="central" font-size="15" font-style="italic"><tspan dy="0.00">U</tspan><tspan dy="4.50" font-size="10.8">eff</tspan></text>
</svg>
