<svg xmlns="http://www.w3.org/2000/svg" viewBox="0 0 546.0 320.0" width="546" height="320" font-family="Georgia, 'Times New Roman', serif">
<text x="131.5" y="16.1" text-anchor="middle" dominant-baseline="middle" font-size="14" fill="currentColor">Route 1: quasi-static</text>
<svg x="43.5" y="26.0" xmlns="http://www.w3.org/2000/svg" viewBox="0 0 176.0 293.7" width="176" height="294" font-family="Georgia, 'Times New Roman', serif">
<polyline points="26.00,118.90 26.00,267.70 150.00,267.70 150.00,118.90" fill="none" stroke="currentColor" stroke-width="2" stroke-linejoin="round" stroke-linecap="round"/>
<circle cx="119.18" cy="198.80" r="3.72" fill="currentColor" stroke="currentColor" stroke-width="1.3"/>
<circle cx="80.81" cy="233.14" r="3.72" fill="currentColor" stroke="currentColor" stroke-width="1.3"/>
<circle cx="89.02" cy="223.09" r="3.72" fill="currentColor" stroke="currentColor" stroke-width="1.3"/>
<circle cx="113.69" cy="230.09" r="3.72" fill="currentColor" stroke="currentColor" stroke-width="1.3"/>
<circle cx="85.88" cy="210.81" r="3.72" fill="currentColor" stroke="currentColor" stroke-width="1.3"/>
<circle cx="124.94" cy="216.23" r="3.72" fill="currentColor" stroke="currentColor" stroke-width="1.3"/>
<circle cx="68.25" cy="198.95" r="3.72" fill="currentColor" stroke="currentColor" stroke-width="1.3"/>
<circle cx="98.71" cy="233.72" r="3.72" fill="currentColor" stroke="currentColor" stroke-width="1.3"/>
<circle cx="125.09" cy="183.32" r="3.72" fill="currentColor" stroke="currentColor" stroke-width="1.3"/>
<circle cx="116.08" cy="188.87" r="3.72" fill="currentColor" stroke="currentColor" stroke-width="1.3"/>
<polygon points="26.00,159.20 150.00,159.20 150.00,171.60 26.00,171.60" fill="#cccccc" stroke="currentColor" stroke-width="2" stroke-linejoin="round"/>
<line x1="88.00" y1="159.20" x2="88.00" y2="122.00" stroke="currentColor" stroke-width="3" stroke-linecap="round"/>
<line x1="88.00" y1="103.40" x2="88.00" y2="60.00" stroke="currentColor" stroke-width="2" stroke-linecap="round"/><polygon points="88.00,60.00 92.20,70.00 83.80,70.00" fill="currentColor"/>
<text class="mtph-lbl" x="88.00" y="44.00" text-anchor="middle" dominant-baseline="central" font-size="18" font-style="italic" fill="#ffffff" stroke="#ffffff" stroke-width="3.2" stroke-linejoin="round"><tspan dy="0.00">slow</tspan></text><text x="88.00" y="44.00" text-anchor="middle" dominant-baseline="central" font-size="18" font-style="italic" fill="currentColor"><tspan dy="0.00">slow</tspan></text>
</svg>
<text x="414.5" y="16.1" text-anchor="middle" dominant-baseline="middle" font-size="14" fill="currentColor">Route 2: free expansion</text>
<svg x="283.0" y="85.0" xmlns="http://www.w3.org/2000/svg" viewBox="0 0 262.8 176.0" width="263" height="176" font-family="Georgia, 'Times New Roman', serif">
<polyline points="26.00,26.00 26.00,150.00 236.80,150.00 236.80,26.00" fill="none" stroke="currentColor" stroke-width="2" stroke-linejoin="round" stroke-linecap="round"/>
<circle cx="98.24" cy="64.65" r="3.72" fill="currentColor" stroke="currentColor" stroke-width="1.3"/>
<circle cx="70.38" cy="109.82" r="3.72" fill="currentColor" stroke="currentColor" stroke-width="1.3"/>
<circle cx="76.34" cy="96.61" r="3.72" fill="currentColor" stroke="currentColor" stroke-width="1.3"/>
<circle cx="94.25" cy="105.80" r="3.72" fill="currentColor" stroke="currentColor" stroke-width="1.3"/>
<circle cx="74.06" cy="80.45" r="3.72" fill="currentColor" stroke="currentColor" stroke-width="1.3"/>
<circle cx="102.42" cy="87.58" r="3.72" fill="currentColor" stroke="currentColor" stroke-width="1.3"/>
<circle cx="61.26" cy="64.84" r="3.72" fill="currentColor" stroke="currentColor" stroke-width="1.3"/>
<circle cx="83.38" cy="110.58" r="3.72" fill="currentColor" stroke="currentColor" stroke-width="1.3"/>
<circle cx="102.53" cy="44.30" r="3.72" fill="currentColor" stroke="currentColor" stroke-width="1.3"/>
<circle cx="95.99" cy="51.60" r="3.72" fill="currentColor" stroke="currentColor" stroke-width="1.3"/>
<line x1="128.30" y1="150.00" x2="128.30" y2="26.00" stroke="currentColor" stroke-width="2" stroke-linecap="round" stroke-dasharray="7 5"/>
<text class="mtph-lbl" x="181.00" y="88.00" text-anchor="middle" dominant-baseline="central" font-size="18" font-style="italic" fill="#ffffff" stroke="#ffffff" stroke-width="3.2" stroke-linejoin="round"><tspan dy="0.00">vacuum</tspan></text><text x="181.00" y="88.00" text-anchor="middle" dominant-baseline="central" font-size="18" font-style="italic" fill="currentColor"><tspan dy="0.00">vacuum</tspan></text>
</svg>
</svg>
