<svg xmlns="http://www.w3.org/2000/svg" viewBox="0 0 560 380" width="560" height="380" fill="currentColor" font-family="Georgia, 'Times New Roman', serif">
<line x1="44.00" y1="18.00" x2="44.00" y2="344.00" stroke="#e6e6e6" stroke-width="1"/>
<line x1="98.89" y1="18.00" x2="98.89" y2="344.00" stroke="#e6e6e6" stroke-width="1"/>
<line x1="153.78" y1="18.00" x2="153.78" y2="344.00" stroke="#e6e6e6" stroke-width="1"/>
<line x1="208.67" y1="18.00" x2="208.67" y2="344.00" stroke="#e6e6e6" stroke-width="1"/>
<line x1="263.56" y1="18.00" x2="263.56" y2="344.00" stroke="#e6e6e6" stroke-width="1"/>
<line x1="318.44" y1="18.00" x2="318.44" y2="344.00" stroke="#e6e6e6" stroke-width="1"/>
<line x1="373.33" y1="18.00" x2="373.33" y2="344.00" stroke="#e6e6e6" stroke-width="1"/>
<line x1="428.22" y1="18.00" x2="428.22" y2="344.00" stroke="#e6e6e6" stroke-width="1"/>
<line x1="483.11" y1="18.00" x2="483.11" y2="344.00" stroke="#e6e6e6" stroke-width="1"/>
<line x1="538.00" y1="18.00" x2="538.00" y2="344.00" stroke="#e6e6e6" stroke-width="1"/>
<line x1="44.00" y1="325.26" x2="538.00" y2="325.26" stroke="#e6e6e6" stroke-width="1"/>
<line x1="44.00" y1="280.30" x2="538.00" y2="280.30" stroke="#e6e6e6" stroke-width="1"/>
<line x1="44.00" y1="235.33" x2="538.00" y2="235.33" stroke="#e6e6e6" stroke-width="1"/>
<line x1="44.00" y1="190.37" x2="538.00" y2="190.37" stroke="#e6e6e6" stroke-width="1"/>
<line x1="44.00" y1="145.40" x2="538.00" y2="145.40" stroke="#e6e6e6" stroke-width="1"/>
<line x1="44.00" y1="100.44" x2="538.00" y2="100.44" stroke="#e6e6e6" stroke-width="1"/>
<line x1="44.00" y1="55.47" x2="538.00" y2="55.47" stroke="#e6e6e6" stroke-width="1"/>
<line x1="44.00" y1="344.00" x2="538.00" y2="344.00" stroke="currentColor" stroke-width="1.4"/>
<line x1="44.00" y1="18.00" x2="44.00" y2="344.00" stroke="currentColor" stroke-width="1.4"/>
<line x1="44.00" y1="341.00" x2="44.00" y2="347.00" stroke="currentColor" stroke-width="1.2"/>
<text x="44.00" y="357.00" text-anchor="middle" dominant-baseline="central" font-size="12"><tspan dy="0.00">0.6</tspan></text>
<line x1="98.89" y1="341.00" x2="98.89" y2="347.00" stroke="currentColor" stroke-width="1.2"/>
<text x="98.89" y="357.00" text-anchor="middle" dominant-baseline="central" font-size="12"><tspan dy="0.00">0.8</tspan></text>
<line x1="153.78" y1="341.00" x2="153.78" y2="347.00" stroke="currentColor" stroke-width="1.2"/>
<text x="153.78" y="357.00" text-anchor="middle" dominant-baseline="central" font-size="12"><tspan dy="0.00">1</tspan></text>
<line x1="208.67" y1="341.00" x2="208.67" y2="347.00" stroke="currentColor" stroke-width="1.2"/>
<text x="208.67" y="357.00" text-anchor="middle" dominant-baseline="central" font-size="12"><tspan dy="0.00">1.2</tspan></text>
<line x1="263.56" y1="341.00" x2="263.56" y2="347.00" stroke="currentColor" stroke-width="1.2"/>
<text x="263.56" y="357.00" text-anchor="middle" dominant-baseline="central" font-size="12"><tspan dy="0.00">1.4</tspan></text>
<line x1="318.44" y1="341.00" x2="318.44" y2="347.00" stroke="currentColor" stroke-width="1.2"/>
<text x="318.44" y="357.00" text-anchor="middle" dominant-baseline="central" font-size="12"><tspan dy="0.00">1.6</tspan></text>
<line x1="373.33" y1="341.00" x2="373.33" y2="347.00" stroke="currentColor" stroke-width="1.2"/>
<text x="373.33" y="357.00" text-anchor="middle" dominant-baseline="central" font-size="12"><tspan dy="0.00">1.8</tspan></text>
<line x1="428.22" y1="341.00" x2="428.22" y2="347.00" stroke="currentColor" stroke-width="1.2"/>
<text x="428.22" y="357.00" text-anchor="middle" dominant-baseline="central" font-size="12"><tspan dy="0.00">2</tspan></text>
<line x1="483.11" y1="341.00" x2="483.11" y2="347.00" stroke="currentColor" stroke-width="1.2"/>
<text x="483.11" y="357.00" text-anchor="middle" dominant-baseline="central" font-size="12"><tspan dy="0.00">2.2</tspan></text>
<line x1="538.00" y1="341.00" x2="538.00" y2="347.00" stroke="currentColor" stroke-width="1.2"/>
<text x="538.00" y="357.00" text-anchor="middle" dominant-baseline="central" font-size="12"><tspan dy="0.00">2.4</tspan></text>
<line x1="41.00" y1="325.26" x2="47.00" y2="325.26" stroke="currentColor" stroke-width="1.2"/>
<text x="36.00" y="325.26" text-anchor="end" dominant-baseline="central" font-size="12"><tspan dy="0.00">0.4</tspan></text>
<line x1="41.00" y1="280.30" x2="47.00" y2="280.30" stroke="currentColor" stroke-width="1.2"/>
<text x="36.00" y="280.30" text-anchor="end" dominant-baseline="central" font-size="12"><tspan dy="0.00">0.6</tspan></text>
<line x1="41.00" y1="235.33" x2="47.00" y2="235.33" stroke="currentColor" stroke-width="1.2"/>
<text x="36.00" y="235.33" text-anchor="end" dominant-baseline="central" font-size="12"><tspan dy="0.00">0.8</tspan></text>
<line x1="41.00" y1="190.37" x2="47.00" y2="190.37" stroke="currentColor" stroke-width="1.2"/>
<text x="36.00" y="190.37" text-anchor="end" dominant-baseline="central" font-size="12"><tspan dy="0.00">1</tspan></text>
<line x1="41.00" y1="145.40" x2="47.00" y2="145.40" stroke="currentColor" stroke-width="1.2"/>
<text x="36.00" y="145.40" text-anchor="end" dominant-baseline="central" font-size="12"><tspan dy="0.00">1.2</tspan></text>
<line x1="41.00" y1="100.44" x2="47.00" y2="100.44" stroke="currentColor" stroke-width="1.2"/>
<text x="36.00" y="100.44" text-anchor="end" dominant-baseline="central" font-size="12"><tspan dy="0.00">1.4</tspan></text>
<line x1="41.00" y1="55.47" x2="47.00" y2="55.47" stroke="currentColor" stroke-width="1.2"/>
<text x="36.00" y="55.47" text-anchor="end" dominant-baseline="central" font-size="12"><tspan dy="0.00">1.6</tspan></text>
<polyline points="44.00,40.48 46.06,45.11 48.12,49.62 50.17,54.03 52.23,58.33 54.29,62.52 56.35,66.63 58.41,70.63 60.47,74.55 62.53,78.38 64.58,82.12 66.64,85.78 68.70,89.36 70.76,92.86 72.82,96.29 74.87,99.65 76.93,102.93 78.99,106.15 81.05,109.31 83.11,112.40 85.17,115.43 87.22,118.39 89.28,121.30 91.34,124.16 93.40,126.95 95.46,129.70 97.52,132.39 99.58,135.04 101.63,137.63 103.69,140.18 105.75,142.68 107.81,145.13 109.87,147.54 111.92,149.91 113.98,152.24 116.04,154.53 118.10,156.77 120.16,158.98 122.22,161.15 124.27,163.29 126.33,165.39 128.39,167.45 130.45,169.48 132.51,171.48 134.57,173.45 136.62,175.38 138.68,177.28 140.74,179.16 142.80,181.00 144.86,182.82 146.92,184.60 148.97,186.36 151.03,188.10 153.09,189.80 155.15,191.49 157.21,193.14 159.27,194.78 161.32,196.39 163.38,197.97 165.44,199.53 167.50,201.07 169.56,202.59 171.62,204.09 173.68,205.57 175.73,207.02 177.79,208.46 179.85,209.87 181.91,211.27 183.97,212.65 186.03,214.01 188.08,215.35 190.14,216.67 192.20,217.98 194.26,219.27 196.32,220.54 198.38,221.80 200.43,223.04 202.49,224.26 204.55,225.47 206.61,226.66 208.67,227.84 210.73,229.00 212.78,230.15 214.84,231.29 216.90,232.41 218.96,233.52 221.02,234.61 223.08,235.69 225.13,236.76 227.19,237.82 229.25,238.86 231.31,239.89 233.37,240.91 235.42,241.92 237.48,242.91 239.54,243.90 241.60,244.87 243.66,245.83 245.72,246.79 247.77,247.73 249.83,248.66 251.89,249.58 253.95,250.49 256.01,251.39 258.07,252.28 260.12,253.16 262.18,254.03 264.24,254.89 266.30,255.74 268.36,256.59 270.42,257.42 272.48,258.25 274.53,259.07 276.59,259.87 278.65,260.67 280.71,261.47 282.77,262.25 284.82,263.03 286.88,263.80 288.94,264.56 291.00,265.31 293.06,266.06 295.12,266.79 297.18,267.53 299.23,268.25 301.29,268.97 303.35,269.68 305.41,270.38 307.47,271.08 309.52,271.76 311.58,272.45 313.64,273.12 315.70,273.79 317.76,274.46 319.82,275.12 321.87,275.77 323.93,276.41 325.99,277.05 328.05,277.69 330.11,278.31 332.17,278.94 334.22,279.55 336.28,280.16 338.34,280.77 340.40,281.37 342.46,281.96 344.52,282.55 346.57,283.14 348.63,283.72 350.69,284.29 352.75,284.86 354.81,285.42 356.87,285.98 358.93,286.54 360.98,287.09 363.04,287.63 365.10,288.17 367.16,288.71 369.22,289.24 371.27,289.77 373.33,290.29 375.39,290.81 377.45,291.32 379.51,291.83 381.57,292.34 383.62,292.84 385.68,293.34 387.74,293.83 389.80,294.32 391.86,294.81 393.92,295.29 395.97,295.77 398.03,296.24 400.09,296.71 402.15,297.18 404.21,297.64 406.27,298.10 408.32,298.55 410.38,299.01 412.44,299.45 414.50,299.90 416.56,300.34 418.62,300.78 420.67,301.21 422.73,301.65 424.79,302.07 426.85,302.50 428.91,302.92 430.97,303.34 433.03,303.76 435.08,304.17 437.14,304.58 439.20,304.99 441.26,305.39 443.32,305.79 445.37,306.19 447.43,306.58 449.49,306.98 451.55,307.36 453.61,307.75 455.67,308.13 457.73,308.52 459.78,308.89 461.84,309.27 463.90,309.64 465.96,310.01 468.02,310.38 470.07,310.75 472.13,311.11 474.19,311.47 476.25,311.83 478.31,312.18 480.37,312.53 482.42,312.88 484.48,313.23 486.54,313.58 488.60,313.92 490.66,314.26 492.72,314.60 494.77,314.94 496.83,315.27 498.89,315.60 500.95,315.93 503.01,316.26 505.07,316.59 507.12,316.91 509.18,317.23 511.24,317.55 513.30,317.87 515.36,318.18 517.42,318.50 519.47,318.81 521.53,319.12 523.59,319.42 525.65,319.73 527.71,320.03 529.77,320.33 531.83,320.63 533.88,320.93 535.94,321.22 538.00,321.52" fill="none" stroke="currentColor" stroke-width="2" stroke-linejoin="round" stroke-linecap="round"/>
<circle cx="153.78" cy="190.37" r="3.4" fill="currentColor"/>
<text x="161.78" y="182.37" text-anchor="start" dominant-baseline="central" font-size="14" font-style="italic"><tspan dy="0.00">start</tspan></text>
<circle cx="428.22" cy="302.78" r="3.4" fill="currentColor"/>
<text x="436.22" y="294.78" text-anchor="start" dominant-baseline="central" font-size="14" font-style="italic"><tspan dy="0.00">end</tspan></text>
<text x="538.00" y="334.00" text-anchor="end" dominant-baseline="central" font-size="15" font-style="italic"><tspan dy="0.00">V</tspan></text>
<text x="56.00" y="20.00" text-anchor="start" dominant-baseline="central" font-size="15" font-style="italic"><tspan dy="0.00">P</tspan></text>
</svg>
